<?xml version="1.0" encoding="UTF-8"?>
<!DOCTYPE svg PUBLIC "-//W3C//DTD SVG 1.1//EN" "http://www.w3.org/Graphics/SVG/1.1/DTD/svg11.dtd">
<svg xmlns="http://www.w3.org/2000/svg" version="1.1" width="188px" height="188px" style="shape-rendering:geometricPrecision; text-rendering:geometricPrecision; image-rendering:optimizeQuality; fill-rule:evenodd; clip-rule:evenodd" xmlns:xlink="http://www.w3.org/1999/xlink">
<g><path style="opacity:0.106" fill="#59c5cd" d="M 147.5,24.5 C 147.5,21.8333 147.5,19.1667 147.5,16.5C 146.167,16.5 144.833,16.5 143.5,16.5C 152.365,12.7717 160.198,14.4384 167,21.5C 168.202,23.6775 168.702,26.0108 168.5,28.5C 166.181,29.167 163.847,29.3336 161.5,29C 157.987,23.8069 153.321,22.3069 147.5,24.5 Z"/></g>
<g><path style="opacity:0.968" fill="#9beef2" d="M 143.5,16.5 C 144.833,16.5 146.167,16.5 147.5,16.5C 147.5,19.1667 147.5,21.8333 147.5,24.5C 140.952,26.7725 134.619,29.6058 128.5,33C 123.504,33.6643 121.67,31.4977 123,26.5C 129.38,22.2268 136.213,18.8934 143.5,16.5 Z"/></g>
<g><path style="opacity:0.01" fill="#5fc9d0" d="M 108.5,32.5 C 115.896,32.6148 117.23,35.4481 112.5,41C 109.28,42.7771 105.947,44.2771 102.5,45.5C 100.563,44.7396 98.7301,43.7396 97,42.5C 96.4926,41.0039 96.9926,39.8373 98.5,39C 102.069,37.0583 105.402,34.8916 108.5,32.5 Z"/></g>
<g><path style="opacity:0.078" fill="#52bfc7" d="M 167.5,60.5 C 167.5,58.5 167.5,56.5 167.5,54.5C 164.833,54.5 162.167,54.5 159.5,54.5C 160.15,48.1517 160.983,41.8184 162,35.5C 164.381,34.565 166.881,34.2317 169.5,34.5C 169.803,43.3894 169.137,52.0561 167.5,60.5 Z"/></g>
<g><path style="opacity:0.968" fill="#aaf4f7" d="M 138.5,53.5 C 134.175,53.8981 131.675,51.8981 131,47.5C 130.833,47 130.667,46.5 130.5,46C 131.544,44.8261 132.544,43.6594 133.5,42.5C 141.513,39.5714 145.013,42.238 144,50.5C 142.736,52.607 140.903,53.607 138.5,53.5 Z"/></g>
<g><path style="opacity:0.935" fill="#9ceff3" d="M 133.5,42.5 C 132.544,43.6594 131.544,44.8261 130.5,46C 130.667,46.5 130.833,47 131,47.5C 131.675,51.8981 134.175,53.8981 138.5,53.5C 136.064,54.871 133.397,55.871 130.5,56.5C 128.712,56.7852 127.045,56.4519 125.5,55.5C 123.226,52.6962 122.56,49.6962 123.5,46.5C 126.54,44.6541 129.873,43.3208 133.5,42.5 Z"/></g>
<g><path style="opacity:0.475" fill="#7de1e7" d="M 123.5,46.5 C 122.56,49.6962 123.226,52.6962 125.5,55.5C 127.045,56.4519 128.712,56.7852 130.5,56.5C 126.576,58.1472 122.576,59.8139 118.5,61.5C 113.126,61.1179 110.459,58.1179 110.5,52.5C 114.405,49.7164 118.738,47.7164 123.5,46.5 Z"/></g>
<g><path style="opacity:0.049" fill="#5cc6cd" d="M 79.5,59.5 C 79.5858,58.5041 79.2524,57.6708 78.5,57C 76.7834,55.4412 74.7834,54.6079 72.5,54.5C 77.0556,50.3879 82.3889,48.2213 88.5,48C 90.3293,49.1133 91.1626,50.6133 91,52.5C 87.2636,55.0859 83.4303,57.4192 79.5,59.5 Z"/></g>
<g><path style="opacity:0.179" fill="#59c6cf" d="M 110.5,52.5 C 110.459,58.1179 113.126,61.1179 118.5,61.5C 114.151,64.3411 109.484,66.6745 104.5,68.5C 103.624,68.6309 102.957,68.2975 102.5,67.5C 101.16,64.4707 99.8266,61.4707 98.5,58.5C 102.182,55.9922 106.182,53.9922 110.5,52.5 Z"/></g>
<g><path style="opacity:0.193" fill="#51bfc7" d="M 72.5,54.5 C 74.7834,54.6079 76.7834,55.4412 78.5,57C 79.2524,57.6708 79.5858,58.5041 79.5,59.5C 74.205,63.4884 68.8716,67.4884 63.5,71.5C 63.205,67.8715 61.205,65.8715 57.5,65.5C 61.929,61.1125 66.929,57.4458 72.5,54.5 Z"/></g>
<g><path style="opacity:0.081" fill="#52bdc5" d="M 98.5,58.5 C 99.8266,61.4707 101.16,64.4707 102.5,67.5C 102.957,68.2975 103.624,68.6309 104.5,68.5C 101.227,71.1442 97.5599,73.3109 93.5,75C 92.2161,75.6838 91.0495,75.5171 90,74.5C 88.1683,71.6722 87.1683,68.6722 87,65.5C 90.4727,62.5164 94.306,60.1831 98.5,58.5 Z"/></g>
<g><path style="opacity:0.68" fill="#7ee1e7" d="M 159.5,54.5 C 162.167,54.5 164.833,54.5 167.5,54.5C 167.5,56.5 167.5,58.5 167.5,60.5C 167.229,67.4071 166.229,74.0737 164.5,80.5C 164.5,77.8333 164.5,75.1667 164.5,72.5C 160.731,71.9602 158.064,73.2935 156.5,76.5C 157.687,69.1939 158.687,61.8606 159.5,54.5 Z"/></g>
<g><path style="opacity:0.344" fill="#63d0d8" d="M 57.5,65.5 C 61.205,65.8715 63.205,67.8715 63.5,71.5C 59.8333,74.5 56.5,77.8333 53.5,81.5C 53.1459,79.4588 53.1459,77.6255 53.5,76C 51.6349,74.2002 49.6349,74.0336 47.5,75.5C 49.8119,71.1881 53.1452,67.8548 57.5,65.5 Z"/></g>
<g><path style="opacity:0.965" fill="#a4f2f5" d="M 147.5,84.5 C 147.167,84.5 146.833,84.5 146.5,84.5C 146.768,81.8806 146.435,79.3806 145.5,77C 143.645,76.5779 141.811,76.0779 140,75.5C 138.401,76.0707 137.234,77.0707 136.5,78.5C 136.506,73.7847 137.006,69.118 138,64.5C 140.612,61.4241 143.779,60.7575 147.5,62.5C 149.029,64.7073 149.695,67.2073 149.5,70C 149.157,74.8991 148.491,79.7324 147.5,84.5 Z"/></g>
<g><path style="opacity:0.973" fill="#aaf4f8" d="M 123.5,75.5 C 123.657,76.8734 123.49,78.2068 123,79.5C 119.5,83.6667 116,87.8333 112.5,92C 111.207,92.49 109.873,92.6567 108.5,92.5C 109.759,86.653 112.092,81.3196 115.5,76.5C 118.04,74.5873 120.707,74.254 123.5,75.5 Z"/></g>
<g><path style="opacity:0.089" fill="#53bfc7" d="M 78.5,70.5 C 79.675,70.281 80.675,70.6143 81.5,71.5C 82.5565,74.1886 83.8899,76.6886 85.5,79C 82.0805,84.1118 77.4139,87.1118 71.5,88C 67.7084,85.9473 66.5418,82.7806 68,78.5C 71.4004,75.5862 74.9004,72.9195 78.5,70.5 Z"/></g>
<g><path style="opacity:0.94" fill="#9ceff4" d="M 123.5,75.5 C 124.117,75.6107 124.617,75.944 125,76.5C 125.607,80.5369 125.44,84.5369 124.5,88.5C 121.871,93.6174 117.704,97.2841 112,99.5C 111.722,98.5842 111.222,97.9175 110.5,97.5C 110.762,96.0222 110.429,94.6888 109.5,93.5C 107.925,94.4565 106.258,95.1231 104.5,95.5C 103.5,95.5 102.5,95.5 101.5,95.5C 100.975,90.8602 101.642,86.5269 103.5,82.5C 107.182,79.9922 111.182,77.9922 115.5,76.5C 112.092,81.3196 109.759,86.653 108.5,92.5C 109.873,92.6567 111.207,92.49 112.5,92C 116,87.8333 119.5,83.6667 123,79.5C 123.49,78.2068 123.657,76.8734 123.5,75.5 Z"/></g>
<g><path style="opacity:0.968" fill="#adf6f9" d="M 146.5,84.5 C 146.642,91.4008 143.642,93.2342 137.5,90C 136.54,86.27 136.207,82.4367 136.5,78.5C 137.234,77.0707 138.401,76.0707 140,75.5C 141.811,76.0779 143.645,76.5779 145.5,77C 146.435,79.3806 146.768,81.8806 146.5,84.5 Z"/></g>
<g><path style="opacity:0.688" fill="#83e4ea" d="M 53.5,81.5 C 47.5957,89.2985 43.9291,97.9652 42.5,107.5C 42.8161,103.475 42.9828,99.4754 43,95.5C 41.9805,94.3128 40.8139,93.3128 39.5,92.5C 37.8726,94.7654 36.5392,97.0987 35.5,99.5C 36.8705,90.0923 40.8705,82.0923 47.5,75.5C 49.6349,74.0336 51.6349,74.2002 53.5,76C 53.1459,77.6255 53.1459,79.4588 53.5,81.5 Z"/></g>
<g><path style="opacity:0.948" fill="#a2f1f5" d="M 164.5,80.5 C 164.143,86.6412 163.143,92.6412 161.5,98.5C 160.751,99.531 160.085,100.698 159.5,102C 157.527,102.495 155.527,102.662 153.5,102.5C 153.5,100.5 153.5,98.5 153.5,96.5C 154.285,89.7893 155.285,83.1227 156.5,76.5C 158.064,73.2935 160.731,71.9602 164.5,72.5C 164.5,75.1667 164.5,77.8333 164.5,80.5 Z"/></g>
<g><path style="opacity:0.867" fill="#9df0f4" d="M 136.5,78.5 C 136.207,82.4367 136.54,86.27 137.5,90C 143.642,93.2342 146.642,91.4008 146.5,84.5C 146.833,84.5 147.167,84.5 147.5,84.5C 147.05,89.2016 146.383,93.8683 145.5,98.5C 144.229,100.109 143.229,101.942 142.5,104C 139.498,103.842 136.498,103.342 133.5,102.5C 133.5,100.5 133.5,98.5 133.5,96.5C 133.957,90.2801 134.957,84.2801 136.5,78.5 Z"/></g>
<g><path style="opacity:0.363" fill="#6dd7de" d="M 103.5,82.5 C 101.642,86.5269 100.975,90.8602 101.5,95.5C 102.5,95.5 103.5,95.5 104.5,95.5C 101.204,97.8208 97.8708,100.154 94.5,102.5C 91.0135,102.095 87.6801,101.095 84.5,99.5C 83.6143,98.675 83.281,97.675 83.5,96.5C 89.1087,90.3589 95.7753,85.6923 103.5,82.5 Z"/></g>
<g><path style="opacity:0.741" fill="#8de9ee" d="M 65.5,107.5 C 65.5,105.833 65.5,104.167 65.5,102.5C 65.4413,100.278 64.2747,99.2776 62,99.5C 60.1049,99.6148 58.4382,100.282 57,101.5C 55.0393,106.639 54.206,111.972 54.5,117.5C 53.3516,113.019 53.1849,108.352 54,103.5C 54.0664,97.9972 56.5664,94.3306 61.5,92.5C 65.5944,93.0155 67.5944,95.3489 67.5,99.5C 67.1957,102.386 66.529,105.052 65.5,107.5 Z"/></g>
<g><path style="opacity:0.939" fill="#a2f2f6" d="M 65.5,102.5 C 63.1119,103.219 61.6119,104.885 61,107.5C 58.9774,113.395 57.4774,119.395 56.5,125.5C 54.9605,123.162 54.2938,120.495 54.5,117.5C 54.206,111.972 55.0393,106.639 57,101.5C 58.4382,100.282 60.1049,99.6148 62,99.5C 64.2747,99.2776 65.4413,100.278 65.5,102.5 Z"/></g>
<g><path style="opacity:0.973" fill="#a8f4f7" d="M 65.5,102.5 C 65.5,104.167 65.5,105.833 65.5,107.5C 65.6159,110.86 65.9492,114.193 66.5,117.5C 65.5902,115.981 64.7568,114.315 64,112.5C 61.0406,119.305 59.8739,126.305 60.5,133.5C 58.2295,131.388 56.8961,128.721 56.5,125.5C 57.4774,119.395 58.9774,113.395 61,107.5C 61.6119,104.885 63.1119,103.219 65.5,102.5 Z"/></g>
<g><path style="opacity:0.94" fill="#a3f2f5" d="M 42.5,107.5 C 42.8983,115.537 43.3983,123.537 44,131.5C 41.0844,133.013 38.4177,132.68 36,130.5C 33.0272,120.052 32.8606,109.719 35.5,99.5C 36.5392,97.0987 37.8726,94.7654 39.5,92.5C 40.8139,93.3128 41.9805,94.3128 43,95.5C 42.9828,99.4754 42.8161,103.475 42.5,107.5 Z"/></g>
<g><path style="opacity:0.455" fill="#74dbe2" d="M 124.5,88.5 C 123.373,98.2649 121.706,107.932 119.5,117.5C 114.346,117.427 110.679,115.094 108.5,110.5C 108.799,106.072 109.465,101.739 110.5,97.5C 111.222,97.9175 111.722,98.5842 112,99.5C 117.704,97.2841 121.871,93.6174 124.5,88.5 Z"/></g>
<g><path style="opacity:0.592" fill="#86e6eb" d="M 133.5,96.5 C 133.5,98.5 133.5,100.5 133.5,102.5C 136.498,103.342 139.498,103.842 142.5,104C 143.229,101.942 144.229,100.109 145.5,98.5C 144.372,104.142 143.372,109.809 142.5,115.5C 141.057,116.335 140.057,117.668 139.5,119.5C 136.833,118.5 134.167,117.5 131.5,116.5C 130.571,115.311 130.238,113.978 130.5,112.5C 131.011,106.951 132.011,101.617 133.5,96.5 Z"/></g>
<g><path style="opacity:0.1" fill="#55c0c8" d="M 83.5,96.5 C 83.281,97.675 83.6143,98.675 84.5,99.5C 87.6801,101.095 91.0135,102.095 94.5,102.5C 91.5535,107.096 91.8869,111.429 95.5,115.5C 93.3333,119.167 91.1667,122.833 89,126.5C 80.0736,121.419 76.7402,113.753 79,103.5C 79.9383,100.743 81.4383,98.4101 83.5,96.5 Z"/></g>
<g><path style="opacity:0.999" fill="#aef5f8" d="M 66.5,117.5 C 67.5664,119.701 68.233,122.035 68.5,124.5C 67.6564,128.874 66.6564,133.207 65.5,137.5C 64.5,137.5 63.5,137.5 62.5,137.5C 61.3995,136.395 60.7329,135.062 60.5,133.5C 59.8739,126.305 61.0406,119.305 64,112.5C 64.7568,114.315 65.5902,115.981 66.5,117.5 Z"/></g>
<g><path style="opacity:0.314" fill="#6ad4db" d="M 153.5,96.5 C 153.5,98.5 153.5,100.5 153.5,102.5C 155.527,102.662 157.527,102.495 159.5,102C 160.085,100.698 160.751,99.531 161.5,98.5C 160.706,105.97 159.206,113.303 157,120.5C 152.946,123.691 150.113,122.858 148.5,118C 149.997,110.664 151.663,103.497 153.5,96.5 Z"/></g>
<g><path style="opacity:0.082" fill="#54c0c8" d="M 108.5,110.5 C 110.679,115.094 114.346,117.427 119.5,117.5C 115.395,126.391 108.395,130.391 98.5,129.5C 98.1486,124.988 98.8152,120.655 100.5,116.5C 104.062,115.594 106.728,113.594 108.5,110.5 Z"/></g>
<g><path style="opacity:0.366" fill="#67d3da" d="M 130.5,112.5 C 130.238,113.978 130.571,115.311 131.5,116.5C 134.167,117.5 136.833,118.5 139.5,119.5C 140.057,117.668 141.057,116.335 142.5,115.5C 141.33,122.021 138.996,128.021 135.5,133.5C 131.046,133.047 128.046,130.713 126.5,126.5C 127.544,121.645 128.877,116.978 130.5,112.5 Z"/></g>
<g><path style="opacity:0.972" fill="#a5f1f5" d="M 68.5,124.5 C 70.2503,125.659 71.2503,127.326 71.5,129.5C 72.4814,131.489 73.4814,133.489 74.5,135.5C 73.8918,138.326 72.8918,140.992 71.5,143.5C 69.9246,142.544 68.258,141.877 66.5,141.5C 64.8333,140.5 63.5,139.167 62.5,137.5C 63.5,137.5 64.5,137.5 65.5,137.5C 66.6564,133.207 67.6564,128.874 68.5,124.5 Z"/></g>
<g><path style="opacity:0.824" fill="#95edf2" d="M 71.5,129.5 C 74.8761,132.878 78.5428,135.878 82.5,138.5C 83.9071,140.614 85.9071,142.114 88.5,143C 87.0708,145.69 86.0708,148.523 85.5,151.5C 84.1667,151.5 82.8333,151.5 81.5,151.5C 75.6312,149.404 70.6312,146.071 66.5,141.5C 68.258,141.877 69.9246,142.544 71.5,143.5C 72.8918,140.992 73.8918,138.326 74.5,135.5C 73.4814,133.489 72.4814,131.489 71.5,129.5 Z"/></g>
<g><path style="opacity:0.071" fill="#51bec6" d="M 126.5,126.5 C 128.046,130.713 131.046,133.047 135.5,133.5C 132.596,139.407 128.263,144.074 122.5,147.5C 120.456,144.377 118.789,141.044 117.5,137.5C 120.932,134.08 123.932,130.413 126.5,126.5 Z"/></g>
<g><path style="opacity:0.092" fill="#55c1c9" d="M 94.5,154.5 C 98.4346,151.37 99.4346,147.37 97.5,142.5C 102.951,142.841 108.118,141.841 113,139.5C 119.106,146.936 117.606,151.77 108.5,154C 103.698,155.366 99.0317,155.533 94.5,154.5 Z"/></g>
<g><path style="opacity:0.873" fill="#95ecf0" d="M 140.5,157.5 C 135.962,156.989 134.296,154.656 135.5,150.5C 137.835,146.824 140.835,143.824 144.5,141.5C 149.787,143.737 150.62,147.07 147,151.5C 144.963,153.706 142.797,155.706 140.5,157.5 Z"/></g>
<g><path style="opacity:0.51" fill="#76dde4" d="M 82.5,138.5 C 87.184,140.921 92.184,142.255 97.5,142.5C 99.4346,147.37 98.4346,151.37 94.5,154.5C 89.7387,154.876 85.4054,153.876 81.5,151.5C 82.8333,151.5 84.1667,151.5 85.5,151.5C 86.0708,148.523 87.0708,145.69 88.5,143C 85.9071,142.114 83.9071,140.614 82.5,138.5 Z"/></g>
<g><path style="opacity:0.971" fill="#9ff0f4" d="M 73.5,162.5 C 73.7118,164.384 74.7118,165.717 76.5,166.5C 76.3223,169.804 74.6557,171.471 71.5,171.5C 63.5096,169.012 57.1763,164.346 52.5,157.5C 53.1322,155.035 54.6322,153.369 57,152.5C 62.3829,156.054 67.8829,159.388 73.5,162.5 Z"/></g>
<g><path style="opacity:0.111" fill="#59c5cd" d="M 135.5,150.5 C 134.296,154.656 135.962,156.989 140.5,157.5C 133.462,165.358 124.795,170.692 114.5,173.5C 111.605,171.192 110.938,168.359 112.5,165C 121.174,161.668 128.841,156.835 135.5,150.5 Z"/></g>
<g><path style="opacity:0.44" fill="#6dd6de" d="M 73.5,162.5 C 77.5741,164.603 81.9074,165.936 86.5,166.5C 88.1132,169.854 87.7798,172.854 85.5,175.5C 80.3784,175.39 75.7118,174.056 71.5,171.5C 74.6557,171.471 76.3223,169.804 76.5,166.5C 74.7118,165.717 73.7118,164.384 73.5,162.5 Z"/></g>
<g><path style="opacity:0.053" fill="#57c2ca" d="M 86.5,166.5 C 92.7889,167.372 99.1222,167.705 105.5,167.5C 106.092,170.127 106.425,172.794 106.5,175.5C 99.3507,176.694 92.3507,176.694 85.5,175.5C 87.7798,172.854 88.1132,169.854 86.5,166.5 Z"/></g>
</svg>
