<?xml version="1.0" encoding="UTF-8"?>
<!DOCTYPE svg PUBLIC "-//W3C//DTD SVG 1.1//EN" "http://www.w3.org/Graphics/SVG/1.1/DTD/svg11.dtd">
<svg xmlns="http://www.w3.org/2000/svg" version="1.1" width="188px" height="188px" style="shape-rendering:geometricPrecision; text-rendering:geometricPrecision; image-rendering:optimizeQuality; fill-rule:evenodd; clip-rule:evenodd" xmlns:xlink="http://www.w3.org/1999/xlink">
<g><path style="opacity:0.053" fill="#55c2c9" d="M 142.5,26.5 C 142.5,23.8333 142.5,21.1667 142.5,18.5C 141.167,18.5 139.833,18.5 138.5,18.5C 147.521,12.854 156.355,13.1874 165,19.5C 165.667,20.5 165.667,21.5 165,22.5C 163.323,23.5159 161.657,24.5159 160,25.5C 153.985,22.8089 148.152,23.1423 142.5,26.5 Z"/></g>
<g><path style="opacity:0.752" fill="#8ae7ed" d="M 138.5,18.5 C 139.833,18.5 141.167,18.5 142.5,18.5C 142.5,21.1667 142.5,23.8333 142.5,26.5C 137.735,28.3815 133.068,30.5482 128.5,33C 123.504,33.6643 121.67,31.4977 123,26.5C 127.828,23.1693 132.995,20.5027 138.5,18.5 Z"/></g>
<g><path style="opacity:0.109" fill="#4ebac2" d="M 169.5,41.5 C 166.833,41.5 164.167,41.5 161.5,41.5C 161.737,42.791 161.404,43.791 160.5,44.5C 160.976,38.9358 161.643,33.4358 162.5,28C 164.686,26.691 166.853,26.5243 169,27.5C 170.668,32.2597 170.835,36.9264 169.5,41.5 Z"/></g>
<g><path style="opacity:0.105" fill="#51bdc5" d="M 108.5,32.5 C 115.617,31.7468 117.284,34.4135 113.5,40.5C 105.833,44.6667 98.1667,48.8333 90.5,53C 87.5254,53.7127 85.0254,52.8793 83,50.5C 82.4926,49.0039 82.9926,47.8373 84.5,47C 92.671,42.3034 100.671,37.4701 108.5,32.5 Z"/></g>
<g><path style="opacity:0.964" fill="#a3f1f5" d="M 122.5,59.5 C 121.022,59.762 119.689,59.4287 118.5,58.5C 116.226,55.6962 115.56,52.6962 116.5,49.5C 124.104,44.705 132.438,42.205 141.5,42C 145.487,45.6203 145.487,49.287 141.5,53C 135.146,55.1808 128.812,57.3474 122.5,59.5 Z"/></g>
<g><path style="opacity:0.57" fill="#84e5eb" d="M 116.5,49.5 C 115.56,52.6962 116.226,55.6962 118.5,58.5C 119.689,59.4287 121.022,59.762 122.5,59.5C 119.485,61.6744 116.151,63.3411 112.5,64.5C 111.178,64.67 110.011,64.3366 109,63.5C 107.214,60.9201 105.714,58.2535 104.5,55.5C 108.182,52.9922 112.182,50.9922 116.5,49.5 Z"/></g>
<g><path style="opacity:0.574" fill="#71d9e1" d="M 169.5,41.5 C 169.363,50.4048 168.363,59.0714 166.5,67.5C 166.5,64.1667 166.5,60.8333 166.5,57.5C 164.5,57.5 162.5,57.5 160.5,57.5C 160.405,59.7857 159.738,61.7857 158.5,63.5C 159.313,57.1851 159.979,50.8518 160.5,44.5C 161.404,43.791 161.737,42.791 161.5,41.5C 164.167,41.5 166.833,41.5 169.5,41.5 Z"/></g>
<g><path style="opacity:0.052" fill="#52bec6" d="M 52.5,82.5 C 52.6971,78.1937 50.6971,76.1937 46.5,76.5C 53.3594,67.3117 62.0261,60.3117 72.5,55.5C 74.6789,56.7567 76.6789,58.2567 78.5,60C 69.025,66.647 60.3583,74.147 52.5,82.5 Z"/></g>
<g><path style="opacity:0.324" fill="#65d2da" d="M 104.5,55.5 C 105.714,58.2535 107.214,60.9201 109,63.5C 110.011,64.3366 111.178,64.67 112.5,64.5C 109.028,66.7381 105.362,68.7381 101.5,70.5C 100.5,70.5 99.5,70.5 98.5,70.5C 97.5,67.1667 96.5,63.8333 95.5,60.5C 98.0078,58.0764 101.008,56.4097 104.5,55.5 Z"/></g>
<g><path style="opacity:0.09" fill="#50bdc5" d="M 95.5,60.5 C 96.5,63.8333 97.5,67.1667 98.5,70.5C 99.5,70.5 100.5,70.5 101.5,70.5C 95.4468,74.2798 89.2802,77.9465 83,81.5C 81.3554,78.3785 79.8554,75.2118 78.5,72C 83.2226,66.7785 88.8892,62.9452 95.5,60.5 Z"/></g>
<g><path style="opacity:0.938" fill="#99edf2" d="M 166.5,67.5 C 166.562,72.0758 165.895,76.4091 164.5,80.5C 164.5,77.5 164.5,74.5 164.5,71.5C 160.222,70.803 157.555,72.4697 156.5,76.5C 157.059,72.1474 157.725,67.814 158.5,63.5C 159.738,61.7857 160.405,59.7857 160.5,57.5C 162.5,57.5 164.5,57.5 166.5,57.5C 166.5,60.8333 166.5,64.1667 166.5,67.5 Z"/></g>
<g><path style="opacity:0.937" fill="#a5f3f6" d="M 147.5,82.5 C 146.984,84.7182 145.984,86.7182 144.5,88.5C 141.943,87.5933 139.443,86.5933 137,85.5C 137.161,80.5328 137.328,75.5328 137.5,70.5C 137.345,61.9756 141.011,59.6422 148.5,63.5C 149.782,70.0198 149.449,76.3531 147.5,82.5 Z"/></g>
<g><path style="opacity:0.012" fill="#5dc7ce" d="M 72.5,75.5 C 74.5122,78.3521 76.1789,81.5188 77.5,85C 74.6809,89.4251 71.5142,89.5918 68,85.5C 66.5582,80.7232 68.0582,77.3898 72.5,75.5 Z"/></g>
<g><path style="opacity:0.972" fill="#a0f1f5" d="M 122.5,99.5 C 121.566,100.568 121.232,101.901 121.5,103.5C 117.821,103.724 114.154,104.058 110.5,104.5C 110.5,102.5 110.5,100.5 110.5,98.5C 110.923,96.2188 110.256,94.5521 108.5,93.5C 107.414,93.38 106.747,92.7133 106.5,91.5C 107.594,86.8746 109.261,82.5413 111.5,78.5C 115.659,74.7066 120.159,74.04 125,76.5C 125.384,84.4164 124.55,92.0831 122.5,99.5 Z"/></g>
<g><path style="opacity:0.996" fill="#aef6f9" d="M 122.5,78.5 C 123.762,82.1882 123.762,86.0215 122.5,90C 119.02,92.8091 115.52,95.6424 112,98.5C 111.333,96.1667 111.333,93.8333 112,91.5C 115.713,87.2923 119.213,82.959 122.5,78.5 Z"/></g>
<g><path style="opacity:0.973" fill="#a6f3f7" d="M 164.5,80.5 C 164.599,83.2372 164.265,85.9039 163.5,88.5C 161.443,90.856 158.776,91.856 155.5,91.5C 155.5,89.5 155.5,87.5 155.5,85.5C 155.368,82.4299 155.701,79.4299 156.5,76.5C 157.555,72.4697 160.222,70.803 164.5,71.5C 164.5,74.5 164.5,77.5 164.5,80.5 Z"/></g>
<g><path style="opacity:0.317" fill="#6bd6dd" d="M 111.5,78.5 C 109.261,82.5413 107.594,86.8746 106.5,91.5C 106.747,92.7133 107.414,93.38 108.5,93.5C 106.365,95.0709 104.032,96.4043 101.5,97.5C 100.5,97.5 99.5,97.5 98.5,97.5C 97.5877,93.4291 97.5877,89.4291 98.5,85.5C 102.347,82.4074 106.68,80.0741 111.5,78.5 Z"/></g>
<g><path style="opacity:0.469" fill="#69d4dc" d="M 46.5,76.5 C 50.6971,76.1937 52.6971,78.1937 52.5,82.5C 49.5478,87.4075 46.8811,92.4075 44.5,97.5C 44.8804,94.2084 43.5471,91.8751 40.5,90.5C 39.3331,92.0792 37.9998,93.4125 36.5,94.5C 38.3015,87.556 41.6348,81.556 46.5,76.5 Z"/></g>
<g><path style="opacity:0.686" fill="#87e6ec" d="M 155.5,85.5 C 155.5,87.5 155.5,89.5 155.5,91.5C 158.776,91.856 161.443,90.856 163.5,88.5C 163.212,91.9389 162.546,95.2722 161.5,98.5C 160.596,99.209 160.263,100.209 160.5,101.5C 158.167,101.5 155.833,101.5 153.5,101.5C 153.5,99.8333 153.5,98.1667 153.5,96.5C 153.646,92.6125 154.313,88.9458 155.5,85.5 Z"/></g>
<g><path style="opacity:0.113" fill="#52bec7" d="M 98.5,85.5 C 97.5877,89.4291 97.5877,93.4291 98.5,97.5C 99.5,97.5 100.5,97.5 101.5,97.5C 96.6012,99.9035 93.2678,103.737 91.5,109C 77.9651,114.859 74.7984,111.025 82,97.5C 86.5853,92.1352 92.0853,88.1352 98.5,85.5 Z"/></g>
<g><path style="opacity:0.632" fill="#8ae8ed" d="M 137.5,70.5 C 137.328,75.5328 137.161,80.5328 137,85.5C 139.443,86.5933 141.943,87.5933 144.5,88.5C 145.984,86.7182 146.984,84.7182 147.5,82.5C 147.374,87.586 146.707,92.586 145.5,97.5C 144.735,98.6602 143.735,99.6602 142.5,100.5C 139.904,99.5178 137.238,98.8511 134.5,98.5C 134.5,96.1667 134.5,93.8333 134.5,91.5C 134.982,84.2928 135.982,77.2928 137.5,70.5 Z"/></g>
<g><path style="opacity:0.628" fill="#7ce0e7" d="M 65.5,107.5 C 65.5,105.833 65.5,104.167 65.5,102.5C 65.2089,101.351 64.3756,100.684 63,100.5C 60.1191,101.043 58.1191,102.709 57,105.5C 55.7111,111.088 55.2111,116.755 55.5,122.5C 52.5274,113.09 53.0274,103.757 57,94.5C 62.7505,91.4715 66.2505,93.1382 67.5,99.5C 67.1957,102.386 66.529,105.052 65.5,107.5 Z"/></g>
<g><path style="opacity:0.444" fill="#72dae1" d="M 134.5,91.5 C 134.5,93.8333 134.5,96.1667 134.5,98.5C 137.238,98.8511 139.904,99.5178 142.5,100.5C 143.735,99.6602 144.735,98.6602 145.5,97.5C 144.99,102.391 143.99,107.058 142.5,111.5C 141.937,113.32 140.771,114.653 139,115.5C 136.567,114.521 134.067,113.855 131.5,113.5C 131.5,111.5 131.5,109.5 131.5,107.5C 131.871,101.924 132.871,96.5911 134.5,91.5 Z"/></g>
<g><path style="opacity:0.748" fill="#8eeaef" d="M 65.5,102.5 C 64.2502,102.577 63.4169,103.244 63,104.5C 60.6579,110.692 58.8246,117.026 57.5,123.5C 57.9971,125.818 58.3305,128.152 58.5,130.5C 56.9802,128.11 55.9802,125.443 55.5,122.5C 55.2111,116.755 55.7111,111.088 57,105.5C 58.1191,102.709 60.1191,101.043 63,100.5C 64.3756,100.684 65.2089,101.351 65.5,102.5 Z"/></g>
<g><path style="opacity:0.748" fill="#86e5eb" d="M 44.5,97.5 C 43.1791,104.095 42.5124,110.761 42.5,117.5C 36.2299,104.871 33.5633,105.871 34.5,120.5C 32.9216,111.779 33.5883,103.113 36.5,94.5C 37.9998,93.4125 39.3331,92.0792 40.5,90.5C 43.5471,91.8751 44.8804,94.2084 44.5,97.5 Z"/></g>
<g><path style="opacity:0.84" fill="#96edf2" d="M 65.5,102.5 C 65.5,104.167 65.5,105.833 65.5,107.5C 65.6159,110.86 65.9492,114.193 66.5,117.5C 65.2101,116.942 64.3768,115.942 64,114.5C 62.702,119.394 61.202,124.227 59.5,129C 60.1476,130.44 60.4809,131.94 60.5,133.5C 59.0937,133.027 58.427,132.027 58.5,130.5C 58.3305,128.152 57.9971,125.818 57.5,123.5C 58.8246,117.026 60.6579,110.692 63,104.5C 63.4169,103.244 64.2502,102.577 65.5,102.5 Z"/></g>
<g><path style="opacity:0.206" fill="#59c6ce" d="M 153.5,96.5 C 153.5,98.1667 153.5,99.8333 153.5,101.5C 155.833,101.5 158.167,101.5 160.5,101.5C 160.263,100.209 160.596,99.209 161.5,98.5C 160.814,106.746 158.814,114.58 155.5,122C 151.872,123.316 149.539,122.149 148.5,118.5C 149.931,110.994 151.598,103.661 153.5,96.5 Z"/></g>
<g><path style="opacity:0.516" fill="#81e3ea" d="M 110.5,98.5 C 110.5,100.5 110.5,102.5 110.5,104.5C 114.154,104.058 117.821,103.724 121.5,103.5C 121.232,101.901 121.566,100.568 122.5,99.5C 122.142,105.289 121.142,110.955 119.5,116.5C 115.684,115.599 112.017,114.099 108.5,112C 109.435,109.619 109.768,107.119 109.5,104.5C 109.205,102.265 109.539,100.265 110.5,98.5 Z"/></g>
<g><path style="opacity:0.882" fill="#9ceff3" d="M 42.5,117.5 C 44.2099,122.281 44.5432,127.115 43.5,132C 40.6529,132.944 38.1529,132.444 36,130.5C 34.9571,127.243 34.4571,123.91 34.5,120.5C 33.5633,105.871 36.2299,104.871 42.5,117.5 Z"/></g>
<g><path style="opacity:0.118" fill="#51bdc5" d="M 105.5,114.5 C 106.46,119.086 108.46,123.086 111.5,126.5C 102.568,132.324 94.0681,131.657 86,124.5C 85.3333,123.5 85.3333,122.5 86,121.5C 88.1667,119.333 90.3333,117.167 92.5,115C 96.8688,115.689 101.202,115.523 105.5,114.5 Z"/></g>
<g><path style="opacity:0.261" fill="#61ced6" d="M 109.5,104.5 C 109.768,107.119 109.435,109.619 108.5,112C 112.017,114.099 115.684,115.599 119.5,116.5C 118.241,121.049 115.574,124.382 111.5,126.5C 108.46,123.086 106.46,119.086 105.5,114.5C 107.438,111.341 108.771,108.008 109.5,104.5 Z"/></g>
<g><path style="opacity:0.938" fill="#a0f0f4" d="M 66.5,117.5 C 67.9554,122.617 70.2888,127.284 73.5,131.5C 72.1529,130.829 70.9862,130.829 70,131.5C 69.0657,134.136 68.2324,136.803 67.5,139.5C 69.4524,142.456 71.7857,145.122 74.5,147.5C 68.1667,144.5 63.5,139.833 60.5,133.5C 60.4809,131.94 60.1476,130.44 59.5,129C 61.202,124.227 62.702,119.394 64,114.5C 64.3768,115.942 65.2101,116.942 66.5,117.5 Z"/></g>
<g><path style="opacity:0.141" fill="#54c2cb" d="M 131.5,107.5 C 131.5,109.5 131.5,111.5 131.5,113.5C 134.067,113.855 136.567,114.521 139,115.5C 140.771,114.653 141.937,113.32 142.5,111.5C 142.103,117.087 140.77,122.42 138.5,127.5C 134.395,127.229 130.728,125.895 127.5,123.5C 128.547,117.98 129.88,112.646 131.5,107.5 Z"/></g>
<g><path style="opacity:0.053" fill="#51bdc4" d="M 127.5,123.5 C 130.728,125.895 134.395,127.229 138.5,127.5C 136.963,133.917 133.463,138.917 128,142.5C 126.151,139.462 124.318,136.462 122.5,133.5C 124.194,130.111 125.861,126.778 127.5,123.5 Z"/></g>
<g><path style="opacity:0.996" fill="#aef6f9" d="M 73.5,131.5 C 75.1667,132.5 76.5,133.833 77.5,135.5C 78.7425,139.484 78.7425,143.484 77.5,147.5C 76.5,147.5 75.5,147.5 74.5,147.5C 71.7857,145.122 69.4524,142.456 67.5,139.5C 68.2324,136.803 69.0657,134.136 70,131.5C 70.9862,130.829 72.1529,130.829 73.5,131.5 Z"/></g>
<g><path style="opacity:0.938" fill="#a3f2f6" d="M 77.5,135.5 C 80.5498,137.692 83.8832,139.358 87.5,140.5C 87.9038,141.756 88.5705,142.923 89.5,144C 88.5212,146.433 87.8545,148.933 87.5,151.5C 85.5,151.5 83.5,151.5 81.5,151.5C 78.6689,150.921 76.3356,149.588 74.5,147.5C 75.5,147.5 76.5,147.5 77.5,147.5C 78.7425,143.484 78.7425,139.484 77.5,135.5 Z"/></g>
<g><path style="opacity:0.117" fill="#50bdc5" d="M 108.5,153.5 C 108.665,150.15 108.498,146.817 108,143.5C 106.989,142.663 105.822,142.33 104.5,142.5C 109.299,141.108 113.966,139.108 118.5,136.5C 121.507,139.96 122.84,143.793 122.5,148C 118.137,150.684 113.47,152.518 108.5,153.5 Z"/></g>
<g><path style="opacity:0.719" fill="#8feaef" d="M 87.5,140.5 C 89.5,141.167 91.5,141.833 93.5,142.5C 94.5676,143.434 95.901,143.768 97.5,143.5C 97.3841,146.86 97.0508,150.193 96.5,153.5C 93.5,153.5 90.5,153.5 87.5,153.5C 85.2143,153.405 83.2143,152.738 81.5,151.5C 83.5,151.5 85.5,151.5 87.5,151.5C 87.8545,148.933 88.5212,146.433 89.5,144C 88.5705,142.923 87.9038,141.756 87.5,140.5 Z"/></g>
<g><path style="opacity:0.479" fill="#71d9e1" d="M 93.5,142.5 C 97.1667,142.5 100.833,142.5 104.5,142.5C 105.822,142.33 106.989,142.663 108,143.5C 108.498,146.817 108.665,150.15 108.5,153.5C 101.5,156.167 94.5,156.167 87.5,153.5C 90.5,153.5 93.5,153.5 96.5,153.5C 97.0508,150.193 97.3841,146.86 97.5,143.5C 95.901,143.768 94.5676,143.434 93.5,142.5 Z"/></g>
<g><path style="opacity:0.327" fill="#72d9e0" d="M 137.5,160.5 C 133.907,159.57 132.241,157.237 132.5,153.5C 136.2,149.134 140.2,145.134 144.5,141.5C 149.787,143.737 150.62,147.07 147,151.5C 143.964,154.704 140.797,157.704 137.5,160.5 Z"/></g>
<g><path style="opacity:0.963" fill="#a1f0f4" d="M 75.5,163.5 C 77.1372,165.923 77.6372,168.59 77,171.5C 75.9887,172.337 74.8221,172.67 73.5,172.5C 64.8595,169.69 57.8595,164.69 52.5,157.5C 53.1322,155.035 54.6322,153.369 57,152.5C 62.7921,156.791 68.9588,160.458 75.5,163.5 Z"/></g>
<g><path style="opacity:0.05" fill="#51bdc5" d="M 132.5,153.5 C 132.241,157.237 133.907,159.57 137.5,160.5C 133.133,166.186 127.466,168.853 120.5,168.5C 119.926,166.941 119.26,165.441 118.5,164C 123.327,160.668 127.993,157.168 132.5,153.5 Z"/></g>
<g><path style="opacity:0.118" fill="#4ebbc4" d="M 96.5,176.5 C 96.4921,173.455 96.1587,170.455 95.5,167.5C 100.723,167.324 105.89,166.657 111,165.5C 117.245,169.797 116.745,172.963 109.5,175C 105.23,176.075 100.897,176.575 96.5,176.5 Z"/></g>
<g><path style="opacity:0.385" fill="#70d9e0" d="M 75.5,163.5 C 81.9195,165.904 88.5861,167.238 95.5,167.5C 96.1587,170.455 96.4921,173.455 96.5,176.5C 88.4002,176.944 80.7335,175.61 73.5,172.5C 74.8221,172.67 75.9887,172.337 77,171.5C 77.6372,168.59 77.1372,165.923 75.5,163.5 Z"/></g>
</svg>
