<?xml version="1.0" encoding="UTF-8"?>
<!DOCTYPE svg PUBLIC "-//W3C//DTD SVG 1.1//EN" "http://www.w3.org/Graphics/SVG/1.1/DTD/svg11.dtd">
<svg xmlns="http://www.w3.org/2000/svg" version="1.1" width="188px" height="188px" style="shape-rendering:geometricPrecision; text-rendering:geometricPrecision; image-rendering:optimizeQuality; fill-rule:evenodd; clip-rule:evenodd" xmlns:xlink="http://www.w3.org/1999/xlink">
<g><path style="opacity:0.084" fill="#4ab6bf" d="M 143.5,25.5 C 144.036,22.3019 143.369,19.6353 141.5,17.5C 146.508,14.5044 151.842,14.0044 157.5,16C 158.572,18.6762 157.905,21.0095 155.5,23C 151.371,23.3265 147.371,24.1598 143.5,25.5 Z"/></g>
<g><path style="opacity:0.268" fill="#5ac8d1" d="M 141.5,17.5 C 143.369,19.6353 144.036,22.3019 143.5,25.5C 140.833,26.8333 138.167,28.1667 135.5,29.5C 135.5,26.8333 135.5,24.1667 135.5,21.5C 134.5,21.5 133.5,21.5 132.5,21.5C 135.088,19.3754 138.088,18.0421 141.5,17.5 Z"/></g>
<g><path style="opacity:0.621" fill="#7ce0e7" d="M 132.5,21.5 C 133.5,21.5 134.5,21.5 135.5,21.5C 135.5,24.1667 135.5,26.8333 135.5,29.5C 132.639,31.0962 129.639,32.4296 126.5,33.5C 122.853,32.5139 121.686,30.1806 123,26.5C 125.826,24.1707 128.992,22.5041 132.5,21.5 Z"/></g>
<g><path style="opacity:0.079" fill="#4dbac3" d="M 169.5,41.5 C 169.5,40.5 169.5,39.5 169.5,38.5C 166.721,38.2786 164.054,38.612 161.5,39.5C 161.817,34.8463 161.15,30.3463 159.5,26C 161.45,20.5756 164.283,19.7423 168,23.5C 170.499,29.4864 170.999,35.4864 169.5,41.5 Z"/></g>
<g><path style="opacity:0.351" fill="#64d0d9" d="M 109.5,42.5 C 105.836,43.0001 102.836,41.8334 100.5,39C 101.056,38.6174 101.389,38.1174 101.5,37.5C 105.015,33.7468 109.349,32.2468 114.5,33C 116.869,38.2516 115.202,41.4182 109.5,42.5 Z"/></g>
<g><path style="opacity:0.097" fill="#4ebcc5" d="M 101.5,37.5 C 101.389,38.1174 101.056,38.6174 100.5,39C 102.836,41.8334 105.836,43.0001 109.5,42.5C 103.999,45.7511 98.3327,48.7511 92.5,51.5C 89.5622,50.378 87.5622,48.378 86.5,45.5C 91.3682,42.5662 96.3682,39.8995 101.5,37.5 Z"/></g>
<g><path style="opacity:0.942" fill="#9deff3" d="M 114.5,63.5 C 112.856,63.7135 111.356,63.3802 110,62.5C 108.546,59.9289 107.38,57.2622 106.5,54.5C 116.427,48.5427 127.094,44.2094 138.5,41.5C 143.857,42.1992 145.69,45.1992 144,50.5C 143.167,51.3333 142.333,52.1667 141.5,53C 132.279,56.0164 123.279,59.5164 114.5,63.5 Z"/></g>
<g><path style="opacity:0.022" fill="#4bb7bf" d="M 86.5,45.5 C 87.5622,48.378 89.5622,50.378 92.5,51.5C 86.7774,55.7834 80.6107,59.45 74,62.5C 71.3349,61.205 70.0016,59.205 70,56.5C 75.2706,52.451 80.7706,48.7843 86.5,45.5 Z"/></g>
<g><path style="opacity:0.731" fill="#86e4ea" d="M 169.5,41.5 C 169.363,50.4048 168.363,59.0714 166.5,67.5C 166.5,64.1667 166.5,60.8333 166.5,57.5C 164.5,57.5 162.5,57.5 160.5,57.5C 160.598,59.5529 159.931,61.2196 158.5,62.5C 159.423,54.7813 160.423,47.1147 161.5,39.5C 164.054,38.612 166.721,38.2786 169.5,38.5C 169.5,39.5 169.5,40.5 169.5,41.5 Z"/></g>
<g><path style="opacity:0.625" fill="#86e6ec" d="M 106.5,54.5 C 107.38,57.2622 108.546,59.9289 110,62.5C 111.356,63.3802 112.856,63.7135 114.5,63.5C 110.818,66.0078 106.818,68.0078 102.5,69.5C 101.325,69.719 100.325,69.3857 99.5,68.5C 96.8699,65.1115 96.5366,61.7782 98.5,58.5C 100.849,56.659 103.515,55.3257 106.5,54.5 Z"/></g>
<g><path style="opacity:0.4" fill="#6bd6dd" d="M 98.5,58.5 C 96.5366,61.7782 96.8699,65.1115 99.5,68.5C 100.325,69.3857 101.325,69.719 102.5,69.5C 100.882,71.316 98.8816,72.6493 96.5,73.5C 95.5,73.5 94.5,73.5 93.5,73.5C 92.5722,70.8704 91.5722,68.2037 90.5,65.5C 90.685,64.4163 91.0183,63.4163 91.5,62.5C 93.6626,60.9172 95.9959,59.5839 98.5,58.5 Z"/></g>
<g><path style="opacity:0.925" fill="#9ff0f4" d="M 166.5,67.5 C 166.267,72.8937 165.601,78.227 164.5,83.5C 163.163,84.3149 162.163,85.4815 161.5,87C 159.866,87.4935 158.199,87.6602 156.5,87.5C 156.5,84.5 156.5,81.5 156.5,78.5C 156.949,73.1374 157.616,67.804 158.5,62.5C 159.931,61.2196 160.598,59.5529 160.5,57.5C 162.5,57.5 164.5,57.5 166.5,57.5C 166.5,60.8333 166.5,64.1667 166.5,67.5 Z"/></g>
<g><path style="opacity:0.71" fill="#91ebf0" d="M 147.5,86.5 C 144.77,90.0528 141.437,90.3861 137.5,87.5C 136.516,84.5719 136.183,81.5719 136.5,78.5C 136.506,73.7847 137.006,69.118 138,64.5C 140.612,61.4241 143.779,60.7575 147.5,62.5C 149.029,64.7073 149.695,67.2073 149.5,70C 148.972,75.5263 148.306,81.0263 147.5,86.5 Z"/></g>
<g><path style="opacity:0.022" fill="#4dbac2" d="M 91.5,62.5 C 91.0183,63.4163 90.685,64.4163 90.5,65.5C 91.5722,68.2037 92.5722,70.8704 93.5,73.5C 94.5,73.5 95.5,73.5 96.5,73.5C 90.2318,77.643 83.8985,81.8096 77.5,86C 74.9362,86.4502 73.4362,85.2836 73,82.5C 72.1635,80.1788 71.8301,77.8454 72,75.5C 78.1272,70.526 84.6272,66.1926 91.5,62.5 Z"/></g>
<g><path style="opacity:0.078" fill="#4ebbc3" d="M 42.5,107.5 C 42.6646,104.482 42.498,101.482 42,98.5C 40.1304,95.1178 37.9637,94.7845 35.5,97.5C 39.1529,83.5085 47.1529,72.8418 59.5,65.5C 61.6264,66.3984 63.6264,67.565 65.5,69C 52.7815,78.9556 45.1148,91.789 42.5,107.5 Z"/></g>
<g><path style="opacity:0.804" fill="#88e6ec" d="M 124.5,85.5 C 124.799,83.396 124.466,81.396 123.5,79.5C 117.024,84.5952 112.691,90.9285 110.5,98.5C 110.785,96.712 110.452,95.0453 109.5,93.5C 107.925,94.4565 106.258,95.1231 104.5,95.5C 104.611,90.2945 105.611,85.2945 107.5,80.5C 112.139,76.6824 117.472,74.849 123.5,75C 125.028,76.6477 125.695,78.6477 125.5,81C 125.492,82.7067 125.158,84.2067 124.5,85.5 Z"/></g>
<g><path style="opacity:0.081" fill="#4cb9c1" d="M 107.5,80.5 C 105.611,85.2945 104.611,90.2945 104.5,95.5C 101.063,98.4273 97.2296,100.761 93,102.5C 89.4036,101.754 86.2369,100.254 83.5,98C 84.0831,95.5007 85.4164,93.5007 87.5,92C 93.732,87.3848 100.399,83.5515 107.5,80.5 Z"/></g>
<g><path style="opacity:0.485" fill="#6ed8df" d="M 136.5,78.5 C 136.183,81.5719 136.516,84.5719 137.5,87.5C 141.437,90.3861 144.77,90.0528 147.5,86.5C 146.607,92.1929 145.607,97.8595 144.5,103.5C 143.542,103.953 142.708,104.619 142,105.5C 139.649,104.286 137.149,103.452 134.5,103C 133.594,101.301 133.261,99.4672 133.5,97.5C 133.981,90.9542 134.981,84.6209 136.5,78.5 Z"/></g>
<g><path style="opacity:0.475" fill="#76dde4" d="M 156.5,78.5 C 156.5,81.5 156.5,84.5 156.5,87.5C 158.199,87.6602 159.866,87.4935 161.5,87C 162.163,85.4815 163.163,84.3149 164.5,83.5C 164.044,86.9055 163.378,90.2389 162.5,93.5C 161.596,94.209 161.263,95.209 161.5,96.5C 159.167,96.5 156.833,96.5 154.5,96.5C 154.5,94.8333 154.5,93.1667 154.5,91.5C 154.624,86.9515 155.291,82.6181 156.5,78.5 Z"/></g>
<g><path style="opacity:0.958" fill="#a4f2f6" d="M 124.5,85.5 C 124.027,94.3328 122.694,103 120.5,111.5C 119.208,113.255 118.208,115.255 117.5,117.5C 114.864,116.029 112.364,114.363 110,112.5C 109.503,110.19 109.337,107.857 109.5,105.5C 109.198,102.941 109.532,100.607 110.5,98.5C 112.691,90.9285 117.024,84.5952 123.5,79.5C 124.466,81.396 124.799,83.396 124.5,85.5 Z"/></g>
<g><path style="opacity:0.406" fill="#63cfd7" d="M 66.5,102.5 C 64.1831,101.058 62.0164,101.392 60,103.5C 56.7692,109.423 55.2692,115.757 55.5,122.5C 52.6394,113.495 52.9727,104.495 56.5,95.5C 60.3189,91.4707 63.8189,91.804 67,96.5C 67.7891,98.7116 67.6225,100.712 66.5,102.5 Z"/></g>
<g><path style="opacity:0.575" fill="#7adfe6" d="M 66.5,102.5 C 65.2749,107.509 65.2749,112.509 66.5,117.5C 65.4415,116.4 64.6082,115.066 64,113.5C 61.2039,120.001 60.0372,126.668 60.5,133.5C 57.8872,130.355 56.2205,126.689 55.5,122.5C 55.2692,115.757 56.7692,109.423 60,103.5C 62.0164,101.392 64.1831,101.058 66.5,102.5 Z"/></g>
<g><path style="opacity:0.024" fill="#4cb7bf" d="M 93.5,113.5 C 88.8565,115.148 85.5232,118.148 83.5,122.5C 79.6813,118.56 78.3479,113.894 79.5,108.5C 83.7828,107.508 88.1161,107.174 92.5,107.5C 92.5172,109.565 92.8505,111.565 93.5,113.5 Z"/></g>
<g><path style="opacity:0.021" fill="#4ebbc3" d="M 154.5,91.5 C 154.5,93.1667 154.5,94.8333 154.5,96.5C 156.833,96.5 159.167,96.5 161.5,96.5C 161.263,95.209 161.596,94.209 162.5,93.5C 161.244,102.281 159.41,110.948 157,119.5C 154.936,120.591 152.769,120.758 150.5,120C 149.892,118.769 149.559,117.436 149.5,116C 150.7,107.604 152.367,99.4378 154.5,91.5 Z"/></g>
<g><path style="opacity:0.083" fill="#4cbac3" d="M 93.5,113.5 C 97.0148,115.622 100.681,115.955 104.5,114.5C 103.653,116.029 102.986,117.696 102.5,119.5C 103.162,122.468 103.495,125.468 103.5,128.5C 104.833,128.5 106.167,128.5 107.5,128.5C 98.1415,132.16 90.1415,130.16 83.5,122.5C 85.5232,118.148 88.8565,115.148 93.5,113.5 Z"/></g>
<g><path style="opacity:0.592" fill="#7ee1e8" d="M 42.5,107.5 C 42.8983,115.537 43.3983,123.537 44,131.5C 41.0844,133.013 38.4177,132.68 36,130.5C 32.9226,119.522 32.7559,108.522 35.5,97.5C 37.9637,94.7845 40.1304,95.1178 42,98.5C 42.498,101.482 42.6646,104.482 42.5,107.5 Z"/></g>
<g><path style="opacity:0.409" fill="#73dbe2" d="M 109.5,105.5 C 109.337,107.857 109.503,110.19 110,112.5C 112.364,114.363 114.864,116.029 117.5,117.5C 118.208,115.255 119.208,113.255 120.5,111.5C 119.758,120.013 115.424,125.68 107.5,128.5C 106.167,128.5 104.833,128.5 103.5,128.5C 103.495,125.468 103.162,122.468 102.5,119.5C 102.986,117.696 103.653,116.029 104.5,114.5C 105.458,114.047 106.292,113.381 107,112.5C 107.698,109.996 108.531,107.663 109.5,105.5 Z"/></g>
<g><path style="opacity:0.083" fill="#4cb9c2" d="M 133.5,97.5 C 133.261,99.4672 133.594,101.301 134.5,103C 137.149,103.452 139.649,104.286 142,105.5C 142.708,104.619 143.542,103.953 144.5,103.5C 143.251,113.164 140.751,122.497 137,131.5C 136.28,133.255 135.113,134.089 133.5,134C 130.275,132.277 127.942,129.777 126.5,126.5C 128.98,116.739 131.314,107.073 133.5,97.5 Z"/></g>
<g><path style="opacity:0.803" fill="#8ee9ee" d="M 66.5,117.5 C 68.5457,123.925 71.879,129.591 76.5,134.5C 74.2843,133.797 72.451,132.464 71,130.5C 67.5299,134.994 67.0299,139.661 69.5,144.5C 65.3717,141.71 62.3717,138.043 60.5,133.5C 60.0372,126.668 61.2039,120.001 64,113.5C 64.6082,115.066 65.4415,116.4 66.5,117.5 Z"/></g>
<g><path style="opacity:0.023" fill="#4ebac3" d="M 111.5,153.5 C 111.5,149.5 111.5,145.5 111.5,141.5C 110.5,141.5 109.5,141.5 108.5,141.5C 113.642,139.38 118.309,136.38 122.5,132.5C 125.761,134.592 128.095,137.426 129.5,141C 125.036,147.285 119.036,151.451 111.5,153.5 Z"/></g>
<g><path style="opacity:0.969" fill="#a3f2f6" d="M 76.5,134.5 C 83.4442,140.148 91.4442,142.815 100.5,142.5C 102.298,145.831 102.964,149.498 102.5,153.5C 99.5448,154.159 96.5448,154.492 93.5,154.5C 84.2864,153.888 76.2864,150.555 69.5,144.5C 67.0299,139.661 67.5299,134.994 71,130.5C 72.451,132.464 74.2843,133.797 76.5,134.5 Z"/></g>
<g><path style="opacity:0.638" fill="#78dee4" d="M 108.5,141.5 C 109.5,141.5 110.5,141.5 111.5,141.5C 111.5,145.5 111.5,149.5 111.5,153.5C 107.218,154.423 102.884,155.089 98.5,155.5C 96.6307,155.493 94.964,155.16 93.5,154.5C 96.5448,154.492 99.5448,154.159 102.5,153.5C 102.964,149.498 102.298,145.831 100.5,142.5C 103.167,142.167 105.833,141.833 108.5,141.5 Z"/></g>
<g><path style="opacity:0.331" fill="#67d3db" d="M 142.5,155.5 C 139.455,154.455 137.455,152.455 136.5,149.5C 138.274,145.964 140.94,143.297 144.5,141.5C 149.787,143.737 150.62,147.07 147,151.5C 145.629,153.041 144.129,154.375 142.5,155.5 Z"/></g>
<g><path style="opacity:0.081" fill="#4bb8c0" d="M 136.5,149.5 C 137.455,152.455 139.455,154.455 142.5,155.5C 139.376,160.123 135.209,163.456 130,165.5C 127.107,163.951 126.107,161.617 127,158.5C 130.036,155.296 133.203,152.296 136.5,149.5 Z"/></g>
<g><path style="opacity:0.963" fill="#9ff0f4" d="M 77.5,164.5 C 78.9807,166.247 80.9807,167.414 83.5,168C 82.5939,169.699 82.2606,171.533 82.5,173.5C 79.4824,173.296 76.4824,172.963 73.5,172.5C 64.8595,169.69 57.8595,164.69 52.5,157.5C 53.9032,153.746 56.5698,152.579 60.5,154C 65.5577,158.527 71.2243,162.027 77.5,164.5 Z"/></g>
<g><path style="opacity:0.084" fill="#4fbcc5" d="M 97.5,176.5 C 99.7514,173.687 99.7514,170.687 97.5,167.5C 104.895,166.86 112.062,165.193 119,162.5C 121.2,163.867 122.7,165.867 123.5,168.5C 123.023,169.478 122.357,170.311 121.5,171C 113.916,174.653 105.916,176.486 97.5,176.5 Z"/></g>
<g><path style="opacity:0.589" fill="#84e4ea" d="M 77.5,164.5 C 84.0235,166.365 90.6901,167.365 97.5,167.5C 99.7514,170.687 99.7514,173.687 97.5,176.5C 89.0553,177.074 81.0553,175.741 73.5,172.5C 76.4824,172.963 79.4824,173.296 82.5,173.5C 82.2606,171.533 82.5939,169.699 83.5,168C 80.9807,167.414 78.9807,166.247 77.5,164.5 Z"/></g>
</svg>
