<?xml version="1.0" encoding="UTF-8"?>
<!DOCTYPE svg PUBLIC "-//W3C//DTD SVG 1.1//EN" "http://www.w3.org/Graphics/SVG/1.1/DTD/svg11.dtd">
<svg xmlns="http://www.w3.org/2000/svg" version="1.1" width="188px" height="188px" style="shape-rendering:geometricPrecision; text-rendering:geometricPrecision; image-rendering:optimizeQuality; fill-rule:evenodd; clip-rule:evenodd" xmlns:xlink="http://www.w3.org/1999/xlink">
<g><path style="opacity:0.065" fill="#50bcc5" d="M 144.5,15.5 C 145.833,15.5 147.167,15.5 148.5,15.5C 148.318,17.5914 148.652,19.5914 149.5,21.5C 142.335,26.251 134.669,30.251 126.5,33.5C 122.853,32.5139 121.686,30.1806 123,26.5C 129.9,22.1343 137.066,18.4677 144.5,15.5 Z"/></g>
<g><path style="opacity:0.066" fill="#4cb8c1" d="M 169.5,27.5 C 166.896,26.4696 164.229,26.4696 161.5,27.5C 161.5,28.5 161.5,29.5 161.5,30.5C 159.4,27.2232 157.067,24.0565 154.5,21C 155.515,14.6702 158.515,13.6702 163.5,18C 166.647,20.4638 168.647,23.6305 169.5,27.5 Z"/></g>
<g><path style="opacity:0.581" fill="#80e3e9" d="M 109.5,42.5 C 107.167,41.8333 104.833,41.1667 102.5,40.5C 102.433,39.0413 102.766,37.7079 103.5,36.5C 106.374,33.0727 110.041,31.9061 114.5,33C 116.869,38.2516 115.202,41.4182 109.5,42.5 Z"/></g>
<g><path style="opacity:0.552" fill="#73dbe2" d="M 169.5,27.5 C 170.704,35.6673 170.371,43.6673 168.5,51.5C 168.5,47.8333 168.5,44.1667 168.5,40.5C 166.473,40.3379 164.473,40.5045 162.5,41C 161.891,42.9483 161.224,44.7816 160.5,46.5C 161.098,41.187 161.431,35.8537 161.5,30.5C 161.5,29.5 161.5,28.5 161.5,27.5C 164.229,26.4696 166.896,26.4696 169.5,27.5 Z"/></g>
<g><path style="opacity:0.403" fill="#6bd7de" d="M 103.5,36.5 C 102.766,37.7079 102.433,39.0413 102.5,40.5C 104.833,41.1667 107.167,41.8333 109.5,42.5C 106.485,44.6744 103.151,46.3411 99.5,47.5C 96.0588,49.2845 93.3921,48.4512 91.5,45C 91.7432,44.0979 92.0766,43.2646 92.5,42.5C 95.678,39.7417 99.3447,37.7417 103.5,36.5 Z"/></g>
<g><path style="opacity:0.449" fill="#69d5dd" d="M 135.5,54.5 C 137.667,51.5136 137.333,48.5136 134.5,45.5C 132.604,44.5344 130.604,44.2011 128.5,44.5C 131.606,43.1346 134.94,42.1346 138.5,41.5C 143.857,42.1992 145.69,45.1992 144,50.5C 141.772,53.0779 138.939,54.4113 135.5,54.5 Z"/></g>
<g><path style="opacity:0.757" fill="#90eaef" d="M 168.5,51.5 C 168.81,54.7131 168.477,57.7131 167.5,60.5C 167.5,56.8333 167.5,53.1667 167.5,49.5C 165.396,49.2011 163.396,49.5344 161.5,50.5C 160.972,52.3361 160.306,54.0028 159.5,55.5C 159.704,52.4824 160.037,49.4824 160.5,46.5C 161.224,44.7816 161.891,42.9483 162.5,41C 164.473,40.5045 166.473,40.3379 168.5,40.5C 168.5,44.1667 168.5,47.8333 168.5,51.5 Z"/></g>
<g><path style="opacity:0.702" fill="#84e5ea" d="M 128.5,44.5 C 130.604,44.2011 132.604,44.5344 134.5,45.5C 137.333,48.5136 137.667,51.5136 135.5,54.5C 132.682,56.0722 129.682,57.4055 126.5,58.5C 126.821,56.9519 127.821,56.2852 129.5,56.5C 129.477,51.7566 127.477,48.4232 123.5,46.5C 124.93,45.4625 126.597,44.7959 128.5,44.5 Z"/></g>
<g><path style="opacity:0.2" fill="#54c3cc" d="M 92.5,42.5 C 92.0766,43.2646 91.7432,44.0979 91.5,45C 93.3921,48.4512 96.0588,49.2845 99.5,47.5C 95.7049,50.9045 91.3715,53.5712 86.5,55.5C 81.2621,56.2667 79.2621,54.2667 80.5,49.5C 84.1638,46.6654 88.1638,44.332 92.5,42.5 Z"/></g>
<g><path style="opacity:0.943" fill="#9df0f4" d="M 123.5,46.5 C 127.477,48.4232 129.477,51.7566 129.5,56.5C 127.821,56.2852 126.821,56.9519 126.5,58.5C 124.046,59.2271 121.713,60.2271 119.5,61.5C 119.382,58.3117 118.549,55.3117 117,52.5C 115.644,51.6198 114.144,51.2865 112.5,51.5C 115.74,49.049 119.407,47.3824 123.5,46.5 Z"/></g>
<g><path style="opacity:0.996" fill="#aaf4f7" d="M 112.5,51.5 C 114.144,51.2865 115.644,51.6198 117,52.5C 118.549,55.3117 119.382,58.3117 119.5,61.5C 117.287,62.7729 114.954,63.7729 112.5,64.5C 110.856,64.7135 109.356,64.3802 108,63.5C 106.546,60.9289 105.38,58.2622 104.5,55.5C 106.849,53.659 109.515,52.3257 112.5,51.5 Z"/></g>
<g><path style="opacity:0.065" fill="#4bb6bf" d="M 80.5,49.5 C 79.2621,54.2667 81.2621,56.2667 86.5,55.5C 78.4009,61.0585 70.0676,66.3918 61.5,71.5C 60.2997,70.4688 58.9663,69.6355 57.5,69C 56.5494,68.2825 56.3828,67.4491 57,66.5C 64.0966,59.7124 71.9299,54.0458 80.5,49.5 Z"/></g>
<g><path style="opacity:0.877" fill="#9beff3" d="M 104.5,55.5 C 105.38,58.2622 106.546,60.9289 108,63.5C 109.356,64.3802 110.856,64.7135 112.5,64.5C 110.151,66.341 107.485,67.6743 104.5,68.5C 99.1309,67.8406 97.1309,64.5072 98.5,58.5C 100.181,56.9925 102.181,55.9925 104.5,55.5 Z"/></g>
<g><path style="opacity:0.955" fill="#aaf5f8" d="M 167.5,60.5 C 167.5,61.8333 167.5,63.1667 167.5,64.5C 165.896,65.287 165.229,66.6203 165.5,68.5C 163.5,68.5 161.5,68.5 159.5,68.5C 159.5,65.1667 159.5,61.8333 159.5,58.5C 159.5,57.5 159.5,56.5 159.5,55.5C 160.306,54.0028 160.972,52.3361 161.5,50.5C 163.396,49.5344 165.396,49.2011 167.5,49.5C 167.5,53.1667 167.5,56.8333 167.5,60.5 Z"/></g>
<g><path style="opacity:0.581" fill="#84e5eb" d="M 98.5,58.5 C 97.1309,64.5072 99.1309,67.8406 104.5,68.5C 102.206,70.653 99.5396,72.3197 96.5,73.5C 95.448,73.6495 94.448,73.4828 93.5,73C 92.4582,71.082 91.2915,69.2487 90,67.5C 89.3872,65.5048 89.8872,63.8381 91.5,62.5C 93.6626,60.9172 95.9959,59.5839 98.5,58.5 Z"/></g>
<g><path style="opacity:0.693" fill="#89e8ed" d="M 148.5,64.5 C 148.768,67.1194 148.435,69.6194 147.5,72C 144.498,71.8416 141.498,71.3416 138.5,70.5C 138.5,68.5 138.5,66.5 138.5,64.5C 140.814,61.3858 143.814,60.7191 147.5,62.5C 148.298,62.9569 148.631,63.6236 148.5,64.5 Z"/></g>
<g><path style="opacity:0.481" fill="#6fd9e0" d="M 91.5,62.5 C 89.8872,63.8381 89.3872,65.5048 90,67.5C 91.2915,69.2487 92.4582,71.082 93.5,73C 94.448,73.4828 95.448,73.6495 96.5,73.5C 95.0351,74.7368 93.3684,75.7368 91.5,76.5C 89.8561,76.2865 88.3561,76.6198 87,77.5C 84.5552,74.0437 83.7218,70.3771 84.5,66.5C 86.6979,64.9019 89.0313,63.5686 91.5,62.5 Z"/></g>
<g><path style="opacity:0.273" fill="#5ac9d2" d="M 84.5,66.5 C 83.7218,70.3771 84.5552,74.0437 87,77.5C 88.3561,76.6198 89.8561,76.2865 91.5,76.5C 89.7952,78.1921 87.7952,79.5254 85.5,80.5C 80.7799,79.1228 78.4466,75.7894 78.5,70.5C 80.5,69.1667 82.5,67.8333 84.5,66.5 Z"/></g>
<g><path style="opacity:0.695" fill="#91eaef" d="M 159.5,58.5 C 159.5,61.8333 159.5,65.1667 159.5,68.5C 161.5,68.5 163.5,68.5 165.5,68.5C 165.229,66.6203 165.896,65.287 167.5,64.5C 166.725,68.814 166.059,73.1474 165.5,77.5C 163.084,78.9682 160.417,79.6349 157.5,79.5C 157.5,77.1667 157.5,74.8333 157.5,72.5C 157.69,67.6304 158.356,62.9637 159.5,58.5 Z"/></g>
<g><path style="opacity:0.068" fill="#49b5be" d="M 78.5,70.5 C 78.4466,75.7894 80.7799,79.1228 85.5,80.5C 81.7658,83.7134 77.5991,86.3801 73,88.5C 67.3793,86.53 66.046,82.8633 69,77.5C 72.0444,74.9491 75.2111,72.6158 78.5,70.5 Z"/></g>
<g><path style="opacity:0.577" fill="#74dbe2" d="M 124.5,85.5 C 124.663,83.1432 124.497,80.8098 124,78.5C 118.847,83.8003 114.347,89.467 110.5,95.5C 110.631,94.6236 110.298,93.9569 109.5,93.5C 108.583,94.1272 107.583,94.4606 106.5,94.5C 105.387,93.0536 105.22,91.3869 106,89.5C 107.981,85.9155 109.814,82.2488 111.5,78.5C 114.954,75.628 118.954,74.4613 123.5,75C 125.028,76.6477 125.695,78.6477 125.5,81C 125.492,82.7067 125.158,84.2067 124.5,85.5 Z"/></g>
<g><path style="opacity:0.428" fill="#72dbe2" d="M 138.5,64.5 C 138.5,66.5 138.5,68.5 138.5,70.5C 141.498,71.3416 144.498,71.8416 147.5,72C 148.435,69.6194 148.768,67.1194 148.5,64.5C 149.691,70.7869 149.358,77.1203 147.5,83.5C 144.399,83.3083 141.399,82.6416 138.5,81.5C 137.511,77.8927 137.177,74.226 137.5,70.5C 137.205,68.2646 137.539,66.2646 138.5,64.5 Z"/></g>
<g><path style="opacity:0.073" fill="#4cb8c0" d="M 111.5,78.5 C 109.814,82.2488 107.981,85.9155 106,89.5C 105.22,91.3869 105.387,93.0536 106.5,94.5C 103.745,97.1441 100.578,98.1441 97,97.5C 95.8333,95.1667 94.6667,92.8333 93.5,90.5C 98.4507,85.0178 104.451,81.0178 111.5,78.5 Z"/></g>
<g><path style="opacity:0.066" fill="#4bb7c0" d="M 42.5,107.5 C 40.6024,105.617 38.7691,103.617 37,101.5C 36.2917,102.381 35.4584,103.047 34.5,103.5C 36.0143,92.9726 40.3476,83.8059 47.5,76C 50.4935,75.6353 52.4935,76.9687 53.5,80C 48.0342,88.4339 44.3675,97.6005 42.5,107.5 Z"/></g>
<g><path style="opacity:0.286" fill="#5fcdd6" d="M 137.5,70.5 C 137.177,74.226 137.511,77.8927 138.5,81.5C 141.399,82.6416 144.399,83.3083 147.5,83.5C 147.5,84.5 147.5,85.5 147.5,86.5C 145.926,88.1016 145.259,90.1016 145.5,92.5C 142.399,92.3083 139.399,91.6416 136.5,90.5C 135.548,88.9547 135.215,87.288 135.5,85.5C 135.608,80.2895 136.275,75.2895 137.5,70.5 Z"/></g>
<g><path style="opacity:0.4" fill="#6dd7df" d="M 157.5,72.5 C 157.5,74.8333 157.5,77.1667 157.5,79.5C 160.417,79.6349 163.084,78.9682 165.5,77.5C 164.94,81.1932 164.273,84.8598 163.5,88.5C 161.653,91.1715 158.986,92.1715 155.5,91.5C 155.5,89.5 155.5,87.5 155.5,85.5C 155.438,80.9242 156.105,76.5909 157.5,72.5 Z"/></g>
<g><path style="opacity:0.827" fill="#91ebf0" d="M 124.5,85.5 C 124.638,90.4141 123.972,95.0808 122.5,99.5C 122.664,96.8127 122.497,94.146 122,91.5C 116.946,94.4015 112.779,98.0682 109.5,102.5C 109.674,100.139 110.007,97.8056 110.5,95.5C 114.347,89.467 118.847,83.8003 124,78.5C 124.497,80.8098 124.663,83.1432 124.5,85.5 Z"/></g>
<g><path style="opacity:0.178" fill="#50bfc8" d="M 135.5,85.5 C 135.215,87.288 135.548,88.9547 136.5,90.5C 139.399,91.6416 142.399,92.3083 145.5,92.5C 145.259,90.1016 145.926,88.1016 147.5,86.5C 146.94,90.1932 146.273,93.8598 145.5,97.5C 141.637,99.9176 137.637,99.9176 133.5,97.5C 133.539,93.2671 134.205,89.2671 135.5,85.5 Z"/></g>
<g><path style="opacity:0.097" fill="#46b3bd" d="M 66.5,102.5 C 66.5,101.833 66.1667,101.5 65.5,101.5C 59.3239,98.7192 55.8239,100.719 55,107.5C 54.5017,110.817 54.335,114.15 54.5,117.5C 52.9683,110.1 53.6349,102.767 56.5,95.5C 60.8138,92.3564 64.3138,93.023 67,97.5C 67.7796,99.3869 67.6129,101.054 66.5,102.5 Z"/></g>
<g><path style="opacity:0.155" fill="#4ebbc4" d="M 155.5,85.5 C 155.5,87.5 155.5,89.5 155.5,91.5C 158.986,92.1715 161.653,91.1715 163.5,88.5C 162.451,95.9136 160.951,103.247 159,110.5C 158.261,111.574 157.261,112.241 156,112.5C 154.765,111.385 153.598,111.385 152.5,112.5C 151.585,111.672 150.919,110.672 150.5,109.5C 151.967,101.337 153.633,93.3366 155.5,85.5 Z"/></g>
<g><path style="opacity:0.225" fill="#52c2cb" d="M 65.5,101.5 C 64.1779,101.33 63.0113,101.663 62,102.5C 58.8149,109.879 56.9815,117.546 56.5,125.5C 54.9605,123.162 54.2938,120.495 54.5,117.5C 54.335,114.15 54.5017,110.817 55,107.5C 55.8239,100.719 59.3239,98.7192 65.5,101.5 Z"/></g>
<g><path style="opacity:0.069" fill="#46b3bc" d="M 133.5,97.5 C 137.637,99.9176 141.637,99.9176 145.5,97.5C 144.822,102.571 143.822,107.571 142.5,112.5C 138.079,112.699 134.413,111.365 131.5,108.5C 131.43,104.575 132.097,100.909 133.5,97.5 Z"/></g>
<g><path style="opacity:0.996" fill="#aaf5f8" d="M 122.5,99.5 C 122.57,103.425 121.903,107.091 120.5,110.5C 119.661,111.641 118.994,112.974 118.5,114.5C 117.635,115.583 116.635,115.749 115.5,115C 113.667,113.833 111.833,112.667 110,111.5C 109.505,109.527 109.338,107.527 109.5,105.5C 109.5,104.5 109.5,103.5 109.5,102.5C 112.779,98.0682 116.946,94.4015 122,91.5C 122.497,94.146 122.664,96.8127 122.5,99.5 Z"/></g>
<g><path style="opacity:0.344" fill="#5fced6" d="M 65.5,101.5 C 66.1667,101.5 66.5,101.833 66.5,102.5C 65.0711,108.595 65.4044,114.595 67.5,120.5C 66.5416,120.047 65.7083,119.381 65,118.5C 63.881,123.149 62.381,127.649 60.5,132C 61.3366,133.011 61.67,134.178 61.5,135.5C 58.7989,132.765 57.1322,129.431 56.5,125.5C 56.9815,117.546 58.8149,109.879 62,102.5C 63.0113,101.663 64.1779,101.33 65.5,101.5 Z"/></g>
<g><path style="opacity:0.101" fill="#4ab6be" d="M 92.5,110.5 C 88.0477,111.428 83.7144,112.762 79.5,114.5C 77.0477,106.853 79.0477,100.52 85.5,95.5C 88.8103,97.4821 91.8103,99.8154 94.5,102.5C 93.2147,105.021 92.5481,107.687 92.5,110.5 Z"/></g>
<g><path style="opacity:0.341" fill="#5bcad3" d="M 42.5,107.5 C 42.4126,112.537 42.746,117.537 43.5,122.5C 41.6255,118.949 38.9588,115.949 35.5,113.5C 34.5258,115.743 34.1924,118.076 34.5,120.5C 33.2383,114.963 33.2383,109.297 34.5,103.5C 35.4584,103.047 36.2917,102.381 37,101.5C 38.7691,103.617 40.6024,105.617 42.5,107.5 Z"/></g>
<g><path style="opacity:0.013" fill="#55bfc6" d="M 131.5,108.5 C 134.413,111.365 138.079,112.699 142.5,112.5C 142.002,115.829 141.002,118.995 139.5,122C 136.43,121.985 133.43,121.318 130.5,120C 129.366,115.993 129.699,112.159 131.5,108.5 Z"/></g>
<g><path style="opacity:0.173" fill="#4ebdc7" d="M 92.5,110.5 C 93.1355,112.795 94.4689,114.461 96.5,115.5C 93.7504,115.618 91.7504,116.951 90.5,119.5C 89.7515,121.332 88.7515,122.999 87.5,124.5C 87.8627,125.183 88.1961,125.85 88.5,126.5C 83.249,124.242 80.249,120.242 79.5,114.5C 83.7144,112.762 88.0477,111.428 92.5,110.5 Z"/></g>
<g><path style="opacity:0.753" fill="#93ecf1" d="M 109.5,105.5 C 109.338,107.527 109.505,109.527 110,111.5C 111.833,112.667 113.667,113.833 115.5,115C 116.635,115.749 117.635,115.583 118.5,114.5C 118.994,112.974 119.661,111.641 120.5,110.5C 120.364,118.605 116.697,124.271 109.5,127.5C 106.612,127.78 105.112,126.447 105,123.5C 104.264,120.408 104.431,117.408 105.5,114.5C 107.233,111.617 108.566,108.617 109.5,105.5 Z"/></g>
<g><path style="opacity:0.496" fill="#78dee5" d="M 105.5,114.5 C 104.431,117.408 104.264,120.408 105,123.5C 105.112,126.447 106.612,127.78 109.5,127.5C 108.22,128.931 106.553,129.598 104.5,129.5C 102.167,129.5 99.8333,129.5 97.5,129.5C 97.9272,125.176 98.2605,120.842 98.5,116.5C 99.791,116.737 100.791,116.404 101.5,115.5C 102.833,115.167 104.167,114.833 105.5,114.5 Z"/></g>
<g><path style="opacity:0.009" fill="#57c1c7" d="M 150.5,117.5 C 153.073,117.148 155.406,117.648 157.5,119C 155.665,122.918 153.165,123.418 150,120.5C 149.53,119.423 149.697,118.423 150.5,117.5 Z"/></g>
<g><path style="opacity:0.341" fill="#60cfd7" d="M 96.5,115.5 C 98.1667,115.5 99.8333,115.5 101.5,115.5C 100.791,116.404 99.791,116.737 98.5,116.5C 98.2605,120.842 97.9272,125.176 97.5,129.5C 99.8333,129.5 102.167,129.5 104.5,129.5C 101.36,130.641 98.0267,130.808 94.5,130C 91.9746,129.576 89.9746,128.41 88.5,126.5C 88.1961,125.85 87.8627,125.183 87.5,124.5C 88.7515,122.999 89.7515,121.332 90.5,119.5C 91.7504,116.951 93.7504,115.618 96.5,115.5 Z"/></g>
<g><path style="opacity:0.476" fill="#6fd8e0" d="M 43.5,122.5 C 44.4675,125.445 44.6342,128.445 44,131.5C 41.0844,133.013 38.4177,132.68 36,130.5C 34.9571,127.243 34.4571,123.91 34.5,120.5C 34.1924,118.076 34.5258,115.743 35.5,113.5C 38.9588,115.949 41.6255,118.949 43.5,122.5 Z"/></g>
<g><path style="opacity:0.478" fill="#70d9e1" d="M 67.5,120.5 C 68.5733,123.644 69.9066,126.644 71.5,129.5C 70.5416,129.047 69.7083,128.381 69,127.5C 67.8333,131 66.6667,134.5 65.5,138C 66.4138,139.406 67.0805,140.906 67.5,142.5C 64.7805,140.781 62.7805,138.447 61.5,135.5C 61.67,134.178 61.3366,133.011 60.5,132C 62.381,127.649 63.881,123.149 65,118.5C 65.7083,119.381 66.5416,120.047 67.5,120.5 Z"/></g>
<g><path style="opacity:0.576" fill="#7ee2e8" d="M 71.5,129.5 C 73.5,130.833 75.1667,132.5 76.5,134.5C 75.4168,134.461 74.4168,134.127 73.5,133.5C 70.897,137.269 70.2304,141.269 71.5,145.5C 69.5956,145.262 68.2623,144.262 67.5,142.5C 67.0805,140.906 66.4138,139.406 65.5,138C 66.6667,134.5 67.8333,131 69,127.5C 69.7083,128.381 70.5416,129.047 71.5,129.5 Z"/></g>
<g><path style="opacity:0.069" fill="#4bb7c0" d="M 123.5,147.5 C 122.793,143.752 121.793,140.086 120.5,136.5C 119.5,136.5 118.5,136.5 117.5,136.5C 120.971,133.86 123.971,130.694 126.5,127C 134.629,127.611 136.795,131.444 133,138.5C 129.964,141.704 126.797,144.704 123.5,147.5 Z"/></g>
<g><path style="opacity:0.795" fill="#90ebf0" d="M 76.5,134.5 C 81.3518,138.259 86.6852,140.926 92.5,142.5C 89.4752,142.123 86.4752,141.956 83.5,142C 81.2245,144.953 80.5578,148.119 81.5,151.5C 77.4945,150.502 74.1612,148.502 71.5,145.5C 70.2304,141.269 70.897,137.269 73.5,133.5C 74.4168,134.127 75.4168,134.461 76.5,134.5 Z"/></g>
<g><path style="opacity:0.571" fill="#7ce0e7" d="M 111.5,140.5 C 112.5,140.5 113.5,140.5 114.5,140.5C 115.326,144.136 115.992,147.803 116.5,151.5C 112.976,152.965 109.309,153.965 105.5,154.5C 106.261,153.609 107.261,152.942 108.5,152.5C 109.487,149.232 109.82,145.898 109.5,142.5C 107.833,142.5 106.167,142.5 104.5,142.5C 106.599,141.388 108.933,140.721 111.5,140.5 Z"/></g>
<g><path style="opacity:0.937" fill="#a2f2f5" d="M 92.5,142.5 C 92.8333,142.5 93.1667,142.5 93.5,142.5C 93.5,142.833 93.5,143.167 93.5,143.5C 92.1667,143.5 90.8333,143.5 89.5,143.5C 88.361,146.425 87.861,149.425 88,152.5C 91.73,153.46 95.5633,153.793 99.5,153.5C 97.7354,154.461 95.7354,154.795 93.5,154.5C 89.0981,154.692 85.0981,153.692 81.5,151.5C 80.5578,148.119 81.2245,144.953 83.5,142C 86.4752,141.956 89.4752,142.123 92.5,142.5 Z"/></g>
<g><path style="opacity:0.34" fill="#60ced6" d="M 117.5,136.5 C 118.5,136.5 119.5,136.5 120.5,136.5C 121.793,140.086 122.793,143.752 123.5,147.5C 121.33,149.086 118.996,150.42 116.5,151.5C 115.992,147.803 115.326,144.136 114.5,140.5C 113.5,140.5 112.5,140.5 111.5,140.5C 113.463,139.18 115.463,137.846 117.5,136.5 Z"/></g>
<g><path style="opacity:0.996" fill="#abf5f8" d="M 93.5,143.5 C 96.8499,143.335 100.183,143.502 103.5,144C 104.258,147.044 104.258,150.21 103.5,153.5C 102.167,153.5 100.833,153.5 99.5,153.5C 95.5633,153.793 91.73,153.46 88,152.5C 87.861,149.425 88.361,146.425 89.5,143.5C 90.8333,143.5 92.1667,143.5 93.5,143.5 Z"/></g>
<g><path style="opacity:0.838" fill="#91e9ef" d="M 93.5,143.5 C 93.5,143.167 93.5,142.833 93.5,142.5C 97.1667,142.5 100.833,142.5 104.5,142.5C 106.167,142.5 107.833,142.5 109.5,142.5C 109.82,145.898 109.487,149.232 108.5,152.5C 107.261,152.942 106.261,153.609 105.5,154.5C 101.367,155.726 97.367,155.726 93.5,154.5C 95.7354,154.795 97.7354,154.461 99.5,153.5C 100.833,153.5 102.167,153.5 103.5,153.5C 104.258,150.21 104.258,147.044 103.5,144C 100.183,143.502 96.8499,143.335 93.5,143.5 Z"/></g>
<g><path style="opacity:0.068" fill="#4ebbc4" d="M 143.5,141.5 C 150.257,143.706 151.09,147.372 146,152.5C 142.965,155.87 139.632,158.87 136,161.5C 134.308,159.641 132.808,157.641 131.5,155.5C 135.207,150.469 139.207,145.802 143.5,141.5 Z"/></g>
<g><path style="opacity:0.628" fill="#74dbe2" d="M 70.5,161.5 C 66.0536,161.074 63.7203,163.074 63.5,167.5C 58.5796,165.581 54.913,162.248 52.5,157.5C 53.9032,153.746 56.5698,152.579 60.5,154C 63.7342,156.748 67.0676,159.248 70.5,161.5 Z"/></g>
<g><path style="opacity:0.068" fill="#4cb8c1" d="M 111.5,174.5 C 112.929,173.766 113.929,172.599 114.5,171C 114.301,168.552 113.301,166.719 111.5,165.5C 116.53,163.489 121.53,161.155 126.5,158.5C 128.633,160.091 130.299,162.091 131.5,164.5C 125.672,169.414 119.005,172.748 111.5,174.5 Z"/></g>
<g><path style="opacity:0.83" fill="#93ebf0" d="M 70.5,161.5 C 74.8366,163.386 79.1699,165.053 83.5,166.5C 80.4752,166.123 77.4752,165.956 74.5,166C 72.5424,168.003 72.2091,170.169 73.5,172.5C 69.8487,171.341 66.5154,169.674 63.5,167.5C 63.7203,163.074 66.0536,161.074 70.5,161.5 Z"/></g>
<g><path style="opacity:0.954" fill="#a9f4f7" d="M 83.5,166.5 C 84.1667,166.5 84.8333,166.5 85.5,166.5C 88.1715,168.347 89.1715,171.014 88.5,174.5C 85.8333,174.5 83.1667,174.5 80.5,174.5C 77.8478,174.59 75.5145,173.924 73.5,172.5C 72.2091,170.169 72.5424,168.003 74.5,166C 77.4752,165.956 80.4752,166.123 83.5,166.5 Z"/></g>
<g><path style="opacity:0.699" fill="#8feaef" d="M 85.5,166.5 C 89.4659,167.162 93.4659,167.495 97.5,167.5C 100.171,169.347 101.171,172.014 100.5,175.5C 99.209,175.263 98.209,175.596 97.5,176.5C 91.57,176.872 85.9033,176.205 80.5,174.5C 83.1667,174.5 85.8333,174.5 88.5,174.5C 89.1715,171.014 88.1715,168.347 85.5,166.5 Z"/></g>
<g><path style="opacity:0.382" fill="#67d3db" d="M 111.5,165.5 C 113.301,166.719 114.301,168.552 114.5,171C 113.929,172.599 112.929,173.766 111.5,174.5C 106.988,175.981 102.322,176.648 97.5,176.5C 98.209,175.596 99.209,175.263 100.5,175.5C 101.171,172.014 100.171,169.347 97.5,167.5C 102.167,166.833 106.833,166.167 111.5,165.5 Z"/></g>
</svg>
