<?xml version="1.0" encoding="UTF-8"?>
<!DOCTYPE svg PUBLIC "-//W3C//DTD SVG 1.1//EN" "http://www.w3.org/Graphics/SVG/1.1/DTD/svg11.dtd">
<svg xmlns="http://www.w3.org/2000/svg" version="1.1" width="188px" height="188px" style="shape-rendering:geometricPrecision; text-rendering:geometricPrecision; image-rendering:optimizeQuality; fill-rule:evenodd; clip-rule:evenodd" xmlns:xlink="http://www.w3.org/1999/xlink">
<g><path style="opacity:0.081" fill="#4ab7c0" d="M 167.5,22.5 C 165.436,22.687 163.436,23.187 161.5,24C 160.663,25.0113 160.33,26.1779 160.5,27.5C 156.582,23.9372 151.915,22.6039 146.5,23.5C 144.9,17.5989 147.067,14.5989 153,14.5C 159.122,14.9749 163.956,17.6415 167.5,22.5 Z"/></g>
<g><path style="opacity:0.105" fill="#49b6bf" d="M 137.5,18.5 C 138.5,18.5 139.5,18.5 140.5,18.5C 140.664,21.1873 140.497,23.854 140,26.5C 135.856,29.4888 131.356,31.8221 126.5,33.5C 122.853,32.5139 121.686,30.1806 123,26.5C 127.686,23.4103 132.52,20.7436 137.5,18.5 Z"/></g>
<g><path style="opacity:0.834" fill="#90e9ee" d="M 101.5,46.5 C 100.07,46.5792 98.7362,46.2458 97.5,45.5C 97.3309,46.3966 96.9976,47.3966 96.5,48.5C 95.086,47.376 93.586,46.376 92,45.5C 91.5304,44.4232 91.6971,43.4232 92.5,42.5C 97.6049,39.1077 102.938,35.941 108.5,33C 114.667,31.1667 116.833,33.3333 115,39.5C 110.839,42.497 106.339,44.8303 101.5,46.5 Z"/></g>
<g><path style="opacity:0.834" fill="#87e5ea" d="M 167.5,22.5 C 169.673,26.696 170.673,31.196 170.5,36C 170.25,41.6968 169.583,47.1968 168.5,52.5C 168.5,48.5 168.5,44.5 168.5,40.5C 166.473,40.3379 164.473,40.5045 162.5,41C 161.891,42.9483 161.224,44.7816 160.5,46.5C 161.637,40.1484 161.637,33.815 160.5,27.5C 160.33,26.1779 160.663,25.0113 161.5,24C 163.436,23.187 165.436,22.687 167.5,22.5 Z"/></g>
<g><path style="opacity:0.234" fill="#57c5ce" d="M 128.5,57.5 C 128.741,54.2065 127.908,51.2065 126,48.5C 124.644,47.6198 123.144,47.2865 121.5,47.5C 126.682,44.4443 132.349,42.4443 138.5,41.5C 143.79,42.3036 145.623,45.3036 144,50.5C 139.273,53.6918 134.106,56.0251 128.5,57.5 Z"/></g>
<g><path style="opacity:0.517" fill="#75dde3" d="M 92.5,42.5 C 91.6971,43.4232 91.5304,44.4232 92,45.5C 93.586,46.376 95.086,47.376 96.5,48.5C 96.9976,47.3966 97.3309,46.3966 97.5,45.5C 98.7362,46.2458 100.07,46.5792 101.5,46.5C 97.3699,49.4032 93.0366,52.0699 88.5,54.5C 84.2094,55.1803 81.5427,53.5136 80.5,49.5C 84.1638,46.6654 88.1638,44.332 92.5,42.5 Z"/></g>
<g><path style="opacity:0.947" fill="#a6f3f7" d="M 168.5,52.5 C 168.806,55.3854 168.473,58.0521 167.5,60.5C 166.694,61.9972 166.028,63.6639 165.5,65.5C 163.604,66.4656 161.604,66.7989 159.5,66.5C 159.5,63.8333 159.5,61.1667 159.5,58.5C 159.505,54.4659 159.838,50.4659 160.5,46.5C 161.224,44.7816 161.891,42.9483 162.5,41C 164.473,40.5045 166.473,40.3379 168.5,40.5C 168.5,44.5 168.5,48.5 168.5,52.5 Z"/></g>
<g><path style="opacity:0.801" fill="#91ebef" d="M 121.5,47.5 C 123.144,47.2865 124.644,47.6198 126,48.5C 127.908,51.2065 128.741,54.2065 128.5,57.5C 122.713,59.8935 117.046,62.5602 111.5,65.5C 111.553,60.2106 109.22,56.8772 104.5,55.5C 109.746,52.0448 115.413,49.3782 121.5,47.5 Z"/></g>
<g><path style="opacity:0.14" fill="#52c0ca" d="M 80.5,49.5 C 81.5427,53.5136 84.2094,55.1803 88.5,54.5C 82.1892,58.4658 75.8559,62.4658 69.5,66.5C 66.91,65.8717 64.5766,64.705 62.5,63C 63.2524,62.3292 63.5858,61.4959 63.5,60.5C 68.8924,56.447 74.5591,52.7803 80.5,49.5 Z"/></g>
<g><path style="opacity:0.944" fill="#a7f3f7" d="M 104.5,55.5 C 109.22,56.8772 111.553,60.2106 111.5,65.5C 108.167,67.1667 104.833,68.8333 101.5,70.5C 99.8561,70.7135 98.3561,70.3802 97,69.5C 95.1611,66.5768 94.6611,63.5768 95.5,60.5C 98.0078,58.0764 101.008,56.4097 104.5,55.5 Z"/></g>
<g><path style="opacity:0.085" fill="#49b4bd" d="M 63.5,60.5 C 63.5858,61.4959 63.2524,62.3292 62.5,63C 64.5766,64.705 66.91,65.8717 69.5,66.5C 63.2306,71.5948 57.0639,76.9281 51,82.5C 46.6142,81.0041 45.6142,78.3374 48,74.5C 52.7387,69.2563 57.9054,64.5897 63.5,60.5 Z"/></g>
<g><path style="opacity:0.626" fill="#82e3e9" d="M 95.5,60.5 C 94.6611,63.5768 95.1611,66.5768 97,69.5C 98.3561,70.3802 99.8561,70.7135 101.5,70.5C 95.1892,74.4658 88.8559,78.4658 82.5,82.5C 81.0222,82.762 79.6888,82.4287 78.5,81.5C 77.199,78.5729 76.199,75.5729 75.5,72.5C 81.8629,67.9856 88.5296,63.9856 95.5,60.5 Z"/></g>
<g><path style="opacity:0.343" fill="#63d0d9" d="M 148.5,79.5 C 145.041,79.4687 141.708,78.802 138.5,77.5C 137.526,75.2573 137.192,72.924 137.5,70.5C 137.023,62.9721 140.356,60.3055 147.5,62.5C 149.029,64.7073 149.695,67.2073 149.5,70C 149.256,73.1864 148.923,76.353 148.5,79.5 Z"/></g>
<g><path style="opacity:0.589" fill="#7ee1e7" d="M 159.5,58.5 C 159.5,61.1667 159.5,63.8333 159.5,66.5C 161.604,66.7989 163.604,66.4656 165.5,65.5C 166.028,63.6639 166.694,61.9972 167.5,60.5C 167.388,65.6142 166.721,70.6142 165.5,75.5C 164.566,76.5676 164.232,77.901 164.5,79.5C 162.167,79.5 159.833,79.5 157.5,79.5C 157.5,77.1667 157.5,74.8333 157.5,72.5C 157.69,67.6304 158.356,62.9637 159.5,58.5 Z"/></g>
<g><path style="opacity:0.279" fill="#55c4cd" d="M 75.5,72.5 C 76.199,75.5729 77.199,78.5729 78.5,81.5C 79.6888,82.4287 81.0222,82.762 82.5,82.5C 79.9735,85.3557 76.8068,87.3557 73,88.5C 67.8618,87.0238 66.1951,83.6904 68,78.5C 70.4392,76.3714 72.9392,74.3714 75.5,72.5 Z"/></g>
<g><path style="opacity:0.317" fill="#61cfd7" d="M 123.5,93.5 C 123.664,90.8127 123.497,88.146 123,85.5C 117.507,90.5438 113.007,96.2105 109.5,102.5C 109.59,100.304 109.923,98.137 110.5,96C 110.316,94.6244 109.649,93.7911 108.5,93.5C 111.283,88.1517 113.283,82.4851 114.5,76.5C 116.607,75.6996 118.774,75.0329 121,74.5C 122.711,74.4393 124.044,75.1059 125,76.5C 125.547,82.3844 125.047,88.0511 123.5,93.5 Z"/></g>
<g><path style="opacity:0.09" fill="#4ab6bf" d="M 114.5,76.5 C 113.283,82.4851 111.283,88.1517 108.5,93.5C 106.881,95.2385 104.881,95.7385 102.5,95C 103.3,90.92 103.8,86.7533 104,82.5C 107.283,80.1088 110.783,78.1088 114.5,76.5 Z"/></g>
<g><path style="opacity:0.115" fill="#49b8c2" d="M 137.5,70.5 C 137.192,72.924 137.526,75.2573 138.5,77.5C 141.708,78.802 145.041,79.4687 148.5,79.5C 148.044,82.9055 147.378,86.2389 146.5,89.5C 142.218,90.0963 138.218,89.0963 134.5,86.5C 135.506,81.0716 136.506,75.7383 137.5,70.5 Z"/></g>
<g><path style="opacity:0.082" fill="#4ab5bd" d="M 134.5,86.5 C 138.218,89.0963 142.218,90.0963 146.5,89.5C 146.1,94.5648 145.267,99.5648 144,104.5C 143.735,106.651 142.735,108.318 141,109.5C 138.239,108.692 135.572,107.692 133,106.5C 132.884,99.8045 133.384,93.1378 134.5,86.5 Z"/></g>
<g><path style="opacity:0.085" fill="#4cb9c2" d="M 157.5,72.5 C 157.5,74.8333 157.5,77.1667 157.5,79.5C 159.833,79.5 162.167,79.5 164.5,79.5C 164.232,77.901 164.566,76.5676 165.5,75.5C 164.707,84.9704 162.707,94.137 159.5,103C 157.19,103.497 154.857,103.663 152.5,103.5C 153.647,92.9534 155.314,82.6201 157.5,72.5 Z"/></g>
<g><path style="opacity:0.086" fill="#4bb7c0" d="M 92.5,109.5 C 88.2597,108.902 83.9264,108.902 79.5,109.5C 79.5,111.167 79.5,112.833 79.5,114.5C 77.2795,100.334 83.2795,91.3344 97.5,87.5C 97.7819,90.9097 98.4486,94.243 99.5,97.5C 97.8509,99.6499 96.0176,101.65 94,103.5C 93.187,105.436 92.687,107.436 92.5,109.5 Z"/></g>
<g><path style="opacity:0.773" fill="#92ebf0" d="M 123.5,93.5 C 122.964,102.178 121.298,110.512 118.5,118.5C 118.942,114.846 119.276,111.179 119.5,107.5C 116.421,107.74 113.421,107.407 110.5,106.5C 109.935,108.544 108.935,110.21 107.5,111.5C 108.323,108.539 108.99,105.539 109.5,102.5C 113.007,96.2105 117.507,90.5438 123,85.5C 123.497,88.146 123.664,90.8127 123.5,93.5 Z"/></g>
<g><path style="opacity:0.081" fill="#48b4bd" d="M 43.5,123.5 C 41.337,120.693 39.0037,117.86 36.5,115C 35.4232,114.53 34.4232,114.697 33.5,115.5C 33.2804,109.03 34.1137,102.697 36,96.5C 36.8917,93.0482 38.5584,90.0482 41,87.5C 43.3377,89.1572 44.8377,91.3239 45.5,94C 42.5944,103.698 41.9277,113.531 43.5,123.5 Z"/></g>
<g><path style="opacity:0.086" fill="#46b3bc" d="M 66.5,118.5 C 65.0689,118.881 64.2355,119.881 64,121.5C 62.2203,126.003 61.387,130.67 61.5,135.5C 53.216,123.398 51.5494,110.398 56.5,96.5C 57.3333,96.1667 58.1667,95.8333 59,95.5C 61.4716,96.3219 63.9716,96.9886 66.5,97.5C 65.7289,104.532 65.7289,111.532 66.5,118.5 Z"/></g>
<g><path style="opacity:0.966" fill="#a9f4f7" d="M 118.5,118.5 C 117.66,120.853 116.326,122.853 114.5,124.5C 113.448,124.649 112.448,124.483 111.5,124C 110.458,122.082 109.292,120.249 108,118.5C 108.203,120.937 109.037,123.271 110.5,125.5C 110.154,126.696 109.654,126.696 109,125.5C 105.736,121.307 105.236,116.974 107.5,112.5C 107.5,112.167 107.5,111.833 107.5,111.5C 108.935,110.21 109.935,108.544 110.5,106.5C 113.421,107.407 116.421,107.74 119.5,107.5C 119.276,111.179 118.942,114.846 118.5,118.5 Z"/></g>
<g><path style="opacity:0.427" fill="#64d1da" d="M 92.5,109.5 C 92.7497,111.674 93.7497,113.341 95.5,114.5C 94.1266,114.343 92.7932,114.51 91.5,115C 88.5054,117.475 86.1721,120.308 84.5,123.5C 81.5505,121.272 79.8838,118.272 79.5,114.5C 79.5,112.833 79.5,111.167 79.5,109.5C 83.9264,108.902 88.2597,108.902 92.5,109.5 Z"/></g>
<g><path style="opacity:0.078" fill="#49b4bd" d="M 151.5,109.5 C 153.833,109.5 156.167,109.5 158.5,109.5C 158.737,113.273 158.237,116.94 157,120.5C 153.249,123.584 150.416,122.917 148.5,118.5C 149.351,115.422 150.351,112.422 151.5,109.5 Z"/></g>
<g><path style="opacity:0.832" fill="#96edf1" d="M 107.5,112.5 C 105.236,116.974 105.736,121.307 109,125.5C 109.654,126.696 110.154,126.696 110.5,125.5C 109.037,123.271 108.203,120.937 108,118.5C 109.292,120.249 110.458,122.082 111.5,124C 112.448,124.483 113.448,124.649 114.5,124.5C 111.753,127.207 108.42,128.873 104.5,129.5C 101.482,129.665 98.4816,129.498 95.5,129C 94.572,128.612 93.9054,127.945 93.5,127C 94.47,123.756 95.6366,120.59 97,117.5C 98.6225,116.901 100.122,116.234 101.5,115.5C 103.784,115.025 105.784,114.025 107.5,112.5 Z"/></g>
<g><path style="opacity:0.236" fill="#53c2cb" d="M 43.5,123.5 C 44.4349,126.113 44.6015,128.779 44,131.5C 38.7057,133.901 35.7057,132.234 35,126.5C 34.4518,122.83 33.9518,119.163 33.5,115.5C 34.4232,114.697 35.4232,114.53 36.5,115C 39.0037,117.86 41.337,120.693 43.5,123.5 Z"/></g>
<g><path style="opacity:0.539" fill="#77dee5" d="M 95.5,114.5 C 97.3792,115.341 99.3792,115.675 101.5,115.5C 100.122,116.234 98.6225,116.901 97,117.5C 95.6366,120.59 94.47,123.756 93.5,127C 93.9054,127.945 94.572,128.612 95.5,129C 98.4816,129.498 101.482,129.665 104.5,129.5C 96.624,131.765 89.9574,129.765 84.5,123.5C 86.1721,120.308 88.5054,117.475 91.5,115C 92.7932,114.51 94.1266,114.343 95.5,114.5 Z"/></g>
<g><path style="opacity:0.085" fill="#4bb7c0" d="M 128.5,143.5 C 128.13,138.751 125.797,135.418 121.5,133.5C 125.448,127.938 128.615,121.938 131,115.5C 133.736,116.727 136.569,117.727 139.5,118.5C 139.423,128.329 135.756,136.662 128.5,143.5 Z"/></g>
<g><path style="opacity:0.339" fill="#5bcad2" d="M 66.5,118.5 C 68.2751,124.266 71.2751,129.266 75.5,133.5C 74.4168,133.461 73.4168,133.127 72.5,132.5C 70.0469,136.623 69.3802,140.956 70.5,145.5C 66.7881,142.789 63.7881,139.456 61.5,135.5C 61.387,130.67 62.2203,126.003 64,121.5C 64.2355,119.881 65.0689,118.881 66.5,118.5 Z"/></g>
<g><path style="opacity:0.481" fill="#6fd9e1" d="M 75.5,133.5 C 78.205,135.512 80.8717,137.512 83.5,139.5C 81.6693,138.948 80.0026,138.948 78.5,139.5C 77.5933,142.057 76.5933,144.557 75.5,147C 76.3805,147.708 77.0472,148.542 77.5,149.5C 75.0313,148.431 72.6979,147.098 70.5,145.5C 69.3802,140.956 70.0469,136.623 72.5,132.5C 73.4168,133.127 74.4168,133.461 75.5,133.5 Z"/></g>
<g><path style="opacity:0.695" fill="#77dde3" d="M 121.5,133.5 C 125.797,135.418 128.13,138.751 128.5,143.5C 124.678,146.987 120.345,149.653 115.5,151.5C 115.448,147.802 115.114,144.135 114.5,140.5C 113.5,140.5 112.5,140.5 111.5,140.5C 114.81,138.199 118.143,135.866 121.5,133.5 Z"/></g>
<g><path style="opacity:0.692" fill="#87e6eb" d="M 83.5,139.5 C 88.0243,141.131 92.6909,142.131 97.5,142.5C 95.0521,143.473 92.3854,143.806 89.5,143.5C 89.1336,145.905 88.4669,148.238 87.5,150.5C 88.437,152.288 89.7703,153.621 91.5,154.5C 86.3308,154.001 81.6642,152.334 77.5,149.5C 77.0472,148.542 76.3805,147.708 75.5,147C 76.5933,144.557 77.5933,142.057 78.5,139.5C 80.0026,138.948 81.6693,138.948 83.5,139.5 Z"/></g>
<g><path style="opacity:0.086" fill="#48b3bc" d="M 144.5,141.5 C 148.254,142.865 149.421,145.532 148,149.5C 146.333,152.5 144,154.833 141,156.5C 139.138,154.971 137.638,153.137 136.5,151C 138.383,146.968 141.05,143.801 144.5,141.5 Z"/></g>
<g><path style="opacity:0.975" fill="#a2f1f5" d="M 111.5,140.5 C 112.5,140.5 113.5,140.5 114.5,140.5C 115.114,144.135 115.448,147.802 115.5,151.5C 107.825,155.102 99.8252,156.102 91.5,154.5C 89.7703,153.621 88.437,152.288 87.5,150.5C 88.4669,148.238 89.1336,145.905 89.5,143.5C 92.3854,143.806 95.0521,143.473 97.5,142.5C 102.267,142.474 106.934,141.807 111.5,140.5 Z"/></g>
<g><path style="opacity:0.086" fill="#49b5be" d="M 123.5,170.5 C 123.167,167.833 122.833,165.167 122.5,162.5C 121.5,162.5 120.5,162.5 119.5,162.5C 123.794,159.895 128.127,157.228 132.5,154.5C 134.692,155.859 136.359,157.692 137.5,160C 133.736,164.714 129.07,168.214 123.5,170.5 Z"/></g>
<g><path style="opacity:0.447" fill="#60ccd5" d="M 71.5,162.5 C 67.7794,163.617 66.446,165.95 67.5,169.5C 61.1655,167.166 56.1655,163.166 52.5,157.5C 53.9032,153.746 56.5698,152.579 60.5,154C 64.0667,157.08 67.7334,159.913 71.5,162.5 Z"/></g>
<g><path style="opacity:0.336" fill="#63d0d8" d="M 119.5,162.5 C 120.5,162.5 121.5,162.5 122.5,162.5C 122.833,165.167 123.167,167.833 123.5,170.5C 118.149,173.172 112.483,174.838 106.5,175.5C 108.515,174.076 110.848,173.41 113.5,173.5C 113.326,171.139 112.993,168.806 112.5,166.5C 110.833,166.5 109.167,166.5 107.5,166.5C 111.341,164.997 115.341,163.664 119.5,162.5 Z"/></g>
<g><path style="opacity:0.952" fill="#9ef0f3" d="M 71.5,162.5 C 78.01,164.794 84.6767,166.461 91.5,167.5C 93.2184,168.224 95.0517,168.891 97,169.5C 97.4955,171.473 97.6621,173.473 97.5,175.5C 93.5,175.5 89.5,175.5 85.5,175.5C 78.8194,175.273 72.8194,173.273 67.5,169.5C 66.446,165.95 67.7794,163.617 71.5,162.5 Z"/></g>
<g><path style="opacity:0.798" fill="#90ebef" d="M 107.5,166.5 C 109.167,166.5 110.833,166.5 112.5,166.5C 112.993,168.806 113.326,171.139 113.5,173.5C 110.848,173.41 108.515,174.076 106.5,175.5C 99.4012,176.81 92.4012,176.81 85.5,175.5C 89.5,175.5 93.5,175.5 97.5,175.5C 97.6621,173.473 97.4955,171.473 97,169.5C 95.0517,168.891 93.2184,168.224 91.5,167.5C 96.8537,167.431 102.187,167.098 107.5,166.5 Z"/></g>
</svg>
