<?xml version="1.0" encoding="UTF-8"?>
<!DOCTYPE svg PUBLIC "-//W3C//DTD SVG 1.1//EN" "http://www.w3.org/Graphics/SVG/1.1/DTD/svg11.dtd">
<svg xmlns="http://www.w3.org/2000/svg" version="1.1" width="188px" height="188px" style="shape-rendering:geometricPrecision; text-rendering:geometricPrecision; image-rendering:optimizeQuality; fill-rule:evenodd; clip-rule:evenodd" xmlns:xlink="http://www.w3.org/1999/xlink">
<g><path style="opacity:0.047" fill="#4cb9c2" d="M 164.5,19.5 C 160.2,19.8153 158.533,22.1486 159.5,26.5C 157.551,24.6946 155.218,23.6946 152.5,23.5C 147.815,24.5084 143.148,25.5084 138.5,26.5C 135.99,20.4966 137.99,16.9966 144.5,16C 151.981,13.2628 158.647,14.4294 164.5,19.5 Z"/></g>
<g><path style="opacity:0.017" fill="#4bb6bf" d="M 128.5,22.5 C 129.822,22.33 130.989,22.6634 132,23.5C 133.922,28.9606 132.089,32.2939 126.5,33.5C 122.851,32.4612 121.684,30.1279 123,26.5C 124.812,25.0229 126.645,23.6896 128.5,22.5 Z"/></g>
<g><path style="opacity:0.834" fill="#88e5eb" d="M 164.5,19.5 C 167.607,22.04 169.44,25.3733 170,29.5C 170.814,34.0204 170.647,38.3537 169.5,42.5C 169.789,38.8936 169.456,35.3936 168.5,32C 166.833,31.3333 165.167,31.3333 163.5,32C 162.883,34.277 162.216,36.4437 161.5,38.5C 161.809,34.2953 161.143,30.2953 159.5,26.5C 158.533,22.1486 160.2,19.8153 164.5,19.5 Z"/></g>
<g><path style="opacity:0.971" fill="#9ceef2" d="M 88.5,54.5 C 84.9202,55.0772 81.9202,54.0772 79.5,51.5C 79.8627,50.8165 80.1961,50.1499 80.5,49.5C 89.6055,43.7743 98.9389,38.2743 108.5,33C 115.167,31.3333 117.167,33.6667 114.5,40C 105.689,44.661 97.022,49.4943 88.5,54.5 Z"/></g>
<g><path style="opacity:0.937" fill="#a9f4f7" d="M 169.5,42.5 C 169.5,44.1667 169.5,45.8333 169.5,47.5C 167.936,50.7065 165.269,52.0398 161.5,51.5C 161.5,47.8333 161.5,44.1667 161.5,40.5C 161.5,39.8333 161.5,39.1667 161.5,38.5C 162.216,36.4437 162.883,34.277 163.5,32C 165.167,31.3333 166.833,31.3333 168.5,32C 169.456,35.3936 169.789,38.8936 169.5,42.5 Z"/></g>
<g><path style="opacity:0.074" fill="#47b3bc" d="M 134.5,55.5 C 134.534,50.8844 132.867,47.2177 129.5,44.5C 134.364,40.8225 139.197,40.8225 144,44.5C 144.686,51.3234 141.519,54.9901 134.5,55.5 Z"/></g>
<g><path style="opacity:0.217" fill="#53c2cb" d="M 129.5,44.5 C 132.867,47.2177 134.534,50.8844 134.5,55.5C 131.673,56.1084 129.007,57.1084 126.5,58.5C 127.733,54.9054 127.066,51.5721 124.5,48.5C 123.675,47.6143 122.675,47.281 121.5,47.5C 123.792,45.7329 126.458,44.7329 129.5,44.5 Z"/></g>
<g><path style="opacity:0.571" fill="#75dce3" d="M 121.5,47.5 C 122.675,47.281 123.675,47.6143 124.5,48.5C 127.066,51.5721 127.733,54.9054 126.5,58.5C 122.71,59.8951 119.043,61.5617 115.5,63.5C 115.105,60.3138 114.105,57.3138 112.5,54.5C 111.311,53.5713 109.978,53.238 108.5,53.5C 112.416,50.7105 116.749,48.7105 121.5,47.5 Z"/></g>
<g><path style="opacity:0.572" fill="#7be0e6" d="M 80.5,49.5 C 80.1961,50.1499 79.8627,50.8165 79.5,51.5C 81.9202,54.0772 84.9202,55.0772 88.5,54.5C 84.8362,57.3346 80.8362,59.668 76.5,61.5C 69.9463,61.3627 68.613,59.0294 72.5,54.5C 74.822,52.336 77.4887,50.6693 80.5,49.5 Z"/></g>
<g><path style="opacity:0.692" fill="#84e3e9" d="M 161.5,40.5 C 161.5,44.1667 161.5,47.8333 161.5,51.5C 165.269,52.0398 167.936,50.7065 169.5,47.5C 168.745,55.2038 167.745,62.8705 166.5,70.5C 164.2,72.2018 161.533,72.8685 158.5,72.5C 158.5,70.5 158.5,68.5 158.5,66.5C 159.026,57.6385 160.026,48.9718 161.5,40.5 Z"/></g>
<g><path style="opacity:0.996" fill="#a3f2f5" d="M 108.5,53.5 C 109.978,53.238 111.311,53.5713 112.5,54.5C 114.105,57.3138 115.105,60.3138 115.5,63.5C 107.649,67.2578 99.9824,71.2578 92.5,75.5C 90.0885,75.8633 88.5885,74.8633 88,72.5C 85.942,69.5875 86.1086,66.9209 88.5,64.5C 94.5162,59.8216 101.183,56.155 108.5,53.5 Z"/></g>
<g><path style="opacity:0.208" fill="#52c2cb" d="M 149.5,71.5 C 145.441,71.9446 141.441,71.278 137.5,69.5C 138.437,61.0432 142.27,59.3765 149,64.5C 149.497,66.8098 149.663,69.1432 149.5,71.5 Z"/></g>
<g><path style="opacity:0.269" fill="#5eccd5" d="M 72.5,54.5 C 68.613,59.0294 69.9463,61.3627 76.5,61.5C 72.8962,64.9749 68.8962,67.9749 64.5,70.5C 60.8602,70.5246 58.5269,68.858 57.5,65.5C 61.9586,61.1031 66.9586,57.4365 72.5,54.5 Z"/></g>
<g><path style="opacity:0.694" fill="#8ce9ee" d="M 88.5,64.5 C 86.1086,66.9209 85.942,69.5875 88,72.5C 88.5885,74.8633 90.0885,75.8633 92.5,75.5C 88.8523,78.6599 84.8523,81.3265 80.5,83.5C 77.7081,83.5479 75.8747,82.2146 75,79.5C 74.5045,77.5273 74.3379,75.5273 74.5,73.5C 78.8187,70.0043 83.4854,67.0043 88.5,64.5 Z"/></g>
<g><path style="opacity:0.077" fill="#49b5bf" d="M 57.5,65.5 C 58.5269,68.858 60.8602,70.5246 64.5,70.5C 60.8955,73.6015 57.3955,76.9349 54,80.5C 50.663,85.9914 47.163,91.3247 43.5,96.5C 42.2519,94.5414 40.5852,93.0414 38.5,92C 41.2917,80.9794 47.625,72.1461 57.5,65.5 Z"/></g>
<g><path style="opacity:0.477" fill="#6ed8e0" d="M 74.5,73.5 C 74.3379,75.5273 74.5045,77.5273 75,79.5C 75.8747,82.2146 77.7081,83.5479 80.5,83.5C 76.9691,88.7429 72.8025,89.4096 68,85.5C 66.4656,79.5266 68.6323,75.5266 74.5,73.5 Z"/></g>
<g><path style="opacity:0.018" fill="#4ab5bf" d="M 137.5,69.5 C 141.441,71.278 145.441,71.9446 149.5,71.5C 148.753,78.5598 147.586,85.5598 146,92.5C 145.632,93.91 144.799,94.91 143.5,95.5C 140.336,94.683 137.503,93.3496 135,91.5C 135.315,84.1273 136.148,76.7939 137.5,69.5 Z"/></g>
<g><path style="opacity:0.076" fill="#4bb8c1" d="M 158.5,66.5 C 158.5,68.5 158.5,70.5 158.5,72.5C 161.533,72.8685 164.2,72.2018 166.5,70.5C 165.431,78.2453 163.931,85.912 162,93.5C 159.619,94.435 157.119,94.7683 154.5,94.5C 155.012,84.9177 156.345,75.5843 158.5,66.5 Z"/></g>
<g><path style="opacity:0.077" fill="#48b5be" d="M 94.5,102.5 C 92.564,98.6891 89.564,96.0225 85.5,94.5C 87.0038,92.1644 89.0038,90.331 91.5,89C 95.8085,86.0118 100.475,83.8451 105.5,82.5C 105.42,87.3164 104.586,91.9831 103,96.5C 100.287,98.7195 97.4539,100.72 94.5,102.5 Z"/></g>
<g><path style="opacity:0.082" fill="#49b6c0" d="M 124.5,85.5 C 124.728,83.6453 124.061,82.8119 122.5,83C 119.272,88.1679 115.272,92.6679 110.5,96.5C 110.719,95.325 110.386,94.325 109.5,93.5C 108.232,94.4279 106.899,94.5946 105.5,94C 107.639,88.5839 109.972,83.2505 112.5,78C 122.97,71.392 126.97,73.892 124.5,85.5 Z"/></g>
<g><path style="opacity:0.011" fill="#4db8c0" d="M 58.5,93.5 C 64.3335,92.3373 67.0002,94.6706 66.5,100.5C 62.6978,100.126 59.3645,98.793 56.5,96.5C 57.1925,95.4822 57.8592,94.4822 58.5,93.5 Z"/></g>
<g><path style="opacity:0.373" fill="#61ced7" d="M 124.5,85.5 C 124.638,90.4141 123.972,95.0808 122.5,99.5C 122.663,97.1432 122.497,94.8098 122,92.5C 116.777,94.5606 112.61,97.8939 109.5,102.5C 109.517,100.435 109.85,98.4352 110.5,96.5C 115.272,92.6679 119.272,88.1679 122.5,83C 124.061,82.8119 124.728,83.6453 124.5,85.5 Z"/></g>
<g><path style="opacity:0.541" fill="#7be0e6" d="M 122.5,99.5 C 122.57,103.425 121.903,107.091 120.5,110.5C 120.5,108.833 120.5,107.167 120.5,105.5C 117.15,105.335 113.817,105.502 110.5,106C 109.075,107.714 109.408,109.047 111.5,110C 110.255,110.791 108.922,111.291 107.5,111.5C 108.323,108.539 108.99,105.539 109.5,102.5C 112.61,97.8939 116.777,94.5606 122,92.5C 122.497,94.8098 122.663,97.1432 122.5,99.5 Z"/></g>
<g><path style="opacity:0.019" fill="#4cb7c0" d="M 65.5,114.5 C 64.4138,114.62 63.7472,115.287 63.5,116.5C 62.596,121.553 60.9293,126.219 58.5,130.5C 54.3462,121.334 54.8462,112.334 60,103.5C 61.7889,101.771 63.9556,101.104 66.5,101.5C 65.8005,105.798 65.4672,110.131 65.5,114.5 Z"/></g>
<g><path style="opacity:0.369" fill="#60ced6" d="M 85.5,94.5 C 89.564,96.0225 92.564,98.6891 94.5,102.5C 94.3404,104.153 93.6737,105.486 92.5,106.5C 92.3893,105.883 92.056,105.383 91.5,105C 87.8233,104.282 84.1566,103.949 80.5,104C 79.5442,107.394 79.2108,110.894 79.5,114.5C 76.8427,106.469 78.8427,99.8026 85.5,94.5 Z"/></g>
<g><path style="opacity:0.103" fill="#4ab8c1" d="M 153.5,100.5 C 155.833,100.5 158.167,100.5 160.5,100.5C 160.172,107.307 159.005,113.974 157,120.5C 152.946,123.691 150.113,122.858 148.5,118C 149.731,111.994 151.397,106.161 153.5,100.5 Z"/></g>
<g><path style="opacity:0.078" fill="#49b6bf" d="M 135.5,134.5 C 135.719,133.325 135.386,132.325 134.5,131.5C 132.013,129.496 129.347,127.829 126.5,126.5C 128.198,118.707 130.365,111.041 133,103.5C 133.414,103.043 133.914,102.709 134.5,102.5C 137.07,103.634 139.736,104.468 142.5,105C 142.908,115.452 140.575,125.286 135.5,134.5 Z"/></g>
<g><path style="opacity:0.943" fill="#a2f2f5" d="M 120.5,110.5 C 120.078,121.029 114.745,127.362 104.5,129.5C 101.482,129.665 98.4816,129.498 95.5,129C 93.7774,128.477 92.444,127.477 91.5,126C 92.7299,123.247 93.7299,120.413 94.5,117.5C 96.9688,116.832 99.3021,116.165 101.5,115.5C 104.198,115.155 106.198,113.822 107.5,111.5C 108.922,111.291 110.255,110.791 111.5,110C 109.408,109.047 109.075,107.714 110.5,106C 113.817,105.502 117.15,105.335 120.5,105.5C 120.5,107.167 120.5,108.833 120.5,110.5 Z"/></g>
<g><path style="opacity:0.074" fill="#47b3bd" d="M 35.5,102.5 C 38.5874,104.421 40.7541,107.087 42,110.5C 42.3405,116.405 43.1738,122.239 44.5,128C 44.6598,130.855 43.3265,132.355 40.5,132.5C 36.8092,131.844 34.9758,129.511 35,125.5C 32.8877,117.75 33.0543,110.083 35.5,102.5 Z"/></g>
<g><path style="opacity:0.077" fill="#46b2bc" d="M 65.5,114.5 C 66.8283,120.822 69.4949,126.489 73.5,131.5C 72.2502,131.577 71.4169,132.244 71,133.5C 69.6476,136.72 68.8143,140.053 68.5,143.5C 64.432,139.761 61.0986,135.428 58.5,130.5C 60.9293,126.219 62.596,121.553 63.5,116.5C 63.7472,115.287 64.4138,114.62 65.5,114.5 Z"/></g>
<g><path style="opacity:0.794" fill="#86e5eb" d="M 92.5,106.5 C 92.2245,112.851 95.2245,115.851 101.5,115.5C 99.3021,116.165 96.9688,116.832 94.5,117.5C 93.7299,120.413 92.7299,123.247 91.5,126C 92.444,127.477 93.7774,128.477 95.5,129C 98.4816,129.498 101.482,129.665 104.5,129.5C 91.8028,131.978 83.4695,126.978 79.5,114.5C 79.2108,110.894 79.5442,107.394 80.5,104C 84.1566,103.949 87.8233,104.282 91.5,105C 92.056,105.383 92.3893,105.883 92.5,106.5 Z"/></g>
<g><path style="opacity:0.333" fill="#63d0d8" d="M 126.5,126.5 C 129.347,127.829 132.013,129.496 134.5,131.5C 135.386,132.325 135.719,133.325 135.5,134.5C 133.303,138.238 130.636,141.571 127.5,144.5C 127.999,139.362 125.999,135.696 121.5,133.5C 122.811,130.865 124.478,128.531 126.5,126.5 Z"/></g>
<g><path style="opacity:0.972" fill="#9eeff4" d="M 121.5,133.5 C 125.999,135.696 127.999,139.362 127.5,144.5C 120.601,150.359 112.601,153.692 103.5,154.5C 101.143,154.663 98.8098,154.497 96.5,154C 95.572,153.612 94.9054,152.945 94.5,152C 95.2734,148.733 96.2734,145.566 97.5,142.5C 106.745,142.643 114.745,139.643 121.5,133.5 Z"/></g>
<g><path style="opacity:0.505" fill="#76dce3" d="M 85.5,140.5 C 89.4432,141.486 93.4432,142.152 97.5,142.5C 96.2734,145.566 95.2734,148.733 94.5,152C 94.9054,152.945 95.572,153.612 96.5,154C 98.8098,154.497 101.143,154.663 103.5,154.5C 95.0905,155.987 87.0905,154.654 79.5,150.5C 78.8603,147.252 79.0269,143.918 80,140.5C 81.7067,139.862 83.54,139.862 85.5,140.5 Z"/></g>
<g><path style="opacity:0.009" fill="#4db8c0" d="M 142.5,142.5 C 147.708,142.369 149.375,144.702 147.5,149.5C 144.772,150.94 142.605,150.274 141,147.5C 140.387,145.505 140.887,143.838 142.5,142.5 Z"/></g>
<g><path style="opacity:0.307" fill="#58c7d0" d="M 73.5,131.5 C 77.1806,134.998 81.1806,137.998 85.5,140.5C 83.54,139.862 81.7067,139.862 80,140.5C 79.0269,143.918 78.8603,147.252 79.5,150.5C 75.3171,148.913 71.6505,146.579 68.5,143.5C 68.8143,140.053 69.6476,136.72 71,133.5C 71.4169,132.244 72.2502,131.577 73.5,131.5 Z"/></g>
<g><path style="opacity:0.044" fill="#47b4be" d="M 70.5,161.5 C 65.5049,161.125 63.5049,163.458 64.5,168.5C 60.8765,166.049 57.3765,163.383 54,160.5C 52.6703,155.502 54.5036,153.336 59.5,154C 63.2326,156.523 66.8992,159.023 70.5,161.5 Z"/></g>
<g><path style="opacity:0.082" fill="#49b6bf" d="M 130.5,166.5 C 130.638,162.307 128.638,159.973 124.5,159.5C 128.496,156.349 132.663,153.349 137,150.5C 139.885,151.699 141.552,153.699 142,156.5C 138.59,160.416 134.757,163.749 130.5,166.5 Z"/></g>
<g><path style="opacity:0.651" fill="#78dde4" d="M 70.5,161.5 C 76.6835,164.29 83.0168,166.29 89.5,167.5C 86.8333,167.5 84.1667,167.5 81.5,167.5C 81.552,169.903 81.2186,172.236 80.5,174.5C 74.7499,173.625 69.4165,171.625 64.5,168.5C 63.5049,163.458 65.5049,161.125 70.5,161.5 Z"/></g>
<g><path style="opacity:0.402" fill="#63d0d8" d="M 124.5,159.5 C 128.638,159.973 130.638,162.307 130.5,166.5C 128.167,167.833 125.833,169.167 123.5,170.5C 123.357,168.738 123.691,167.071 124.5,165.5C 123.625,163.227 121.958,162.227 119.5,162.5C 120.965,161.263 122.632,160.263 124.5,159.5 Z"/></g>
<g><path style="opacity:0.839" fill="#94ebf0" d="M 119.5,162.5 C 121.958,162.227 123.625,163.227 124.5,165.5C 123.691,167.071 123.357,168.738 123.5,170.5C 109.515,176.712 95.1816,178.045 80.5,174.5C 81.2186,172.236 81.552,169.903 81.5,167.5C 84.1667,167.5 86.8333,167.5 89.5,167.5C 99.8537,167.774 109.854,166.108 119.5,162.5 Z"/></g>
<g><path style="opacity:0.994" fill="#acf6f9" d="M 88.5,168.5 C 93.5,168.5 98.5,168.5 103.5,168.5C 103.5,170.833 103.5,173.167 103.5,175.5C 98.8215,175.666 94.1548,175.499 89.5,175C 88.5769,172.959 88.2436,170.792 88.5,168.5 Z"/></g>
</svg>
