<?xml version="1.0" encoding="UTF-8"?>
<!DOCTYPE svg PUBLIC "-//W3C//DTD SVG 1.1//EN" "http://www.w3.org/Graphics/SVG/1.1/DTD/svg11.dtd">
<svg xmlns="http://www.w3.org/2000/svg" version="1.1" width="188px" height="188px" style="shape-rendering:geometricPrecision; text-rendering:geometricPrecision; image-rendering:optimizeQuality; fill-rule:evenodd; clip-rule:evenodd" xmlns:xlink="http://www.w3.org/1999/xlink">
<g><path style="opacity:0.398" fill="#63d0d8" d="M 159.5,16.5 C 157.833,16.5 156.167,16.5 154.5,16.5C 154.15,19.0408 154.15,21.3742 154.5,23.5C 151.482,23.7038 148.482,24.0371 145.5,24.5C 144.523,21.7131 144.19,18.7131 144.5,15.5C 149.763,13.8677 154.763,14.201 159.5,16.5 Z"/></g>
<g><path style="opacity:0.076" fill="#4cb8c1" d="M 144.5,15.5 C 144.19,18.7131 144.523,21.7131 145.5,24.5C 140.711,27.0582 135.711,29.3916 130.5,31.5C 128.772,27.4566 129.438,23.9566 132.5,21C 136.407,18.8786 140.407,17.0453 144.5,15.5 Z"/></g>
<g><path style="opacity:0.861" fill="#9beef3" d="M 159.5,16.5 C 164.09,17.9213 167.256,20.9213 169,25.5C 170.786,32.7894 170.953,40.1227 169.5,47.5C 167.653,50.1715 164.986,51.1715 161.5,50.5C 161.5,47.1667 161.5,43.8333 161.5,40.5C 161.79,36.0638 161.29,31.7305 160,27.5C 158.568,25.5612 156.735,24.2279 154.5,23.5C 154.15,21.3742 154.15,19.0408 154.5,16.5C 156.167,16.5 157.833,16.5 159.5,16.5 Z"/></g>
<g><path style="opacity:0.004" fill="#55c1c7" d="M 123.5,29.5 C 124.525,29.8966 124.692,30.5632 124,31.5C 123.536,30.9056 123.369,30.2389 123.5,29.5 Z"/></g>
<g><path style="opacity:0.996" fill="#a5f1f5" d="M 93.5,51.5 C 91.4068,50.9553 89.4068,50.122 87.5,49C 86.8288,48.0138 86.8288,46.8471 87.5,45.5C 94.1061,40.8559 101.106,36.6893 108.5,33C 115.167,31.3333 117.167,33.6667 114.5,40C 107.473,43.8456 100.473,47.679 93.5,51.5 Z"/></g>
<g><path style="opacity:0.08" fill="#4cb9c2" d="M 121.5,60.5 C 122.068,54.9287 119.735,51.5954 114.5,50.5C 121.014,45.9368 128.181,43.9368 136,44.5C 138.411,47.2099 139.244,50.2099 138.5,53.5C 132.724,55.6455 127.057,57.9788 121.5,60.5 Z"/></g>
<g><path style="opacity:0.576" fill="#7be0e6" d="M 161.5,40.5 C 161.5,43.8333 161.5,47.1667 161.5,50.5C 164.986,51.1715 167.653,50.1715 169.5,47.5C 168.978,52.5326 168.311,57.5326 167.5,62.5C 164.946,63.388 162.279,63.7214 159.5,63.5C 159.5,62.1667 159.5,60.8333 159.5,59.5C 159.586,52.9635 160.253,46.6301 161.5,40.5 Z"/></g>
<g><path style="opacity:0.743" fill="#8ce8ed" d="M 87.5,45.5 C 86.8288,46.8471 86.8288,48.0138 87.5,49C 89.4068,50.122 91.4068,50.9553 93.5,51.5C 83.1928,57.6573 73.1928,64.324 63.5,71.5C 61.0108,71.7022 58.6775,71.2022 56.5,70C 55.6634,68.9887 55.33,67.8221 55.5,66.5C 65.1686,57.9977 75.8353,50.9977 87.5,45.5 Z"/></g>
<g><path style="opacity:0.353" fill="#61ced6" d="M 114.5,50.5 C 119.735,51.5954 122.068,54.9287 121.5,60.5C 119.5,61.5 117.5,62.5 115.5,63.5C 115.67,58.848 114.003,55.1814 110.5,52.5C 111.514,51.3263 112.847,50.6596 114.5,50.5 Z"/></g>
<g><path style="opacity:0.834" fill="#88e6ec" d="M 110.5,52.5 C 114.003,55.1814 115.67,58.848 115.5,63.5C 110.341,65.9121 105.341,68.5788 100.5,71.5C 100.105,68.3138 99.1046,65.3138 97.5,62.5C 96.3112,61.5713 94.9778,61.238 93.5,61.5C 98.6837,57.7396 104.35,54.7396 110.5,52.5 Z"/></g>
<g><path style="opacity:0.996" fill="#a4f2f6" d="M 93.5,61.5 C 94.9778,61.238 96.3112,61.5713 97.5,62.5C 99.1046,65.3138 100.105,68.3138 100.5,71.5C 93.3044,75.5937 86.3044,79.9271 79.5,84.5C 78.5041,84.5858 77.6708,84.2524 77,83.5C 75.6884,81.0448 74.5218,78.5448 73.5,76C 74.7101,74.9609 75.7101,73.7942 76.5,72.5C 81.6476,68.089 87.3143,64.4223 93.5,61.5 Z"/></g>
<g><path style="opacity:0.013" fill="#50bcc4" d="M 140.5,61.5 C 143.97,60.8748 146.804,61.8748 149,64.5C 149.564,70.2569 149.064,75.9236 147.5,81.5C 143.447,81.4297 139.947,80.0963 137,77.5C 136.547,71.7436 137.714,66.4103 140.5,61.5 Z"/></g>
<g><path style="opacity:0.297" fill="#60cdd5" d="M 55.5,66.5 C 55.33,67.8221 55.6634,68.9887 56.5,70C 58.6775,71.2022 61.0108,71.7022 63.5,71.5C 59.8604,74.4729 56.5271,77.8062 53.5,81.5C 49.719,81.7037 47.3857,80.037 46.5,76.5C 48.7881,72.5442 51.7881,69.2109 55.5,66.5 Z"/></g>
<g><path style="opacity:0.071" fill="#4ebbc3" d="M 159.5,59.5 C 159.5,60.8333 159.5,62.1667 159.5,63.5C 162.279,63.7214 164.946,63.388 167.5,62.5C 166.767,69.5648 165.6,76.5648 164,83.5C 161.962,85.0722 159.629,86.0722 157,86.5C 156.219,85.2713 155.719,83.938 155.5,82.5C 156.663,74.6651 157.996,66.9984 159.5,59.5 Z"/></g>
<g><path style="opacity:0.692" fill="#87e6ec" d="M 76.5,72.5 C 75.7101,73.7942 74.7101,74.9609 73.5,76C 74.5218,78.5448 75.6884,81.0448 77,83.5C 77.6708,84.2524 78.5041,84.5858 79.5,84.5C 76.0225,89.0497 72.1892,89.383 68,85.5C 67.3333,83.1667 67.3333,80.8333 68,78.5C 70.6287,76.1118 73.462,74.1118 76.5,72.5 Z"/></g>
<g><path style="opacity:0.076" fill="#4cb9c1" d="M 123.5,93.5 C 123.53,92.5028 123.03,91.8361 122,91.5C 118.282,95.5869 114.116,98.9203 109.5,101.5C 111.106,98.2471 110.773,95.2471 108.5,92.5C 111.51,86.4693 115.01,80.8027 119,75.5C 121.609,74.1306 123.609,74.7972 125,77.5C 125.328,83.0298 124.828,88.3631 123.5,93.5 Z"/></g>
<g><path style="opacity:0.074" fill="#4ebbc4" d="M 97.5,100.5 C 97.0946,97.0135 96.0946,93.6801 94.5,90.5C 93.675,89.6143 92.675,89.281 91.5,89.5C 98.0617,85.0519 105.062,81.3853 112.5,78.5C 110.776,83.503 108.942,88.503 107,93.5C 103.956,96.0509 100.789,98.3842 97.5,100.5 Z"/></g>
<g><path style="opacity:0.075" fill="#4cb9c1" d="M 46.5,76.5 C 47.3857,80.037 49.719,81.7037 53.5,81.5C 46.6923,91.082 42.5257,101.749 41,113.5C 39.3163,111.649 37.4829,109.982 35.5,108.5C 34.778,96.3328 38.4447,85.6661 46.5,76.5 Z"/></g>
<g><path style="opacity:0.368" fill="#68d4dc" d="M 91.5,89.5 C 92.675,89.281 93.675,89.6143 94.5,90.5C 96.0946,93.6801 97.0946,97.0135 97.5,100.5C 95.3567,102.131 93.69,104.131 92.5,106.5C 92.6602,104.801 92.4935,103.134 92,101.5C 89.5794,100.039 87.0794,98.7061 84.5,97.5C 83.0546,99.3936 81.3879,101.06 79.5,102.5C 82.0905,96.9078 86.0905,92.5744 91.5,89.5 Z"/></g>
<g><path style="opacity:0.076" fill="#4cb9c2" d="M 158.5,112.5 C 158.5,111.5 158.5,110.5 158.5,109.5C 155.487,109.107 152.82,109.774 150.5,111.5C 151.344,105.449 152.51,99.4487 154,93.5C 156.124,92.7728 158.291,92.1062 160.5,91.5C 161.881,91.9996 162.547,92.9996 162.5,94.5C 161.527,100.711 160.194,106.711 158.5,112.5 Z"/></g>
<g><path style="opacity:0.012" fill="#51bdc5" d="M 60.5,92.5 C 68.627,95.2984 69.4603,99.2984 63,104.5C 60.8431,110.798 58.8431,117.131 57,123.5C 52.7082,114.693 52.3748,105.693 56,96.5C 57.2499,94.8065 58.7499,93.4732 60.5,92.5 Z"/></g>
<g><path style="opacity:0.084" fill="#4cb9c1" d="M 140.5,120.5 C 140.709,118.286 139.876,116.619 138,115.5C 135.804,114.91 133.638,114.243 131.5,113.5C 130.818,114.243 130.151,114.909 129.5,115.5C 131.072,106.733 133.072,98.0662 135.5,89.5C 138.436,89.1335 141.436,89.6335 144.5,91C 145.065,101.109 143.731,110.942 140.5,120.5 Z"/></g>
<g><path style="opacity:0.306" fill="#60ced6" d="M 123.5,93.5 C 123.236,99.422 122.236,105.089 120.5,110.5C 120.67,109.178 120.337,108.011 119.5,107C 115.745,106.245 112.078,106.411 108.5,107.5C 109.15,105.565 109.483,103.565 109.5,101.5C 114.116,98.9203 118.282,95.5869 122,91.5C 123.03,91.8361 123.53,92.5028 123.5,93.5 Z"/></g>
<g><path style="opacity:0.735" fill="#8ce9ee" d="M 92.5,106.5 C 92.5172,108.565 92.8505,110.565 93.5,112.5C 88.5722,110.96 84.5722,112.294 81.5,116.5C 82.1776,118.516 82.8443,120.516 83.5,122.5C 78.6545,116.627 77.3212,109.961 79.5,102.5C 81.3879,101.06 83.0546,99.3936 84.5,97.5C 87.0794,98.7061 89.5794,100.039 92,101.5C 92.4935,103.134 92.6602,104.801 92.5,106.5 Z"/></g>
<g><path style="opacity:0.798" fill="#88e6ec" d="M 120.5,110.5 C 120.562,117.725 117.562,123.058 111.5,126.5C 110.768,123.019 109.434,119.686 107.5,116.5C 106.311,115.571 104.978,115.238 103.5,115.5C 106.626,113.84 108.293,111.174 108.5,107.5C 112.078,106.411 115.745,106.245 119.5,107C 120.337,108.011 120.67,109.178 120.5,110.5 Z"/></g>
<g><path style="opacity:0.384" fill="#68d3db" d="M 158.5,112.5 C 158.579,115.271 158.079,117.937 157,120.5C 152.946,123.691 150.113,122.858 148.5,118C 148.99,115.654 149.657,113.487 150.5,111.5C 152.82,109.774 155.487,109.107 158.5,109.5C 158.5,110.5 158.5,111.5 158.5,112.5 Z"/></g>
<g><path style="opacity:0.954" fill="#a3f2f5" d="M 93.5,112.5 C 96.1918,115.142 99.5251,116.142 103.5,115.5C 104.978,115.238 106.311,115.571 107.5,116.5C 109.434,119.686 110.768,123.019 111.5,126.5C 103.728,131.636 95.7277,131.803 87.5,127C 85.9586,125.629 84.6253,124.129 83.5,122.5C 82.8443,120.516 82.1776,118.516 81.5,116.5C 84.5722,112.294 88.5722,110.96 93.5,112.5 Z"/></g>
<g><path style="opacity:0.996" fill="#aef6f9" d="M 96.5,117.5 C 99.1194,117.232 101.619,117.565 104,118.5C 104.943,121.824 105.776,125.157 106.5,128.5C 102.854,129.283 99.1875,129.45 95.5,129C 94.5,128.167 93.5,127.333 92.5,126.5C 93.5733,123.356 94.9066,120.356 96.5,117.5 Z"/></g>
<g><path style="opacity:0.008" fill="#55c1c7" d="M 35.5,121.5 C 37.8367,123.666 40.3367,125.666 43,127.5C 43.299,132.026 41.299,133.36 37,131.5C 35.8011,128.274 35.3011,124.941 35.5,121.5 Z"/></g>
<g><path style="opacity:0.405" fill="#61ced6" d="M 140.5,120.5 C 139.917,125.644 138.25,130.31 135.5,134.5C 135.474,128.635 132.474,125.635 126.5,125.5C 127.503,122.15 128.503,118.817 129.5,115.5C 130.151,114.909 130.818,114.243 131.5,113.5C 133.638,114.243 135.804,114.91 138,115.5C 139.876,116.619 140.709,118.286 140.5,120.5 Z"/></g>
<g><path style="opacity:0.687" fill="#83e4ea" d="M 126.5,125.5 C 132.474,125.635 135.474,128.635 135.5,134.5C 133.303,138.238 130.636,141.571 127.5,144.5C 127.108,139.687 124.774,136.354 120.5,134.5C 122.5,131.5 124.5,128.5 126.5,125.5 Z"/></g>
<g><path style="opacity:0.076" fill="#4ebbc3" d="M 92.5,142.5 C 90.665,143.122 89.4983,144.456 89,146.5C 88.2782,149.261 88.4448,151.927 89.5,154.5C 77.2859,151.919 68.2859,145.253 62.5,134.5C 63.2239,130.047 64.3906,125.714 66,121.5C 72.1231,132.144 80.9564,139.144 92.5,142.5 Z"/></g>
<g><path style="opacity:0.996" fill="#a5f3f6" d="M 120.5,134.5 C 124.774,136.354 127.108,139.687 127.5,144.5C 123.236,148.467 118.236,151.133 112.5,152.5C 110.167,152.5 107.833,152.5 105.5,152.5C 105.335,149.482 105.502,146.482 106,143.5C 106.995,142.934 107.828,142.267 108.5,141.5C 112.76,139.7 116.76,137.367 120.5,134.5 Z"/></g>
<g><path style="opacity:0.627" fill="#87e6ec" d="M 108.5,141.5 C 107.828,142.267 106.995,142.934 106,143.5C 105.502,146.482 105.335,149.482 105.5,152.5C 107.833,152.5 110.167,152.5 112.5,152.5C 109.781,153.913 106.781,154.58 103.5,154.5C 95.562,155.809 93.3953,152.809 97,145.5C 97.6979,144.309 98.5313,143.309 99.5,142.5C 102.518,142.296 105.518,141.963 108.5,141.5 Z"/></g>
<g><path style="opacity:0.371" fill="#67d3db" d="M 92.5,142.5 C 94.8333,142.5 97.1667,142.5 99.5,142.5C 98.5313,143.309 97.6979,144.309 97,145.5C 93.3953,152.809 95.562,155.809 103.5,154.5C 98.9874,155.597 94.3208,155.597 89.5,154.5C 88.4448,151.927 88.2782,149.261 89,146.5C 89.4983,144.456 90.665,143.122 92.5,142.5 Z"/></g>
<g><path style="opacity:0.081" fill="#4dbac3" d="M 136.5,161.5 C 136.392,159.217 135.559,157.217 134,155.5C 133.329,154.748 132.496,154.414 131.5,154.5C 134.639,150.53 138.305,147.03 142.5,144C 144.112,143.28 145.612,143.446 147,144.5C 147.667,146.5 147.667,148.5 147,150.5C 143.998,154.668 140.498,158.335 136.5,161.5 Z"/></g>
<g><path style="opacity:0.686" fill="#7ee0e7" d="M 131.5,154.5 C 132.496,154.414 133.329,154.748 134,155.5C 135.559,157.217 136.392,159.217 136.5,161.5C 131.848,165.831 126.514,169.165 120.5,171.5C 121.495,166.458 119.495,164.125 114.5,164.5C 120.592,161.951 126.259,158.618 131.5,154.5 Z"/></g>
<g><path style="opacity:0.572" fill="#73dbe2" d="M 83.5,166.5 C 85.7354,166.205 87.7354,166.539 89.5,167.5C 86.8641,167.491 85.5307,168.825 85.5,171.5C 85.8333,172.5 86.1667,173.5 86.5,174.5C 87.7387,174.942 88.7387,175.609 89.5,176.5C 84.697,176.006 80.0304,175.006 75.5,173.5C 73.7439,166.259 76.4105,163.926 83.5,166.5 Z"/></g>
<g><path style="opacity:0.158" fill="#4fbdc6" d="M 83.5,166.5 C 76.4105,163.926 73.7439,166.259 75.5,173.5C 68.9886,171.328 63.1553,167.995 58,163.5C 57.9099,160.538 59.2432,158.204 62,156.5C 68.6813,161.094 75.848,164.427 83.5,166.5 Z"/></g>
<g><path style="opacity:0.945" fill="#9ff0f4" d="M 114.5,164.5 C 119.495,164.125 121.495,166.458 120.5,171.5C 110.655,175.85 100.322,177.516 89.5,176.5C 88.7387,175.609 87.7387,174.942 86.5,174.5C 86.1667,173.5 85.8333,172.5 85.5,171.5C 85.5307,168.825 86.8641,167.491 89.5,167.5C 97.9882,167.696 106.322,166.696 114.5,164.5 Z"/></g>
</svg>
