<?xml version="1.0" encoding="UTF-8"?>
<!DOCTYPE svg PUBLIC "-//W3C//DTD SVG 1.1//EN" "http://www.w3.org/Graphics/SVG/1.1/DTD/svg11.dtd">
<svg xmlns="http://www.w3.org/2000/svg" version="1.1" width="188px" height="188px" style="shape-rendering:geometricPrecision; text-rendering:geometricPrecision; image-rendering:optimizeQuality; fill-rule:evenodd; clip-rule:evenodd" xmlns:xlink="http://www.w3.org/1999/xlink">
<g><path style="opacity:0.365" fill="#6ad5dd" d="M 156.5,15.5 C 154.167,15.5 151.833,15.5 149.5,15.5C 149.5,17.8333 149.5,20.1667 149.5,22.5C 150.791,22.2627 151.791,22.596 152.5,23.5C 149.461,24.01 146.461,24.6766 143.5,25.5C 142.5,25.5 141.5,25.5 140.5,25.5C 140.5,22.8333 140.5,20.1667 140.5,17.5C 145.698,14.7016 151.031,14.0349 156.5,15.5 Z"/></g>
<g><path style="opacity:0.868" fill="#94ecf1" d="M 156.5,15.5 C 160.793,15.9769 164.127,17.9769 166.5,21.5C 162.413,20.3949 160.08,22.0616 159.5,26.5C 157.539,24.6878 155.206,23.6878 152.5,23.5C 151.791,22.596 150.791,22.2627 149.5,22.5C 149.5,20.1667 149.5,17.8333 149.5,15.5C 151.833,15.5 154.167,15.5 156.5,15.5 Z"/></g>
<g><path style="opacity:0.078" fill="#4cb9c1" d="M 140.5,17.5 C 140.5,20.1667 140.5,22.8333 140.5,25.5C 141.5,25.5 142.5,25.5 143.5,25.5C 138.045,28.3917 132.378,31.0583 126.5,33.5C 122.22,31.4977 121.554,28.6643 124.5,25C 129.735,22.2152 135.068,19.7152 140.5,17.5 Z"/></g>
<g><path style="opacity:0.872" fill="#9beef3" d="M 166.5,21.5 C 168.446,23.734 169.613,26.4006 170,29.5C 170.575,35.5219 170.409,41.5219 169.5,47.5C 162.555,50.2257 159.888,47.8923 161.5,40.5C 161.882,35.6331 161.215,30.9665 159.5,26.5C 160.08,22.0616 162.413,20.3949 166.5,21.5 Z"/></g>
<g><path style="opacity:0.805" fill="#8ce8ed" d="M 106.5,44.5 C 105.354,39.4282 102.354,37.7615 97.5,39.5C 101.103,37.3596 104.77,35.193 108.5,33C 114.667,31.1667 116.833,33.3333 115,39.5C 112.386,41.5564 109.553,43.2231 106.5,44.5 Z"/></g>
<g><path style="opacity:0.872" fill="#9deff3" d="M 106.5,44.5 C 101.833,47.1667 97.1667,49.8333 92.5,52.5C 90.8116,47.604 87.4783,46.2707 82.5,48.5C 86.9946,44.7487 91.9946,41.7487 97.5,39.5C 102.354,37.7615 105.354,39.4282 106.5,44.5 Z"/></g>
<g><path style="opacity:0.016" fill="#50bbc3" d="M 136.5,41.5 C 142.82,41.3196 145.32,44.3196 144,50.5C 142.054,52.9944 139.721,53.6611 137,52.5C 135.697,50.0602 134.53,47.5602 133.5,45C 134.071,43.4009 135.071,42.2342 136.5,41.5 Z"/></g>
<g><path style="opacity:0.997" fill="#aaf4f7" d="M 92.5,52.5 C 89.6612,54.4203 86.6612,56.0869 83.5,57.5C 78.8799,57.5548 76.8799,55.5548 77.5,51.5C 78.6594,49.7497 80.326,48.7497 82.5,48.5C 87.4783,46.2707 90.8116,47.604 92.5,52.5 Z"/></g>
<g><path style="opacity:0.076" fill="#4bb7c0" d="M 115.5,63.5 C 115.534,58.8844 113.867,55.2177 110.5,52.5C 114.537,49.6467 119.037,47.6467 124,46.5C 125.711,46.4393 127.044,47.1059 128,48.5C 129.039,50.7463 130.206,52.913 131.5,55C 126.298,58.1006 120.965,60.9339 115.5,63.5 Z"/></g>
<g><path style="opacity:0.369" fill="#61ced7" d="M 110.5,52.5 C 113.867,55.2177 115.534,58.8844 115.5,63.5C 112.167,65.1667 108.833,66.8333 105.5,68.5C 105.263,65.3527 104.43,62.3527 103,59.5C 101.644,58.6198 100.144,58.2865 98.5,58.5C 102.182,55.9922 106.182,53.9922 110.5,52.5 Z"/></g>
<g><path style="opacity:0.878" fill="#9feff4" d="M 77.5,51.5 C 76.8799,55.5548 78.8799,57.5548 83.5,57.5C 80.039,60.0692 76.3723,62.4026 72.5,64.5C 69.2447,64.9864 66.578,63.9864 64.5,61.5C 64.8627,60.8165 65.1961,60.1499 65.5,59.5C 68.8033,55.8442 72.8033,53.1775 77.5,51.5 Z"/></g>
<g><path style="opacity:0.207" fill="#5fccd4" d="M 161.5,40.5 C 159.888,47.8923 162.555,50.2257 169.5,47.5C 169.116,52.0102 168.449,56.3435 167.5,60.5C 164.385,62.1774 161.718,61.8441 159.5,59.5C 159.586,52.9635 160.253,46.6301 161.5,40.5 Z"/></g>
<g><path style="opacity:0.568" fill="#80e2e9" d="M 98.5,58.5 C 100.144,58.2865 101.644,58.6198 103,59.5C 104.43,62.3527 105.263,65.3527 105.5,68.5C 101.966,70.7664 98.2996,72.7664 94.5,74.5C 94.2634,71.3527 93.4301,68.3527 92,65.5C 90.9887,64.6634 89.8221,64.33 88.5,64.5C 91.4937,62.0002 94.827,60.0002 98.5,58.5 Z"/></g>
<g><path style="opacity:0.836" fill="#8fe9ef" d="M 65.5,59.5 C 65.1961,60.1499 64.8627,60.8165 64.5,61.5C 66.578,63.9864 69.2447,64.9864 72.5,64.5C 67.8576,68.136 63.1909,71.8027 58.5,75.5C 56.264,74.6109 54.264,73.2776 52.5,71.5C 54.2779,70.2742 55.2779,68.6075 55.5,66.5C 58.5127,63.6644 61.846,61.3311 65.5,59.5 Z"/></g>
<g><path style="opacity:0.007" fill="#52bdc3" d="M 141.5,61.5 C 146.186,60.984 148.519,62.984 148.5,67.5C 145.545,66.8413 142.545,66.5079 139.5,66.5C 139.392,64.4862 140.058,62.8195 141.5,61.5 Z"/></g>
<g><path style="opacity:0.077" fill="#4bb7c0" d="M 159.5,59.5 C 161.718,61.8441 164.385,62.1774 167.5,60.5C 167.361,66.0018 166.361,71.3352 164.5,76.5C 162.257,77.4742 159.924,77.8076 157.5,77.5C 157.276,71.2614 157.943,65.2614 159.5,59.5 Z"/></g>
<g><path style="opacity:0.877" fill="#9aeef3" d="M 88.5,64.5 C 89.8221,64.33 90.9887,64.6634 92,65.5C 93.4301,68.3527 94.2634,71.3527 94.5,74.5C 93.1007,75.8897 91.4341,76.8897 89.5,77.5C 89.2634,74.3527 88.4301,71.3527 87,68.5C 85.5861,67.5868 84.0861,67.5868 82.5,68.5C 84.1475,66.6736 86.1475,65.3403 88.5,64.5 Z"/></g>
<g><path style="opacity:0.996" fill="#abf5f8" d="M 89.5,77.5 C 87.4687,79.5224 85.1354,81.1891 82.5,82.5C 81.1779,82.67 80.0113,82.3366 79,81.5C 78.7787,84.9431 77.7787,85.2764 76,82.5C 72.8976,78.7894 73.0643,75.4561 76.5,72.5C 78.1475,70.6736 80.1475,69.3403 82.5,68.5C 84.0861,67.5868 85.5861,67.5868 87,68.5C 88.4301,71.3527 89.2634,74.3527 89.5,77.5 Z"/></g>
<g><path style="opacity:0.016" fill="#51bcc3" d="M 146.5,88.5 C 146.53,87.5028 146.03,86.8361 145,86.5C 141.906,85.4345 138.74,84.7678 135.5,84.5C 135.45,80.6808 136.616,77.3475 139,74.5C 141.351,75.7143 143.851,76.5477 146.5,77C 147.821,80.9341 147.821,84.7674 146.5,88.5 Z"/></g>
<g><path style="opacity:0.884" fill="#99ebf0" d="M 76.5,72.5 C 73.0643,75.4561 72.8976,78.7894 76,82.5C 77.7787,85.2764 78.7787,84.9431 79,81.5C 80.0113,82.3366 81.1779,82.67 82.5,82.5C 80.011,85.4734 76.8443,87.4734 73,88.5C 67.6706,86.7971 66.0039,83.4637 68,78.5C 70.6287,76.1118 73.462,74.1118 76.5,72.5 Z"/></g>
<g><path style="opacity:0.078" fill="#4bb7c0" d="M 105.5,95.5 C 105.318,90.5455 106.652,86.0455 109.5,82C 109.164,80.9701 108.497,80.4701 107.5,80.5C 110.4,78.4654 113.566,76.7987 117,75.5C 117.5,76 118,76.5 118.5,77C 115.541,81.7512 112.707,86.5845 110,91.5C 108.629,93.0414 107.129,94.3747 105.5,95.5 Z"/></g>
<g><path style="opacity:0.39" fill="#6ed8df" d="M 55.5,66.5 C 55.2779,68.6075 54.2779,70.2742 52.5,71.5C 54.264,73.2776 56.264,74.6109 58.5,75.5C 55.5,79.5 52.5,83.5 49.5,87.5C 47.4357,87.313 45.4357,86.813 43.5,86C 42.6634,84.9887 42.33,83.8221 42.5,82.5C 45.3981,76.0581 49.7314,70.7248 55.5,66.5 Z"/></g>
<g><path style="opacity:0.263" fill="#59c7d0" d="M 107.5,80.5 C 108.497,80.4701 109.164,80.9701 109.5,82C 106.652,86.0455 105.318,90.5455 105.5,95.5C 103.668,96.2485 102.001,97.2485 100.5,98.5C 101.08,94.19 101.414,89.8566 101.5,85.5C 100.5,85.5 99.5,85.5 98.5,85.5C 101.008,83.0764 104.008,81.4097 107.5,80.5 Z"/></g>
<g><path style="opacity:0.017" fill="#51bcc3" d="M 124.5,91.5 C 122.692,91.4914 121.025,91.9914 119.5,93C 116.621,95.3852 113.621,97.5518 110.5,99.5C 110.491,97.6916 110.991,96.0249 112,94.5C 116.341,91.3249 120.174,87.6582 123.5,83.5C 124.48,86.0865 124.813,88.7531 124.5,91.5 Z"/></g>
<g><path style="opacity:0.077" fill="#49b6be" d="M 135.5,84.5 C 138.74,84.7678 141.906,85.4345 145,86.5C 146.03,86.8361 146.53,87.5028 146.5,88.5C 146.128,94.7324 145.128,100.732 143.5,106.5C 143.785,104.712 143.452,103.045 142.5,101.5C 139.34,99.9733 136.007,99.3067 132.5,99.5C 133.392,94.4794 134.392,89.4794 135.5,84.5 Z"/></g>
<g><path style="opacity:0.513" fill="#71dae2" d="M 98.5,85.5 C 99.5,85.5 100.5,85.5 101.5,85.5C 101.414,89.8566 101.08,94.19 100.5,98.5C 99.5,99.1667 98.5,99.8333 97.5,100.5C 97.1046,97.3138 96.1046,94.3138 94.5,91.5C 93.3112,90.5713 91.9778,90.238 90.5,90.5C 92.822,88.336 95.4887,86.6693 98.5,85.5 Z"/></g>
<g><path style="opacity:0.074" fill="#4bb7c0" d="M 160.5,103.5 C 160.5,101.833 160.5,100.167 160.5,98.5C 157.833,98.5 155.167,98.5 152.5,98.5C 153.349,93.7551 154.516,89.0884 156,84.5C 158.381,83.565 160.881,83.2317 163.5,83.5C 163.344,90.4224 162.344,97.0891 160.5,103.5 Z"/></g>
<g><path style="opacity:0.079" fill="#49b5be" d="M 124.5,91.5 C 123.478,97.9871 122.145,104.32 120.5,110.5C 120.5,108.833 120.5,107.167 120.5,105.5C 116.187,104.99 112.187,105.657 108.5,107.5C 108.963,104.67 109.629,102.003 110.5,99.5C 113.621,97.5518 116.621,95.3852 119.5,93C 121.025,91.9914 122.692,91.4914 124.5,91.5 Z"/></g>
<g><path style="opacity:0.693" fill="#85e6eb" d="M 90.5,90.5 C 91.9778,90.238 93.3112,90.5713 94.5,91.5C 96.1046,94.3138 97.1046,97.3138 97.5,100.5C 95.8058,101.527 94.4725,102.861 93.5,104.5C 93.7035,102.61 93.0368,101.11 91.5,100C 89.3359,99.0857 87.3359,97.919 85.5,96.5C 84.5832,97.1272 83.5832,97.4606 82.5,97.5C 84.5691,94.4275 87.2358,92.0941 90.5,90.5 Z"/></g>
<g><path style="opacity:0.134" fill="#52c1ca" d="M 42.5,82.5 C 42.33,83.8221 42.6634,84.9887 43.5,86C 45.4357,86.813 47.4357,87.313 49.5,87.5C 46.5156,92.4518 44.5156,97.7852 43.5,103.5C 42.8826,103.611 42.3826,103.944 42,104.5C 39.9633,102.294 37.7966,100.294 35.5,98.5C 36.6908,92.5691 39.0241,87.2357 42.5,82.5 Z"/></g>
<g><path style="opacity:0.121" fill="#51bfc8" d="M 67.5,101.5 C 64.8589,100.737 62.1922,100.57 59.5,101C 57.9471,103.655 56.7804,106.488 56,109.5C 55.2303,110.598 54.397,110.598 53.5,109.5C 53.4547,104.072 54.7881,99.0723 57.5,94.5C 64.4198,91.3859 67.7531,93.7193 67.5,101.5 Z"/></g>
<g><path style="opacity:0.22" fill="#59c7d0" d="M 152.5,98.5 C 155.167,98.5 157.833,98.5 160.5,98.5C 160.5,100.167 160.5,101.833 160.5,103.5C 160.451,107.078 159.785,110.411 158.5,113.5C 158.5,111.167 158.5,108.833 158.5,106.5C 155.487,106.107 152.82,106.774 150.5,108.5C 151.294,105.198 151.96,101.865 152.5,98.5 Z"/></g>
<g><path style="opacity:0.078" fill="#48b5bd" d="M 67.5,101.5 C 66.6814,103.772 66.0147,106.106 65.5,108.5C 63.406,113.526 61.906,118.859 61,124.5C 60.5017,126.544 59.335,127.878 57.5,128.5C 54.748,122.489 53.4147,116.155 53.5,109.5C 54.397,110.598 55.2303,110.598 56,109.5C 56.7804,106.488 57.9471,103.655 59.5,101C 62.1922,100.57 64.8589,100.737 67.5,101.5 Z"/></g>
<g><path style="opacity:0.839" fill="#95ecf1" d="M 93.5,104.5 C 92.1667,107.167 92.1667,109.833 93.5,112.5C 92.8333,112.167 92.1667,111.833 91.5,111.5C 91.5,109.167 91.5,106.833 91.5,104.5C 88.2158,104.277 85.0491,103.61 82,102.5C 81.3333,103.167 80.6667,103.833 80,104.5C 79.5017,107.817 79.335,111.15 79.5,114.5C 78.3567,111.024 78.1901,107.358 79,103.5C 79.5995,101.09 80.7662,99.0904 82.5,97.5C 83.5832,97.4606 84.5832,97.1272 85.5,96.5C 87.3359,97.919 89.3359,99.0857 91.5,100C 93.0368,101.11 93.7035,102.61 93.5,104.5 Z"/></g>
<g><path style="opacity:0.087" fill="#48b4bd" d="M 35.5,98.5 C 37.7966,100.294 39.9633,102.294 42,104.5C 42.3826,103.944 42.8826,103.611 43.5,103.5C 42.6576,108.787 42.3243,114.12 42.5,119.5C 39.2327,117.573 36.2327,115.239 33.5,112.5C 33.5226,107.703 34.1892,103.036 35.5,98.5 Z"/></g>
<g><path style="opacity:0.272" fill="#58c7d0" d="M 132.5,99.5 C 136.007,99.3067 139.34,99.9733 142.5,101.5C 143.452,103.045 143.785,104.712 143.5,106.5C 143.451,110.078 142.785,113.411 141.5,116.5C 141.5,114.167 141.5,111.833 141.5,109.5C 138.762,109.149 136.096,108.482 133.5,107.5C 132.482,108.193 131.482,108.859 130.5,109.5C 131.294,106.198 131.96,102.865 132.5,99.5 Z"/></g>
<g><path style="opacity:0.939" fill="#a4f3f6" d="M 91.5,111.5 C 88.0626,112.134 84.8959,113.467 82,115.5C 81.8648,117.922 82.3648,120.255 83.5,122.5C 81.127,120.421 79.7936,117.754 79.5,114.5C 79.335,111.15 79.5017,107.817 80,104.5C 80.6667,103.833 81.3333,103.167 82,102.5C 85.0491,103.61 88.2158,104.277 91.5,104.5C 91.5,106.833 91.5,109.167 91.5,111.5 Z"/></g>
<g><path style="opacity:0.017" fill="#51bcc3" d="M 65.5,108.5 C 65.7251,114.626 66.7251,120.626 68.5,126.5C 67.0932,140.376 63.4265,141.043 57.5,128.5C 59.335,127.878 60.5017,126.544 61,124.5C 61.906,118.859 63.406,113.526 65.5,108.5 Z"/></g>
<g><path style="opacity:0.996" fill="#aef6f9" d="M 91.5,111.5 C 92.1667,111.833 92.8333,112.167 93.5,112.5C 93.5,113.167 93.8333,113.5 94.5,113.5C 95.0867,117.404 94.0867,121.071 91.5,124.5C 89.5405,125.519 87.5405,125.519 85.5,124.5C 84.5,124.167 83.8333,123.5 83.5,122.5C 82.3648,120.255 81.8648,117.922 82,115.5C 84.8959,113.467 88.0626,112.134 91.5,111.5 Z"/></g>
<g><path style="opacity:0.016" fill="#51bcc3" d="M 33.5,112.5 C 36.2327,115.239 39.2327,117.573 42.5,119.5C 43.5451,122.769 44.0451,126.102 44,129.5C 42.5124,131.82 40.6791,131.987 38.5,130C 35.0872,124.732 33.4205,118.899 33.5,112.5 Z"/></g>
<g><path style="opacity:0.352" fill="#5fcdd6" d="M 120.5,110.5 C 120.41,114.214 119.41,117.548 117.5,120.5C 116.196,115.492 112.862,112.825 107.5,112.5C 107.629,110.784 107.962,109.117 108.5,107.5C 112.187,105.657 116.187,104.99 120.5,105.5C 120.5,107.167 120.5,108.833 120.5,110.5 Z"/></g>
<g><path style="opacity:0.559" fill="#81e3e9" d="M 158.5,113.5 C 159.262,119.899 156.595,122.733 150.5,122C 149.57,120.806 148.903,119.473 148.5,118C 149.361,114.863 150.027,111.697 150.5,108.5C 152.82,106.774 155.487,106.107 158.5,106.5C 158.5,108.833 158.5,111.167 158.5,113.5 Z"/></g>
<g><path style="opacity:0.496" fill="#76dde4" d="M 107.5,112.5 C 112.862,112.825 116.196,115.492 117.5,120.5C 116.478,123.522 114.478,125.522 111.5,126.5C 111.12,123.255 109.953,120.255 108,117.5C 106.89,115.963 105.39,115.297 103.5,115.5C 104.795,114.512 106.128,113.512 107.5,112.5 Z"/></g>
<g><path style="opacity:0.473" fill="#6dd7df" d="M 141.5,116.5 C 141.258,120.479 140.258,124.146 138.5,127.5C 138.739,125.533 138.406,123.699 137.5,122C 134.577,120.161 131.577,119.661 128.5,120.5C 129.008,116.803 129.674,113.136 130.5,109.5C 131.482,108.859 132.482,108.193 133.5,107.5C 136.096,108.482 138.762,109.149 141.5,109.5C 141.5,111.833 141.5,114.167 141.5,116.5 Z"/></g>
<g><path style="opacity:0.969" fill="#a4f2f6" d="M 94.5,113.5 C 95.5,114.167 96.5,114.833 97.5,115.5C 97.5,116.167 97.8333,116.5 98.5,116.5C 98.6653,120.182 98.4986,123.848 98,127.5C 95.2501,128.291 92.4168,128.291 89.5,127.5C 87.5956,127.262 86.2623,126.262 85.5,124.5C 87.5405,125.519 89.5405,125.519 91.5,124.5C 94.0867,121.071 95.0867,117.404 94.5,113.5 Z"/></g>
<g><path style="opacity:0.694" fill="#8ae8ed" d="M 97.5,115.5 C 99.5,115.5 101.5,115.5 103.5,115.5C 105.39,115.297 106.89,115.963 108,117.5C 109.953,120.255 111.12,123.255 111.5,126.5C 106.277,130.319 100.611,131.319 94.5,129.5C 98.2148,129.577 101.881,129.244 105.5,128.5C 105.143,124.737 104.31,121.07 103,117.5C 101.644,116.62 100.144,116.286 98.5,116.5C 97.8333,116.5 97.5,116.167 97.5,115.5 Z"/></g>
<g><path style="opacity:0.862" fill="#9cf0f4" d="M 98.5,116.5 C 100.144,116.286 101.644,116.62 103,117.5C 104.31,121.07 105.143,124.737 105.5,128.5C 101.881,129.244 98.2148,129.577 94.5,129.5C 92.4471,129.598 90.7804,128.931 89.5,127.5C 92.4168,128.291 95.2501,128.291 98,127.5C 98.4986,123.848 98.6653,120.182 98.5,116.5 Z"/></g>
<g><path style="opacity:0.694" fill="#84e5ea" d="M 138.5,127.5 C 138.104,130.721 136.771,133.388 134.5,135.5C 134.149,131.299 131.983,128.299 128,126.5C 127.292,127.381 126.458,128.047 125.5,128.5C 126.129,125.603 127.129,122.936 128.5,120.5C 131.577,119.661 134.577,120.161 137.5,122C 138.406,123.699 138.739,125.533 138.5,127.5 Z"/></g>
<g><path style="opacity:0.874" fill="#99edf2" d="M 134.5,135.5 C 132.889,139.051 130.556,142.051 127.5,144.5C 127.453,141.072 126.287,138.072 124,135.5C 122.586,134.587 121.086,134.587 119.5,135.5C 121.273,132.94 123.273,130.607 125.5,128.5C 126.458,128.047 127.292,127.381 128,126.5C 131.983,128.299 134.149,131.299 134.5,135.5 Z"/></g>
<g><path style="opacity:0.016" fill="#51bcc3" d="M 85.5,140.5 C 82.3624,142.917 80.6958,146.25 80.5,150.5C 71.1622,147.948 69.8288,142.948 76.5,135.5C 79.7554,136.955 82.7554,138.622 85.5,140.5 Z"/></g>
<g><path style="opacity:0.996" fill="#adf6f9" d="M 127.5,144.5 C 126.5,145.167 125.5,145.833 124.5,146.5C 122.549,146.773 121.049,146.107 120,144.5C 119.443,142.385 118.609,140.385 117.5,138.5C 118.193,137.482 118.859,136.482 119.5,135.5C 121.086,134.587 122.586,134.587 124,135.5C 126.287,138.072 127.453,141.072 127.5,144.5 Z"/></g>
<g><path style="opacity:0.94" fill="#a0f0f4" d="M 119.5,135.5 C 118.859,136.482 118.193,137.482 117.5,138.5C 118.609,140.385 119.443,142.385 120,144.5C 121.049,146.107 122.549,146.773 124.5,146.5C 122.664,148.588 120.331,149.921 117.5,150.5C 115.549,150.773 114.049,150.107 113,148.5C 112.264,145.408 112.431,142.408 113.5,139.5C 115.223,137.782 117.223,136.449 119.5,135.5 Z"/></g>
<g><path style="opacity:0.077" fill="#4cb9c2" d="M 85.5,140.5 C 90.0334,141.984 94.7001,142.65 99.5,142.5C 97.4965,146.164 96.4965,150.164 96.5,154.5C 98.5,154.5 100.5,154.5 102.5,154.5C 97.9683,155.533 93.3016,155.366 88.5,154C 85.4006,153.613 82.734,152.446 80.5,150.5C 80.6958,146.25 82.3624,142.917 85.5,140.5 Z"/></g>
<g><path style="opacity:0.68" fill="#8ce9ee" d="M 113.5,139.5 C 112.431,142.408 112.264,145.408 113,148.5C 114.049,150.107 115.549,150.773 117.5,150.5C 116.07,151.537 114.403,152.204 112.5,152.5C 110.5,152.5 108.5,152.5 106.5,152.5C 106.036,148.498 106.702,144.831 108.5,141.5C 109.93,140.463 111.597,139.796 113.5,139.5 Z"/></g>
<g><path style="opacity:0.077" fill="#4fbcc4" d="M 138.5,159.5 C 137.758,157.574 136.758,155.741 135.5,154C 134.181,153.805 132.847,153.972 131.5,154.5C 134.997,150.834 138.331,147.001 141.5,143C 147.667,141.167 149.833,143.333 148,149.5C 145.332,153.334 142.165,156.667 138.5,159.5 Z"/></g>
<g><path style="opacity:0.474" fill="#6fd9e0" d="M 108.5,141.5 C 106.702,144.831 106.036,148.498 106.5,152.5C 108.5,152.5 110.5,152.5 112.5,152.5C 109.456,154.011 106.122,154.678 102.5,154.5C 100.5,154.5 98.5,154.5 96.5,154.5C 96.4965,150.164 97.4965,146.164 99.5,142.5C 102.518,142.296 105.518,141.963 108.5,141.5 Z"/></g>
<g><path style="opacity:0.017" fill="#52bdc3" d="M 55.5,153.5 C 59.4738,153.15 62.1404,154.817 63.5,158.5C 61.1207,163.97 57.9541,164.637 54,160.5C 53.1668,157.829 53.6668,155.496 55.5,153.5 Z"/></g>
<g><path style="opacity:0.802" fill="#8ae6ec" d="M 138.5,159.5 C 134.366,164.293 129.366,167.96 123.5,170.5C 124.167,165.167 121.833,162.833 116.5,163.5C 121.719,160.965 126.719,157.965 131.5,154.5C 132.847,153.972 134.181,153.805 135.5,154C 136.758,155.741 137.758,157.574 138.5,159.5 Z"/></g>
<g><path style="opacity:0.075" fill="#4cb8c0" d="M 82.5,166.5 C 81.5041,166.414 80.6708,166.748 80,167.5C 79.338,169.813 78.838,172.146 78.5,174.5C 73.1238,173.312 68.4571,170.812 64.5,167C 65.785,164.577 67.6183,162.744 70,161.5C 74.1581,163.49 78.3248,165.157 82.5,166.5 Z"/></g>
<g><path style="opacity:0.957" fill="#a3f2f6" d="M 116.5,163.5 C 121.833,162.833 124.167,165.167 123.5,170.5C 117.858,173.38 111.858,175.046 105.5,175.5C 100.819,175.124 99.4854,172.791 101.5,168.5C 103.026,168.006 104.359,167.339 105.5,166.5C 109.211,165.656 112.877,164.656 116.5,163.5 Z"/></g>
<g><path style="opacity:0.397" fill="#62cfd8" d="M 82.5,166.5 C 85.2788,166.279 87.9455,166.612 90.5,167.5C 88.255,170.223 87.9217,173.223 89.5,176.5C 85.7785,176.089 82.1119,175.422 78.5,174.5C 78.838,172.146 79.338,169.813 80,167.5C 80.6708,166.748 81.5041,166.414 82.5,166.5 Z"/></g>
<g><path style="opacity:0.749" fill="#87e6ec" d="M 105.5,166.5 C 104.359,167.339 103.026,168.006 101.5,168.5C 99.4854,172.791 100.819,175.124 105.5,175.5C 100.36,176.488 95.0262,176.821 89.5,176.5C 87.9217,173.223 88.255,170.223 90.5,167.5C 95.5365,167.587 100.537,167.254 105.5,166.5 Z"/></g>
</svg>
