<?xml version="1.0" encoding="UTF-8"?>
<!DOCTYPE svg PUBLIC "-//W3C//DTD SVG 1.1//EN" "http://www.w3.org/Graphics/SVG/1.1/DTD/svg11.dtd">
<svg xmlns="http://www.w3.org/2000/svg" version="1.1" width="188px" height="188px" style="shape-rendering:geometricPrecision; text-rendering:geometricPrecision; image-rendering:optimizeQuality; fill-rule:evenodd; clip-rule:evenodd" xmlns:xlink="http://www.w3.org/1999/xlink">
<g><path style="opacity:0.995" fill="#a3f2f6" d="M 168.5,25.5 C 168.5,27.1667 168.5,28.8333 168.5,30.5C 165.763,30.5987 163.096,30.2653 160.5,29.5C 158.519,24.6716 154.852,22.6716 149.5,23.5C 147.833,23.5 146.167,23.5 144.5,23.5C 143.829,20.014 144.829,17.3473 147.5,15.5C 155.051,13.5131 161.551,15.5131 167,21.5C 167.791,22.745 168.291,24.0783 168.5,25.5 Z"/></g>
<g><path style="opacity:0.396" fill="#71d9e1" d="M 147.5,15.5 C 144.829,17.3473 143.829,20.014 144.5,23.5C 146.167,23.5 147.833,23.5 149.5,23.5C 145.332,25.3383 140.998,27.005 136.5,28.5C 135.5,28.5 134.5,28.5 133.5,28.5C 133.279,25.7212 133.612,23.0545 134.5,20.5C 138.395,17.8655 142.728,16.1988 147.5,15.5 Z"/></g>
<g><path style="opacity:0.211" fill="#52c1ca" d="M 134.5,20.5 C 133.612,23.0545 133.279,25.7212 133.5,28.5C 134.5,28.5 135.5,28.5 136.5,28.5C 133.502,30.666 130.168,32.3326 126.5,33.5C 122.092,31.6362 121.425,28.8028 124.5,25C 127.736,23.2138 131.07,21.7138 134.5,20.5 Z"/></g>
<g><path style="opacity:0.573" fill="#83e4ea" d="M 168.5,25.5 C 170.011,28.5443 170.678,31.8776 170.5,35.5C 169.694,36.9972 169.028,38.6639 168.5,40.5C 165.862,41.8332 163.529,41.4998 161.5,39.5C 161.747,36.0613 161.414,32.728 160.5,29.5C 163.096,30.2653 165.763,30.5987 168.5,30.5C 168.5,28.8333 168.5,27.1667 168.5,25.5 Z"/></g>
<g><path style="opacity:0.575" fill="#78dee5" d="M 103.5,45.5 C 101.73,41.3969 98.7304,40.0635 94.5,41.5C 98.9365,38.4411 103.603,35.6078 108.5,33C 114.667,31.1667 116.833,33.3333 115,39.5C 111.507,42.1632 107.673,44.1632 103.5,45.5 Z"/></g>
<g><path style="opacity:0.476" fill="#68d3db" d="M 170.5,35.5 C 170.002,40.1522 169.669,44.8189 169.5,49.5C 166.609,50.4025 163.609,50.7359 160.5,50.5C 160.244,46.7307 160.577,43.0641 161.5,39.5C 163.529,41.4998 165.862,41.8332 168.5,40.5C 169.028,38.6639 169.694,36.9972 170.5,35.5 Z"/></g>
<g><path style="opacity:0.807" fill="#8de9ed" d="M 103.5,45.5 C 100.039,48.0692 96.3723,50.4026 92.5,52.5C 91.6802,48.8997 89.3469,46.8997 85.5,46.5C 88.0078,44.0764 91.0078,42.4097 94.5,41.5C 98.7304,40.0635 101.73,41.3969 103.5,45.5 Z"/></g>
<g><path style="opacity:0.095" fill="#4cb8c1" d="M 135.5,41.5 C 144.818,41.6546 146.818,45.488 141.5,53C 137.28,54.8064 132.947,55.8064 128.5,56C 126.701,52.9238 125.534,49.7571 125,46.5C 128.457,44.5263 131.957,42.8596 135.5,41.5 Z"/></g>
<g><path style="opacity:0.924" fill="#9eeff3" d="M 85.5,46.5 C 89.3469,46.8997 91.6802,48.8997 92.5,52.5C 87.806,55.1785 83.1393,57.8452 78.5,60.5C 76.8605,56.1813 73.8605,54.8479 69.5,56.5C 74.4888,52.6692 79.8222,49.3359 85.5,46.5 Z"/></g>
<g><path style="opacity:0.094" fill="#4db9c2" d="M 105.5,68.5 C 104.438,65.4844 103.271,62.4844 102,59.5C 100.989,58.6634 99.8221,58.33 98.5,58.5C 104.269,54.8665 110.436,51.8665 117,49.5C 119.765,52.364 121.432,55.6974 122,59.5C 116.393,62.3853 110.893,65.3853 105.5,68.5 Z"/></g>
<g><path style="opacity:0.1" fill="#4db9c2" d="M 169.5,49.5 C 168.821,55.5985 167.655,61.5985 166,67.5C 163.619,68.435 161.119,68.7683 158.5,68.5C 158.652,62.3015 159.318,56.3015 160.5,50.5C 163.609,50.7359 166.609,50.4025 169.5,49.5 Z"/></g>
<g><path style="opacity:0.996" fill="#a8f3f6" d="M 78.5,60.5 C 73.7156,64.399 68.7156,68.0657 63.5,71.5C 59.719,71.7037 57.3857,70.037 56.5,66.5C 60.2577,62.4078 64.591,59.0745 69.5,56.5C 73.8605,54.8479 76.8605,56.1813 78.5,60.5 Z"/></g>
<g><path style="opacity:0.369" fill="#66d2da" d="M 98.5,58.5 C 99.8221,58.33 100.989,58.6634 102,59.5C 103.271,62.4844 104.438,65.4844 105.5,68.5C 102.167,70.5 98.8333,72.5 95.5,74.5C 95.7706,69.3584 93.7706,65.6917 89.5,63.5C 92.331,61.5832 95.331,59.9166 98.5,58.5 Z"/></g>
<g><path style="opacity:0.744" fill="#88e7ec" d="M 89.5,63.5 C 93.7706,65.6917 95.7706,69.3584 95.5,74.5C 92.6339,76.4325 89.6339,78.0991 86.5,79.5C 86.7965,76.2761 86.1298,73.2761 84.5,70.5C 82.9052,69.5661 81.2385,69.5661 79.5,70.5C 82.4459,67.6869 85.7792,65.3535 89.5,63.5 Z"/></g>
<g><path style="opacity:0.872" fill="#9beef3" d="M 86.5,79.5 C 84.4504,81.5475 82.117,83.2141 79.5,84.5C 79.8812,80.4498 78.8812,76.7831 76.5,73.5C 75.5832,74.1272 74.5832,74.4606 73.5,74.5C 75.1475,72.6736 77.1475,71.3403 79.5,70.5C 81.2385,69.5661 82.9052,69.5661 84.5,70.5C 86.1298,73.2761 86.7965,76.2761 86.5,79.5 Z"/></g>
<g><path style="opacity:0.052" fill="#51bcc3" d="M 148.5,79.5 C 147.566,78.4324 147.232,77.099 147.5,75.5C 144.797,75.0445 142.13,74.3779 139.5,73.5C 138.416,73.685 137.416,74.0183 136.5,74.5C 136.731,70.2352 138.064,66.4019 140.5,63C 146.182,61.5198 149.182,63.6865 149.5,69.5C 148.947,72.8167 148.614,76.15 148.5,79.5 Z"/></g>
<g><path style="opacity:0.805" fill="#93ebf0" d="M 56.5,66.5 C 57.3857,70.037 59.719,71.7037 63.5,71.5C 58.8206,75.1804 54.8206,79.5138 51.5,84.5C 47.3617,84.0268 45.3617,81.6935 45.5,77.5C 48.188,72.8119 51.8547,69.1453 56.5,66.5 Z"/></g>
<g><path style="opacity:0.075" fill="#45b2bb" d="M 148.5,79.5 C 148.371,81.2161 148.038,82.8828 147.5,84.5C 143.678,82.8779 139.678,81.8779 135.5,81.5C 135.993,79.1944 136.326,76.861 136.5,74.5C 137.416,74.0183 138.416,73.685 139.5,73.5C 142.13,74.3779 144.797,75.0445 147.5,75.5C 147.232,77.099 147.566,78.4324 148.5,79.5 Z"/></g>
<g><path style="opacity:0.072" fill="#4ebac3" d="M 105.5,95.5 C 105.933,92.8344 106.433,90.1677 107,87.5C 109.238,85.6909 110.405,83.3576 110.5,80.5C 109.5,80.5 108.5,80.5 107.5,80.5C 111.66,77.5498 116.327,75.5498 121.5,74.5C 124.065,74.8991 125.399,76.3991 125.5,79C 125.079,81.1846 124.579,83.3513 124,85.5C 120.115,89.5197 115.948,93.1864 111.5,96.5C 110.833,95.5 110.167,94.5 109.5,93.5C 108.14,94.1799 106.807,94.8466 105.5,95.5 Z"/></g>
<g><path style="opacity:0.996" fill="#a9f3f7" d="M 79.5,84.5 C 74.0144,90.2905 69.6811,89.4572 66.5,82C 67.6297,78.3705 69.963,75.8705 73.5,74.5C 74.5832,74.4606 75.5832,74.1272 76.5,73.5C 78.8812,76.7831 79.8812,80.4498 79.5,84.5 Z"/></g>
<g><path style="opacity:0.072" fill="#4ebac2" d="M 161.5,97.5 C 161.5,95.8333 161.5,94.1667 161.5,92.5C 158.721,92.2786 156.054,92.612 153.5,93.5C 154.449,87.4249 155.782,81.4249 157.5,75.5C 159.765,74.3526 162.098,74.1859 164.5,75C 165.022,75.5613 165.355,76.228 165.5,77C 164.479,84.0255 163.146,90.8588 161.5,97.5 Z"/></g>
<g><path style="opacity:0.582" fill="#77dee4" d="M 107.5,80.5 C 108.5,80.5 109.5,80.5 110.5,80.5C 110.405,83.3576 109.238,85.6909 107,87.5C 106.433,90.1677 105.933,92.8344 105.5,95.5C 103.668,96.2485 102.001,97.2485 100.5,98.5C 101.097,93.706 100.43,89.3727 98.5,85.5C 101.008,83.0764 104.008,81.4097 107.5,80.5 Z"/></g>
<g><path style="opacity:0.243" fill="#54c2cc" d="M 135.5,81.5 C 139.678,81.8779 143.678,82.8779 147.5,84.5C 147.02,90.3856 146.02,96.0522 144.5,101.5C 144.5,99.1667 144.5,96.8333 144.5,94.5C 141.687,94.4519 139.021,93.7853 136.5,92.5C 135.265,93.3398 134.265,94.3398 133.5,95.5C 134.167,90.8333 134.833,86.1667 135.5,81.5 Z"/></g>
<g><path style="opacity:0.405" fill="#73dbe2" d="M 45.5,77.5 C 45.3617,81.6935 47.3617,84.0268 51.5,84.5C 48.6394,88.8878 46.3061,93.5545 44.5,98.5C 39.2282,100.24 36.8949,98.2398 37.5,92.5C 38.8833,86.729 41.5499,81.729 45.5,77.5 Z"/></g>
<g><path style="opacity:0.877" fill="#98eef2" d="M 98.5,85.5 C 100.43,89.3727 101.097,93.706 100.5,98.5C 96.8053,100.195 94.1387,102.861 92.5,106.5C 92.4155,101.575 89.9155,98.5754 85,97.5C 83.6974,97.9783 82.5307,98.645 81.5,99.5C 85.3901,92.7157 91.0568,88.0491 98.5,85.5 Z"/></g>
<g><path style="opacity:0.962" fill="#a3f2f6" d="M 92.5,106.5 C 92.4095,109.152 93.0762,111.485 94.5,113.5C 94.5394,114.583 94.8728,115.583 95.5,116.5C 94,119.5 92.5,122.5 91,125.5C 89.9887,126.337 88.8221,126.67 87.5,126.5C 78.1338,118.994 76.1338,109.994 81.5,99.5C 82.5307,98.645 83.6974,97.9783 85,97.5C 89.9155,98.5754 92.4155,101.575 92.5,106.5 Z"/></g>
<g><path style="opacity:0.412" fill="#68d4dc" d="M 144.5,101.5 C 144.451,105.078 143.785,108.411 142.5,111.5C 144.495,103.328 141.495,100.494 133.5,103C 132.915,104.302 132.249,105.469 131.5,106.5C 131.911,102.779 132.578,99.1119 133.5,95.5C 134.265,94.3398 135.265,93.3398 136.5,92.5C 139.021,93.7853 141.687,94.4519 144.5,94.5C 144.5,96.8333 144.5,99.1667 144.5,101.5 Z"/></g>
<g><path style="opacity:0.486" fill="#6dd7de" d="M 161.5,97.5 C 161.246,103.095 160.246,108.428 158.5,113.5C 158.5,110.833 158.5,108.167 158.5,105.5C 153.76,104.921 151.094,106.921 150.5,111.5C 151.242,105.455 152.242,99.4552 153.5,93.5C 156.054,92.612 158.721,92.2786 161.5,92.5C 161.5,94.1667 161.5,95.8333 161.5,97.5 Z"/></g>
<g><path style="opacity:0.225" fill="#55c4ce" d="M 67.5,101.5 C 67.5,102.167 67.1667,102.5 66.5,102.5C 65.5416,102.953 64.7083,103.619 64,104.5C 62.1135,111.325 59.9468,117.991 57.5,124.5C 56.8182,123.757 56.1515,123.091 55.5,122.5C 54.0776,118.761 53.4109,114.761 53.5,110.5C 53.5034,107.975 53.8367,105.641 54.5,103.5C 54.3439,119.066 56.1772,119.066 60,103.5C 62.1354,101.722 64.6354,101.055 67.5,101.5 Z"/></g>
<g><path style="opacity:0.996" fill="#aff6f9" d="M 80.5,101.5 C 84.2488,101.751 87.9155,102.417 91.5,103.5C 91.7564,105.792 91.4231,107.959 90.5,110C 87.3825,111.372 84.2158,112.538 81,113.5C 79.1759,109.561 79.0092,105.561 80.5,101.5 Z"/></g>
<g><path style="opacity:0.31" fill="#67d3db" d="M 67.5,101.5 C 64.6354,101.055 62.1354,101.722 60,103.5C 56.1772,119.066 54.3439,119.066 54.5,103.5C 54.0666,94.398 57.8999,91.398 66,94.5C 67.2022,96.6775 67.7022,99.0108 67.5,101.5 Z"/></g>
<g><path style="opacity:0.21" fill="#58c6d0" d="M 37.5,92.5 C 36.8949,98.2398 39.2282,100.24 44.5,98.5C 43.1807,104.419 42.514,110.419 42.5,116.5C 36.3611,115.965 33.6944,112.299 34.5,105.5C 34.4249,100.808 35.4249,96.4742 37.5,92.5 Z"/></g>
<g><path style="opacity:0.077" fill="#4cb8c1" d="M 117.5,120.5 C 117.714,118.856 117.38,117.356 116.5,116C 113.707,114.346 110.707,113.179 107.5,112.5C 108.14,109.135 108.974,105.802 110,102.5C 113.75,100.041 117.583,97.7078 121.5,95.5C 122.645,104.296 121.311,112.629 117.5,120.5 Z"/></g>
<g><path style="opacity:0.631" fill="#82e4e9" d="M 142.5,111.5 C 142.083,117.17 140.749,122.503 138.5,127.5C 138.341,120.869 135.007,118.536 128.5,120.5C 129.191,115.74 130.191,111.074 131.5,106.5C 132.249,105.469 132.915,104.302 133.5,103C 141.495,100.494 144.495,103.328 142.5,111.5 Z"/></g>
<g><path style="opacity:0.746" fill="#8ce9ee" d="M 94.5,113.5 C 95.5,114.167 96.5,114.833 97.5,115.5C 99.2184,116.224 101.052,116.891 103,117.5C 104.106,121.122 104.439,124.789 104,128.5C 100.943,129.451 97.7766,129.784 94.5,129.5C 91.7594,129.293 89.4261,128.293 87.5,126.5C 88.8221,126.67 89.9887,126.337 91,125.5C 92.5,122.5 94,119.5 95.5,116.5C 94.8728,115.583 94.5394,114.583 94.5,113.5 Z"/></g>
<g><path style="opacity:0.921" fill="#9beff3" d="M 158.5,113.5 C 159.262,119.899 156.595,122.733 150.5,122C 148.393,118.493 148.393,114.993 150.5,111.5C 151.094,106.921 153.76,104.921 158.5,105.5C 158.5,108.167 158.5,110.833 158.5,113.5 Z"/></g>
<g><path style="opacity:0.094" fill="#47b5be" d="M 34.5,105.5 C 33.6944,112.299 36.3611,115.965 42.5,116.5C 43.6126,121.118 44.1126,125.784 44,130.5C 41.9251,132.648 39.5918,132.982 37,131.5C 33.7474,122.917 32.9141,114.25 34.5,105.5 Z"/></g>
<g><path style="opacity:0.37" fill="#65d1d9" d="M 107.5,112.5 C 110.707,113.179 113.707,114.346 116.5,116C 117.38,117.356 117.714,118.856 117.5,120.5C 113.352,126.913 107.352,130.246 99.5,130.5C 97.6307,130.493 95.964,130.16 94.5,129.5C 97.7766,129.784 100.943,129.451 104,128.5C 104.439,124.789 104.106,121.122 103,117.5C 101.052,116.891 99.2184,116.224 97.5,115.5C 101.433,116.143 104.766,115.143 107.5,112.5 Z"/></g>
<g><path style="opacity:0.166" fill="#4cbbc5" d="M 66.5,102.5 C 65.9791,106.481 65.6458,110.481 65.5,114.5C 64.4817,119.726 63.1484,124.893 61.5,130C 61.1639,131.03 60.4972,131.53 59.5,131.5C 57.3754,128.912 56.0421,125.912 55.5,122.5C 56.1515,123.091 56.8182,123.757 57.5,124.5C 59.9468,117.991 62.1135,111.325 64,104.5C 64.7083,103.619 65.5416,102.953 66.5,102.5 Z"/></g>
<g><path style="opacity:0.074" fill="#48b4bc" d="M 65.5,114.5 C 66.7857,120.742 69.4524,126.408 73.5,131.5C 72.7618,135.715 71.4285,139.715 69.5,143.5C 67.629,143.141 66.129,142.141 65,140.5C 62.5173,137.861 60.684,134.861 59.5,131.5C 60.4972,131.53 61.1639,131.03 61.5,130C 63.1484,124.893 64.4817,119.726 65.5,114.5 Z"/></g>
<g><path style="opacity:0.873" fill="#97edf1" d="M 138.5,127.5 C 138.065,130.157 137.065,132.491 135.5,134.5C 134.91,129.243 131.91,126.243 126.5,125.5C 126.796,123.597 127.463,121.93 128.5,120.5C 135.007,118.536 138.341,120.869 138.5,127.5 Z"/></g>
<g><path style="opacity:0.996" fill="#aaf4f8" d="M 126.5,125.5 C 131.91,126.243 134.91,129.243 135.5,134.5C 134.189,137.135 132.522,139.469 130.5,141.5C 125.794,140.454 123.127,137.454 122.5,132.5C 123.806,130.184 125.139,127.85 126.5,125.5 Z"/></g>
<g><path style="opacity:0.013" fill="#5cc6cd" d="M 73.5,131.5 C 75.448,133.789 77.448,136.122 79.5,138.5C 78.4402,141.813 76.9402,144.813 75,147.5C 72.4945,147.006 70.6612,145.672 69.5,143.5C 71.4285,139.715 72.7618,135.715 73.5,131.5 Z"/></g>
<g><path style="opacity:0.876" fill="#9deff3" d="M 122.5,132.5 C 123.127,137.454 125.794,140.454 130.5,141.5C 128.2,143.984 125.533,145.984 122.5,147.5C 121.167,147.5 119.833,147.5 118.5,147.5C 118.145,144.933 117.479,142.433 116.5,140C 117.414,138.594 118.08,137.094 118.5,135.5C 119.833,134.5 121.167,133.5 122.5,132.5 Z"/></g>
<g><path style="opacity:0.575" fill="#7ee2e8" d="M 118.5,135.5 C 118.08,137.094 117.414,138.594 116.5,140C 117.479,142.433 118.145,144.933 118.5,147.5C 119.833,147.5 121.167,147.5 122.5,147.5C 119.765,150.201 116.431,151.868 112.5,152.5C 111.167,152.5 109.833,152.5 108.5,152.5C 108.5,148.833 108.5,145.167 108.5,141.5C 112.096,140.031 115.43,138.031 118.5,135.5 Z"/></g>
<g><path style="opacity:0.075" fill="#4db9c2" d="M 102.5,142.5 C 101.209,146.601 101.209,150.601 102.5,154.5C 101.551,155.152 100.385,155.486 99,155.5C 95.5,155 92,154.5 88.5,154C 86.522,153.519 85.1887,152.353 84.5,150.5C 85.0137,147.789 86.0137,145.289 87.5,143C 92.4889,142.501 97.4889,142.334 102.5,142.5 Z"/></g>
<g><path style="opacity:0.314" fill="#5dcbd4" d="M 108.5,141.5 C 108.5,145.167 108.5,148.833 108.5,152.5C 109.833,152.5 111.167,152.5 112.5,152.5C 109.456,154.011 106.122,154.678 102.5,154.5C 101.209,150.601 101.209,146.601 102.5,142.5C 104.435,141.85 106.435,141.517 108.5,141.5 Z"/></g>
<g><path style="opacity:0.252" fill="#59c7d0" d="M 143.5,154.5 C 142.879,151.879 141.212,150.212 138.5,149.5C 137.06,150.952 135.394,151.952 133.5,152.5C 136.866,148.467 140.533,144.8 144.5,141.5C 147.167,142.167 148.833,143.833 149.5,146.5C 147.966,149.593 145.966,152.26 143.5,154.5 Z"/></g>
<g><path style="opacity:0.733" fill="#87e6eb" d="M 143.5,154.5 C 140.5,158.167 137.167,161.5 133.5,164.5C 134.121,158.777 131.787,156.777 126.5,158.5C 128.808,156.529 131.142,154.529 133.5,152.5C 135.394,151.952 137.06,150.952 138.5,149.5C 141.212,150.212 142.879,151.879 143.5,154.5 Z"/></g>
<g><path style="opacity:0.053" fill="#4db9c1" d="M 54.5,153.5 C 56.5273,153.338 58.5273,153.505 60.5,154C 64.1575,156.658 67.4908,159.658 70.5,163C 69.3539,165.144 67.8539,166.977 66,168.5C 61.4664,166.633 57.4664,163.966 54,160.5C 52.1957,158.076 52.3624,155.743 54.5,153.5 Z"/></g>
<g><path style="opacity:0.996" fill="#a5f1f5" d="M 133.5,164.5 C 128.729,168.219 123.396,170.885 117.5,172.5C 115.5,172.5 113.5,172.5 111.5,172.5C 110.562,170.09 110.562,167.756 111.5,165.5C 116.542,163.369 121.542,161.036 126.5,158.5C 131.787,156.777 134.121,158.777 133.5,164.5 Z"/></g>
<g><path style="opacity:0.078" fill="#4db9c2" d="M 89.5,167.5 C 89.0914,170.855 89.7581,173.855 91.5,176.5C 84.4987,176.608 78.1654,174.775 72.5,171C 72.8319,168.113 74.1652,165.946 76.5,164.5C 80.9495,165.6 85.2828,166.6 89.5,167.5 Z"/></g>
<g><path style="opacity:0.54" fill="#79dee4" d="M 111.5,165.5 C 110.562,167.756 110.562,170.09 111.5,172.5C 113.5,172.5 115.5,172.5 117.5,172.5C 109.286,175.907 100.619,177.24 91.5,176.5C 89.7581,173.855 89.0914,170.855 89.5,167.5C 96.9118,167.605 104.245,166.938 111.5,165.5 Z"/></g>
</svg>
