<?xml version="1.0" encoding="UTF-8"?>
<!DOCTYPE svg PUBLIC "-//W3C//DTD SVG 1.1//EN" "http://www.w3.org/Graphics/SVG/1.1/DTD/svg11.dtd">
<svg xmlns="http://www.w3.org/2000/svg" version="1.1" width="188px" height="188px" style="shape-rendering:geometricPrecision; text-rendering:geometricPrecision; image-rendering:optimizeQuality; fill-rule:evenodd; clip-rule:evenodd" xmlns:xlink="http://www.w3.org/1999/xlink">
<g><path style="opacity:0.949" fill="#a8f4f7" d="M 156.5,15.5 C 159.754,15.7936 162.421,17.127 164.5,19.5C 164.511,21.0174 165.177,22.1841 166.5,23C 163.834,25.5839 160.834,26.0839 157.5,24.5C 155.565,23.8505 153.565,23.5172 151.5,23.5C 150.791,22.596 149.791,22.2627 148.5,22.5C 147.804,16.4979 150.471,14.1645 156.5,15.5 Z"/></g>
<g><path style="opacity:0.939" fill="#9ef0f4" d="M 156.5,15.5 C 150.471,14.1645 147.804,16.4979 148.5,22.5C 149.791,22.2627 150.791,22.596 151.5,23.5C 150.833,23.5 150.167,23.5 149.5,23.5C 147.5,23.5 145.5,23.5 143.5,23.5C 143.5,21.1667 143.5,18.8333 143.5,16.5C 147.737,14.4726 152.07,14.1393 156.5,15.5 Z"/></g>
<g><path style="opacity:0.807" fill="#95edf1" d="M 143.5,16.5 C 143.5,18.8333 143.5,21.1667 143.5,23.5C 145.5,23.5 147.5,23.5 149.5,23.5C 148.432,24.4345 147.099,24.7678 145.5,24.5C 143.139,24.6741 140.806,25.0074 138.5,25.5C 138.5,23.1667 138.5,20.8333 138.5,18.5C 139.93,17.4625 141.597,16.7959 143.5,16.5 Z"/></g>
<g><path style="opacity:0.634" fill="#84e5eb" d="M 138.5,18.5 C 138.5,20.8333 138.5,23.1667 138.5,25.5C 140.806,25.0074 143.139,24.6741 145.5,24.5C 142.744,26.2038 139.744,27.5371 136.5,28.5C 135.5,28.5 134.5,28.5 133.5,28.5C 133.279,25.7212 133.612,23.0545 134.5,20.5C 135.514,19.3263 136.847,18.6596 138.5,18.5 Z"/></g>
<g><path style="opacity:0.557" fill="#77dee5" d="M 134.5,20.5 C 133.612,23.0545 133.279,25.7212 133.5,28.5C 134.5,28.5 135.5,28.5 136.5,28.5C 135.486,29.6737 134.153,30.3404 132.5,30.5C 131.5,30.5 130.5,30.5 129.5,30.5C 129.279,27.7212 129.612,25.0545 130.5,22.5C 131.514,21.3263 132.847,20.6596 134.5,20.5 Z"/></g>
<g><path style="opacity:0.688" fill="#8ce9ee" d="M 164.5,19.5 C 166.822,20.8021 168.155,22.8021 168.5,25.5C 168.586,26.4959 168.252,27.3292 167.5,28C 165.19,28.4966 162.857,28.6633 160.5,28.5C 159.5,27.1667 158.5,25.8333 157.5,24.5C 160.834,26.0839 163.834,25.5839 166.5,23C 165.177,22.1841 164.511,21.0174 164.5,19.5 Z"/></g>
<g><path style="opacity:0.342" fill="#62cfd7" d="M 130.5,22.5 C 129.612,25.0545 129.279,27.7212 129.5,30.5C 130.5,30.5 131.5,30.5 132.5,30.5C 129.562,33.7005 126.395,34.0338 123,31.5C 122.275,26.042 124.775,23.042 130.5,22.5 Z"/></g>
<g><path style="opacity:0.217" fill="#51bfc9" d="M 113.5,40.5 C 111.927,36.5413 108.927,34.8747 104.5,35.5C 107.299,32.861 110.632,32.0277 114.5,33C 115.097,34.0617 115.43,35.2284 115.5,36.5C 115.66,38.3545 114.993,39.6879 113.5,40.5 Z"/></g>
<g><path style="opacity:0.42" fill="#73dce3" d="M 168.5,25.5 C 169.434,26.5676 169.768,27.901 169.5,29.5C 169.5,31.5 169.5,33.5 169.5,35.5C 166.721,35.7214 164.054,35.388 161.5,34.5C 161.483,32.4352 161.15,30.4352 160.5,28.5C 162.857,28.6633 165.19,28.4966 167.5,28C 168.252,27.3292 168.586,26.4959 168.5,25.5 Z"/></g>
<g><path style="opacity:0.275" fill="#59c8d1" d="M 104.5,35.5 C 108.927,34.8747 111.927,36.5413 113.5,40.5C 111.483,41.5294 109.483,42.5294 107.5,43.5C 107.141,41.629 106.141,40.129 104.5,39C 104.833,38.6667 105.167,38.3333 105.5,38C 104.207,37.51 102.873,37.3433 101.5,37.5C 102.29,36.5987 103.29,35.9321 104.5,35.5 Z"/></g>
<g><path style="opacity:0.338" fill="#60ced6" d="M 169.5,29.5 C 170.479,32.6248 170.813,35.9581 170.5,39.5C 167.737,41.6813 164.737,42.0146 161.5,40.5C 161.5,38.5 161.5,36.5 161.5,34.5C 164.054,35.388 166.721,35.7214 169.5,35.5C 169.5,33.5 169.5,31.5 169.5,29.5 Z"/></g>
<g><path style="opacity:0.373" fill="#63d0d8" d="M 101.5,37.5 C 102.873,37.3433 104.207,37.51 105.5,38C 105.167,38.3333 104.833,38.6667 104.5,39C 106.141,40.129 107.141,41.629 107.5,43.5C 106.486,44.6737 105.153,45.3404 103.5,45.5C 101.666,41.4471 98.6663,40.1137 94.5,41.5C 96.3356,39.412 98.6689,38.0787 101.5,37.5 Z"/></g>
<g><path style="opacity:0.473" fill="#6dd7de" d="M 103.5,45.5 C 101.664,47.588 99.3311,48.9213 96.5,49.5C 95.0899,44.7248 92.0899,43.3915 87.5,45.5C 89.3356,43.412 91.6689,42.0787 94.5,41.5C 98.6663,40.1137 101.666,41.4471 103.5,45.5 Z"/></g>
<g><path style="opacity:0.153" fill="#50bec8" d="M 134.5,42.5 C 135.439,45.8032 136.439,49.1365 137.5,52.5C 138.833,52.5 140.167,52.5 141.5,52.5C 139.786,53.7384 137.786,54.405 135.5,54.5C 134.504,54.5858 133.671,54.2524 133,53.5C 131.259,50.6907 130.092,47.6907 129.5,44.5C 130.93,43.4625 132.597,42.7959 134.5,42.5 Z"/></g>
<g><path style="opacity:0.18" fill="#4fbec7" d="M 170.5,39.5 C 169.781,41.7638 169.448,44.0971 169.5,46.5C 166.391,46.7359 163.391,46.4025 160.5,45.5C 160.216,43.5853 160.549,41.9187 161.5,40.5C 164.737,42.0146 167.737,41.6813 170.5,39.5 Z"/></g>
<g><path style="opacity:0.577" fill="#7ce0e7" d="M 96.5,49.5 C 93.7089,51.7349 90.7089,53.7349 87.5,55.5C 87.0338,53.7988 87.0338,52.2988 87.5,51C 85.3225,49.7978 82.9892,49.2978 80.5,49.5C 82.3356,47.412 84.6689,46.0787 87.5,45.5C 92.0899,43.3915 95.0899,44.7248 96.5,49.5 Z"/></g>
<g><path style="opacity:0.085" fill="#48b4bd" d="M 129.5,44.5 C 130.092,47.6907 131.259,50.6907 133,53.5C 133.671,54.2524 134.504,54.5858 135.5,54.5C 133.786,55.7384 131.786,56.405 129.5,56.5C 128.504,56.5858 127.671,56.2524 127,55.5C 125.259,52.6907 124.092,49.6907 123.5,46.5C 125.214,45.2616 127.214,44.595 129.5,44.5 Z"/></g>
<g><path style="opacity:0.378" fill="#62cfd8" d="M 141.5,52.5 C 140.167,52.5 138.833,52.5 137.5,52.5C 136.439,49.1365 135.439,45.8032 134.5,42.5C 142.094,39.9278 145.26,42.5944 144,50.5C 143.292,51.3805 142.458,52.0472 141.5,52.5 Z"/></g>
<g><path style="opacity:0.047" fill="#50bac1" d="M 123.5,46.5 C 124.092,49.6907 125.259,52.6907 127,55.5C 127.671,56.2524 128.504,56.5858 129.5,56.5C 128.07,57.5375 126.403,58.2041 124.5,58.5C 122.853,55.2054 121.186,51.8721 119.5,48.5C 120.514,47.3263 121.847,46.6596 123.5,46.5 Z"/></g>
<g><path style="opacity:0.01" fill="#63cad0" d="M 119.5,48.5 C 121.186,51.8721 122.853,55.2054 124.5,58.5C 122.965,59.7879 121.299,59.7879 119.5,58.5C 117.978,55.8079 116.811,53.1412 116,50.5C 116.816,49.1772 117.983,48.5106 119.5,48.5 Z"/></g>
<g><path style="opacity:0.077" fill="#4ab5be" d="M 160.5,45.5 C 163.391,46.4025 166.391,46.7359 169.5,46.5C 169.037,49.4824 168.704,52.4824 168.5,55.5C 165.833,55.5 163.167,55.5 160.5,55.5C 160.737,54.209 160.404,53.209 159.5,52.5C 160.369,50.283 160.702,47.9496 160.5,45.5 Z"/></g>
<g><path style="opacity:0.696" fill="#8ce9ee" d="M 80.5,49.5 C 82.9892,49.2978 85.3225,49.7978 87.5,51C 87.0338,52.2988 87.0338,53.7988 87.5,55.5C 84.6612,57.4203 81.6612,59.0869 78.5,60.5C 76.8605,56.1813 73.8605,54.8479 69.5,56.5C 72.894,53.7795 76.5606,51.4462 80.5,49.5 Z"/></g>
<g><path style="opacity:0.011" fill="#63cad0" d="M 110.5,65.5 C 109.476,61.4295 107.476,58.0962 104.5,55.5C 106.632,52.9629 108.799,52.9629 111,55.5C 111.695,57.7221 112.528,59.8887 113.5,62C 113.022,63.6424 112.022,64.8091 110.5,65.5 Z"/></g>
<g><path style="opacity:0.879" fill="#9beff3" d="M 78.5,60.5 C 76.7952,62.1921 74.7952,63.5254 72.5,64.5C 71.9103,60.6837 69.5769,59.0171 65.5,59.5C 66.4363,58.0256 67.7697,57.0256 69.5,56.5C 73.8605,54.8479 76.8605,56.1813 78.5,60.5 Z"/></g>
<g><path style="opacity:0.045" fill="#50bac1" d="M 104.5,55.5 C 107.476,58.0962 109.476,61.4295 110.5,65.5C 109.167,66.1667 107.833,66.8333 106.5,67.5C 106.105,64.3138 105.105,61.3138 103.5,58.5C 102.675,57.6143 101.675,57.281 100.5,57.5C 101.514,56.3263 102.847,55.6596 104.5,55.5 Z"/></g>
<g><path style="opacity:0.009" fill="#62c9d0" d="M 159.5,52.5 C 160.404,53.209 160.737,54.209 160.5,55.5C 163.167,55.5 165.833,55.5 168.5,55.5C 168.372,57.0898 167.705,58.4231 166.5,59.5C 164.765,60.057 163.098,60.3903 161.5,60.5C 160.914,60.2907 160.414,59.9574 160,59.5C 159.503,57.1902 159.337,54.8568 159.5,52.5 Z"/></g>
<g><path style="opacity:0.085" fill="#48b4bd" d="M 100.5,57.5 C 101.675,57.281 102.675,57.6143 103.5,58.5C 105.105,61.3138 106.105,64.3138 106.5,67.5C 104.819,69.0075 102.819,70.0075 100.5,70.5C 100.263,67.3527 99.4301,64.3527 98,61.5C 97.3292,60.7476 96.4959,60.4142 95.5,60.5C 96.6594,58.7497 98.326,57.7497 100.5,57.5 Z"/></g>
<g><path style="opacity:0.939" fill="#a0f0f4" d="M 65.5,59.5 C 69.5769,59.0171 71.9103,60.6837 72.5,64.5C 71.5637,65.9744 70.2303,66.9744 68.5,67.5C 67.9103,63.6837 65.5769,62.0171 61.5,62.5C 62.2623,60.7376 63.5956,59.7376 65.5,59.5 Z"/></g>
<g><path style="opacity:0.972" fill="#a7f3f6" d="M 61.5,62.5 C 65.5769,62.0171 67.9103,63.6837 68.5,67.5C 67.205,68.4884 65.8717,69.4884 64.5,70.5C 63.4106,66.086 60.7439,64.7526 56.5,66.5C 57.5846,64.4131 59.2512,63.0798 61.5,62.5 Z"/></g>
<g><path style="opacity:0.232" fill="#51c0c9" d="M 95.5,60.5 C 96.4959,60.4142 97.3292,60.7476 98,61.5C 99.4301,64.3527 100.263,67.3527 100.5,70.5C 99.5637,71.9744 98.2303,72.9744 96.5,73.5C 96.0507,69.9524 95.0507,66.619 93.5,63.5C 92.5,63.5 91.5,63.5 90.5,63.5C 91.6594,61.7497 93.326,60.7497 95.5,60.5 Z"/></g>
<g><path style="opacity:0.095" fill="#48b4bd" d="M 148.5,75.5 C 148.5,75.1667 148.5,74.8333 148.5,74.5C 148.5,73.1667 148.5,71.8333 148.5,70.5C 144.833,69.8333 141.167,69.1667 137.5,68.5C 137.974,62.9241 140.974,60.7574 146.5,62C 147.333,62.8333 148.167,63.6667 149,64.5C 149.81,68.3575 149.643,72.0242 148.5,75.5 Z"/></g>
<g><path style="opacity:0.335" fill="#5ccbd4" d="M 90.5,63.5 C 91.5,63.5 92.5,63.5 93.5,63.5C 95.0507,66.619 96.0507,69.9524 96.5,73.5C 95.7095,74.4013 94.7095,75.0679 93.5,75.5C 92.6971,72.3325 91.3638,69.3325 89.5,66.5C 88.675,65.6143 87.675,65.281 86.5,65.5C 87.5137,64.3263 88.847,63.6596 90.5,63.5 Z"/></g>
<g><path style="opacity:0.996" fill="#acf5f8" d="M 64.5,70.5 C 62.5398,72.1563 60.5398,73.823 58.5,75.5C 56.1764,74.6702 54.1764,73.3369 52.5,71.5C 53.8569,69.8144 55.1902,68.1477 56.5,66.5C 60.7439,64.7526 63.4106,66.086 64.5,70.5 Z"/></g>
<g><path style="opacity:0.01" fill="#62c9cf" d="M 166.5,70.5 C 163.5,70.5 160.5,70.5 157.5,70.5C 158.53,65.6153 161.363,64.282 166,66.5C 166.49,67.7932 166.657,69.1266 166.5,70.5 Z"/></g>
<g><path style="opacity:0.174" fill="#4dbcc5" d="M 137.5,68.5 C 141.167,69.1667 144.833,69.8333 148.5,70.5C 148.5,71.8333 148.5,73.1667 148.5,74.5C 144.336,72.2262 140.336,72.2262 136.5,74.5C 136.833,72.5 137.167,70.5 137.5,68.5 Z"/></g>
<g><path style="opacity:0.975" fill="#a4f1f5" d="M 56.5,66.5 C 55.1902,68.1477 53.8569,69.8144 52.5,71.5C 54.1764,73.3369 56.1764,74.6702 58.5,75.5C 56.4707,77.8585 54.4707,80.1918 52.5,82.5C 49.7277,82.4048 47.7277,81.0715 46.5,78.5C 48.6159,76.0641 50.2826,73.3974 51.5,70.5C 52.5846,68.4131 54.2512,67.0798 56.5,66.5 Z"/></g>
<g><path style="opacity:0.695" fill="#85e3e9" d="M 84.5,81.5 C 83.1667,82.5 81.8333,83.5 80.5,84.5C 80.5919,80.941 79.7585,77.6076 78,74.5C 76.5861,73.5868 75.0861,73.5868 73.5,74.5C 73.9731,73.0937 74.9731,72.427 76.5,72.5C 78.2385,71.5661 79.9052,71.5661 81.5,72.5C 83.3706,75.2341 84.3706,78.2341 84.5,81.5 Z"/></g>
<g><path style="opacity:0.543" fill="#78dfe5" d="M 83.5,67.5 C 84.8221,67.33 85.9887,67.6634 87,68.5C 88.9076,71.2065 89.741,74.2065 89.5,77.5C 88.0552,79.0627 86.3885,80.396 84.5,81.5C 84.3706,78.2341 83.3706,75.2341 81.5,72.5C 79.9052,71.5661 78.2385,71.5661 76.5,72.5C 78.5313,70.4776 80.8646,68.8109 83.5,67.5 Z"/></g>
<g><path style="opacity:0.425" fill="#68d4dc" d="M 86.5,65.5 C 87.675,65.281 88.675,65.6143 89.5,66.5C 91.3638,69.3325 92.6971,72.3325 93.5,75.5C 92.3951,76.6005 91.0618,77.2671 89.5,77.5C 89.741,74.2065 88.9076,71.2065 87,68.5C 85.9887,67.6634 84.8221,67.33 83.5,67.5C 84.2905,66.5987 85.2905,65.9321 86.5,65.5 Z"/></g>
<g><path style="opacity:0.231" fill="#53c1cb" d="M 148.5,74.5 C 148.5,74.8333 148.5,75.1667 148.5,75.5C 148.802,78.0593 148.468,80.3926 147.5,82.5C 147.709,80.2856 146.876,78.619 145,77.5C 142.23,76.6521 139.397,76.3187 136.5,76.5C 136.5,75.8333 136.5,75.1667 136.5,74.5C 140.336,72.2262 144.336,72.2262 148.5,74.5 Z"/></g>
<g><path style="opacity:0.074" fill="#4ab5be" d="M 157.5,70.5 C 160.5,70.5 163.5,70.5 166.5,70.5C 166.01,73.6553 165.344,76.6553 164.5,79.5C 161.833,79.5 159.167,79.5 156.5,79.5C 156.508,76.4552 156.841,73.4552 157.5,70.5 Z"/></g>
<g><path style="opacity:0.806" fill="#92ebf0" d="M 80.5,84.5 C 79.1667,85.5 77.8333,86.5 76.5,87.5C 76.6682,83.8313 75.6682,80.4979 73.5,77.5C 72.3002,76.7084 70.9669,76.7084 69.5,77.5C 70.4363,76.0256 71.7697,75.0256 73.5,74.5C 75.0861,73.5868 76.5861,73.5868 78,74.5C 79.7585,77.6076 80.5919,80.941 80.5,84.5 Z"/></g>
<g><path style="opacity:0.859" fill="#9cedf2" d="M 76.5,87.5 C 71.366,89.0977 68.0327,87.2643 66.5,82C 67.0527,80.1222 68.0527,78.6222 69.5,77.5C 70.9669,76.7084 72.3002,76.7084 73.5,77.5C 75.6682,80.4979 76.6682,83.8313 76.5,87.5 Z"/></g>
<g><path style="opacity:0.224" fill="#58c7cf" d="M 115.5,76.5 C 117.527,76.3379 119.527,76.5045 121.5,77C 117.584,81.347 114.584,86.1804 112.5,91.5C 112.167,92.5 111.5,93.1667 110.5,93.5C 109.391,93.5569 108.391,93.8902 107.5,94.5C 108.511,89.142 110.511,84.142 113.5,79.5C 113.043,78.7025 112.376,78.3691 111.5,78.5C 112.514,77.3263 113.847,76.6596 115.5,76.5 Z"/></g>
<g><path style="opacity:0.246" fill="#58c8d1" d="M 136.5,76.5 C 139.397,76.3187 142.23,76.6521 145,77.5C 146.876,78.619 147.709,80.2856 147.5,82.5C 147.802,85.0593 147.468,87.3926 146.5,89.5C 146.5,86.8333 146.5,84.1667 146.5,81.5C 143.933,81.1455 141.433,80.4788 139,79.5C 137.401,80.0707 136.234,81.0707 135.5,82.5C 135.517,80.4352 135.85,78.4352 136.5,76.5 Z"/></g>
<g><path style="opacity:0.876" fill="#98eef2" d="M 51.5,70.5 C 50.2826,73.3974 48.6159,76.0641 46.5,78.5C 47.7277,81.0715 49.7277,82.4048 52.5,82.5C 50.5797,85.3388 48.9131,88.3388 47.5,91.5C 42.6741,91.0956 40.6741,88.4289 41.5,83.5C 44.0986,78.5722 47.432,74.2389 51.5,70.5 Z"/></g>
<g><path style="opacity:0.13" fill="#4ab7c0" d="M 124.5,76.5 C 125.468,78.6074 125.802,80.9407 125.5,83.5C 124.883,83.3893 124.383,83.056 124,82.5C 119.631,87.0367 115.131,91.3701 110.5,95.5C 110.5,94.8333 110.5,94.1667 110.5,93.5C 111.5,93.1667 112.167,92.5 112.5,91.5C 115.66,88.5339 118.827,85.5339 122,82.5C 123.122,80.5932 123.955,78.5932 124.5,76.5 Z"/></g>
<g><path style="opacity:0.162" fill="#4fbdc7" d="M 156.5,79.5 C 159.167,79.5 161.833,79.5 164.5,79.5C 164.802,82.0593 164.468,84.3926 163.5,86.5C 163.586,85.5041 163.252,84.6708 162.5,84C 160.071,83.2967 157.738,83.4634 155.5,84.5C 155.216,82.5853 155.549,80.9187 156.5,79.5 Z"/></g>
<g><path style="opacity:0.198" fill="#4fbec7" d="M 124.5,76.5 C 123.955,78.5932 123.122,80.5932 122,82.5C 118.827,85.5339 115.66,88.5339 112.5,91.5C 114.584,86.1804 117.584,81.347 121.5,77C 119.527,76.5045 117.527,76.3379 115.5,76.5C 117.055,75.3673 118.889,74.7006 121,74.5C 122.699,74.3866 123.866,75.0532 124.5,76.5 Z"/></g>
<g><path style="opacity:0.685" fill="#8be8ee" d="M 105.5,95.5 C 104.833,95.8333 104.167,96.1667 103.5,96.5C 103.5,92.5 103.5,88.5 103.5,84.5C 102.5,84.5 101.5,84.5 100.5,84.5C 100.973,83.0937 101.973,82.427 103.5,82.5C 105.144,82.7135 106.644,82.3802 108,81.5C 108.167,82 108.333,82.5 108.5,83C 106.075,86.7831 105.075,90.9498 105.5,95.5 Z"/></g>
<g><path style="opacity:0.368" fill="#63d0d8" d="M 146.5,89.5 C 146.795,91.7354 146.461,93.7354 145.5,95.5C 147.413,87.5811 144.413,84.4145 136.5,86C 135.915,87.3024 135.249,88.469 134.5,89.5C 134.674,87.139 135.007,84.8056 135.5,82.5C 136.234,81.0707 137.401,80.0707 139,79.5C 141.433,80.4788 143.933,81.1455 146.5,81.5C 146.5,84.1667 146.5,86.8333 146.5,89.5 Z"/></g>
<g><path style="opacity:0.263" fill="#5acad2" d="M 163.5,86.5 C 163.795,88.7354 163.461,90.7354 162.5,92.5C 162.5,91.1667 162.5,89.8333 162.5,88.5C 159.721,88.2786 157.054,88.612 154.5,89.5C 154.366,87.7085 154.699,86.0418 155.5,84.5C 157.738,83.4634 160.071,83.2967 162.5,84C 163.252,84.6708 163.586,85.5041 163.5,86.5 Z"/></g>
<g><path style="opacity:0.88" fill="#9aeff3" d="M 100.5,84.5 C 101.5,84.5 102.5,84.5 103.5,84.5C 103.5,88.5 103.5,92.5 103.5,96.5C 102.395,97.6005 101.062,98.2671 99.5,98.5C 99.1103,95.1606 98.6103,91.8273 98,88.5C 97.3292,87.7476 96.4959,87.4142 95.5,87.5C 96.6594,85.7497 98.326,84.7497 100.5,84.5 Z"/></g>
<g><path style="opacity:0.089" fill="#48b4bc" d="M 125.5,83.5 C 124.89,84.391 124.557,85.391 124.5,86.5C 121.464,89.5423 118.131,92.3756 114.5,95C 113.748,95.6708 113.414,96.5041 113.5,97.5C 113.027,98.9063 112.027,99.573 110.5,99.5C 110.5,98.1667 110.5,96.8333 110.5,95.5C 115.131,91.3701 119.631,87.0367 124,82.5C 124.383,83.056 124.883,83.3893 125.5,83.5 Z"/></g>
<g><path style="opacity:0.939" fill="#a1f1f5" d="M 95.5,87.5 C 96.4959,87.4142 97.3292,87.7476 98,88.5C 98.6103,91.8273 99.1103,95.1606 99.5,98.5C 99.1667,99.5 98.5,100.167 97.5,100.5C 97.0946,97.0135 96.0946,93.6801 94.5,90.5C 93.3002,89.7084 91.9669,89.7084 90.5,90.5C 91.6594,88.7497 93.326,87.7497 95.5,87.5 Z"/></g>
<g><path style="opacity:0.514" fill="#79dfe6" d="M 111.5,78.5 C 112.376,78.3691 113.043,78.7025 113.5,79.5C 110.511,84.142 108.511,89.142 107.5,94.5C 106.833,94.8333 106.167,95.1667 105.5,95.5C 105.075,90.9498 106.075,86.7831 108.5,83C 108.333,82.5 108.167,82 108,81.5C 106.644,82.3802 105.144,82.7135 103.5,82.5C 105.849,80.659 108.515,79.3257 111.5,78.5 Z"/></g>
<g><path style="opacity:0.049" fill="#51bac2" d="M 124.5,86.5 C 124.675,88.6208 124.341,90.6208 123.5,92.5C 120.613,95.0517 117.28,96.7184 113.5,97.5C 113.414,96.5041 113.748,95.6708 114.5,95C 118.131,92.3756 121.464,89.5423 124.5,86.5 Z"/></g>
<g><path style="opacity:0.453" fill="#6fd9e0" d="M 145.5,95.5 C 145.795,97.7354 145.461,99.7354 144.5,101.5C 144.5,98.8333 144.5,96.1667 144.5,93.5C 141.167,92.8333 137.833,92.1667 134.5,91.5C 134.5,90.8333 134.5,90.1667 134.5,89.5C 135.249,88.469 135.915,87.3024 136.5,86C 144.413,84.4145 147.413,87.5811 145.5,95.5 Z"/></g>
<g><path style="opacity:0.971" fill="#a8f4f7" d="M 97.5,100.5 C 96.8333,100.833 96.1667,101.167 95.5,101.5C 94.7579,98.1908 93.0912,95.3575 90.5,93C 88.4634,93.4826 86.4634,94.3159 84.5,95.5C 85.9108,93.086 87.9108,91.4194 90.5,90.5C 91.9669,89.7084 93.3002,89.7084 94.5,90.5C 96.0946,93.6801 97.0946,97.0135 97.5,100.5 Z"/></g>
<g><path style="opacity:0.693" fill="#88e7ec" d="M 41.5,83.5 C 40.6741,88.4289 42.6741,91.0956 47.5,91.5C 46.4861,93.5739 45.4861,95.5739 44.5,97.5C 43.128,102.257 40.9613,102.591 38,98.5C 37.5045,96.5273 37.3379,94.5273 37.5,92.5C 38.0749,89.0884 39.4082,86.0884 41.5,83.5 Z"/></g>
<g><path style="opacity:0.996" fill="#aff6f9" d="M 95.5,101.5 C 95.5,102.167 95.1667,102.5 94.5,102.5C 90.8945,102.201 87.5612,101.035 84.5,99C 83.8288,98.0138 83.8288,96.8471 84.5,95.5C 86.4634,94.3159 88.4634,93.4826 90.5,93C 93.0912,95.3575 94.7579,98.1908 95.5,101.5 Z"/></g>
<g><path style="opacity:0.009" fill="#63cad0" d="M 123.5,92.5 C 123.61,95.0588 122.944,97.3921 121.5,99.5C 117.829,100.42 114.329,101.753 111,103.5C 110.51,102.207 110.343,100.873 110.5,99.5C 112.027,99.573 113.027,98.9063 113.5,97.5C 117.28,96.7184 120.613,95.0517 123.5,92.5 Z"/></g>
<g><path style="opacity:0.738" fill="#8de9ee" d="M 66.5,96.5 C 66.5,97.8333 66.5,99.1667 66.5,100.5C 63.1933,99.9492 59.8599,99.6159 56.5,99.5C 56.5,98.5 56.5,97.5 56.5,96.5C 56.4142,95.5041 56.7476,94.6708 57.5,94C 58.8721,93.5983 60.2054,93.0983 61.5,92.5C 62.7946,93.0983 64.1279,93.5983 65.5,94C 66.2524,94.6708 66.5858,95.5041 66.5,96.5 Z"/></g>
<g><path style="opacity:0.55" fill="#7ce1e7" d="M 134.5,91.5 C 137.833,92.1667 141.167,92.8333 144.5,93.5C 144.5,96.1667 144.5,98.8333 144.5,101.5C 144.784,103.415 144.451,105.081 143.5,106.5C 143.958,103.606 143.291,101.106 141.5,99C 139.645,98.5779 137.811,98.0779 136,97.5C 134.229,98.3471 133.063,99.6805 132.5,101.5C 132.753,97.9601 133.419,94.6267 134.5,91.5 Z"/></g>
<g><path style="opacity:0.573" fill="#7ce1e7" d="M 37.5,92.5 C 37.3379,94.5273 37.5045,96.5273 38,98.5C 40.9613,102.591 43.128,102.257 44.5,97.5C 44.3259,99.861 43.9926,102.194 43.5,104.5C 42.5987,105.29 41.9321,106.29 41.5,107.5C 36.9719,104.833 35.3053,100.833 36.5,95.5C 36.2627,94.209 36.596,93.209 37.5,92.5 Z"/></g>
<g><path style="opacity:0.519" fill="#74dce3" d="M 162.5,92.5 C 162.354,96.3875 161.687,100.054 160.5,103.5C 160.5,101.5 160.5,99.5 160.5,97.5C 157.014,96.8285 154.347,97.8285 152.5,100.5C 152.911,96.7785 153.578,93.1119 154.5,89.5C 157.054,88.612 159.721,88.2786 162.5,88.5C 162.5,89.8333 162.5,91.1667 162.5,92.5 Z"/></g>
<g><path style="opacity:0.974" fill="#a8f3f7" d="M 84.5,95.5 C 83.8288,96.8471 83.8288,98.0138 84.5,99C 87.5612,101.035 90.8945,102.201 94.5,102.5C 94.6716,103.492 94.3382,104.158 93.5,104.5C 90.1262,104.326 86.7928,103.826 83.5,103C 82.0267,102.29 81.3601,101.124 81.5,99.5C 81.7376,97.5956 82.7376,96.2623 84.5,95.5 Z"/></g>
<g><path style="opacity:0.658" fill="#86e5eb" d="M 160.5,103.5 C 160.784,105.415 160.451,107.081 159.5,108.5C 159.5,106.167 159.5,103.833 159.5,101.5C 157.473,101.338 155.473,101.505 153.5,102C 152.915,103.302 152.249,104.469 151.5,105.5C 151.366,103.708 151.699,102.042 152.5,100.5C 154.347,97.8285 157.014,96.8285 160.5,97.5C 160.5,99.5 160.5,101.5 160.5,103.5 Z"/></g>
<g><path style="opacity:0.56" fill="#7ee2e8" d="M 56.5,96.5 C 56.5,97.5 56.5,98.5 56.5,99.5C 59.8599,99.6159 63.1933,99.9492 66.5,100.5C 66.5,99.1667 66.5,97.8333 66.5,96.5C 67.4511,97.9187 67.7845,99.5853 67.5,101.5C 64.9556,101.104 62.7889,101.771 61,103.5C 59.1329,108.102 57.4662,112.768 56,117.5C 54.5634,113.028 54.0634,108.361 54.5,103.5C 54.1706,100.772 54.8372,98.4385 56.5,96.5 Z"/></g>
<g><path style="opacity:0.696" fill="#88e7ed" d="M 143.5,106.5 C 143.784,108.415 143.451,110.081 142.5,111.5C 142.739,109.533 142.406,107.699 141.5,106C 138.568,104.855 135.568,104.022 132.5,103.5C 132.737,104.791 132.404,105.791 131.5,106.5C 131.366,104.708 131.699,103.042 132.5,101.5C 133.063,99.6805 134.229,98.3471 136,97.5C 137.811,98.0779 139.645,98.5779 141.5,99C 143.291,101.106 143.958,103.606 143.5,106.5 Z"/></g>
<g><path style="opacity:0.474" fill="#72dbe1" d="M 67.5,101.5 C 67.5,102.167 67.1667,102.5 66.5,102.5C 66.1667,102.5 65.8333,102.5 65.5,102.5C 64.5416,102.953 63.7083,103.619 63,104.5C 61.0016,110.495 59.0016,116.495 57,122.5C 56.0656,121.142 55.2323,119.808 54.5,118.5C 53.2001,113.4 53.2001,108.4 54.5,103.5C 54.0634,108.361 54.5634,113.028 56,117.5C 57.4662,112.768 59.1329,108.102 61,103.5C 62.7889,101.771 64.9556,101.104 67.5,101.5 Z"/></g>
<g><path style="opacity:0.423" fill="#6cd6de" d="M 65.5,102.5 C 63.2432,110.108 61.0765,117.775 59,125.5C 58.2303,126.598 57.397,126.598 56.5,125.5C 55.0762,123.485 54.4095,121.152 54.5,118.5C 55.2323,119.808 56.0656,121.142 57,122.5C 59.0016,116.495 61.0016,110.495 63,104.5C 63.7083,103.619 64.5416,102.953 65.5,102.5 Z"/></g>
<g><path style="opacity:0.938" fill="#a3f3f6" d="M 81.5,99.5 C 81.3601,101.124 82.0267,102.29 83.5,103C 86.7928,103.826 90.1262,104.326 93.5,104.5C 93.6716,105.492 93.3382,106.158 92.5,106.5C 92.1667,106.5 91.8333,106.5 91.5,106.5C 87.8333,106.5 84.1667,106.5 80.5,106.5C 80.5,104.5 80.5,102.5 80.5,100.5C 80.5,99.8333 80.8333,99.5 81.5,99.5 Z"/></g>
<g><path style="opacity:0.877" fill="#9df0f4" d="M 80.5,100.5 C 80.5,102.5 80.5,104.5 80.5,106.5C 84.1667,106.5 87.8333,106.5 91.5,106.5C 91.67,107.822 91.3366,108.989 90.5,110C 87.2686,111.466 83.9353,112.633 80.5,113.5C 79.513,110.232 79.1796,106.898 79.5,103.5C 79.2627,102.209 79.596,101.209 80.5,100.5 Z"/></g>
<g><path style="opacity:0.483" fill="#73dce3" d="M 36.5,95.5 C 35.3053,100.833 36.9719,104.833 41.5,107.5C 41.6621,109.527 41.4955,111.527 41,113.5C 36.2687,110.103 34.4353,105.437 35.5,99.5C 35.2322,97.901 35.5655,96.5676 36.5,95.5 Z"/></g>
<g><path style="opacity:0.84" fill="#94ebf0" d="M 159.5,108.5 C 159.58,111.781 158.913,114.781 157.5,117.5C 157.5,115.833 157.5,114.167 157.5,112.5C 158.461,110.735 158.795,108.735 158.5,106.5C 156.473,106.338 154.473,106.505 152.5,107C 151.915,108.302 151.249,109.469 150.5,110.5C 150.366,108.708 150.699,107.042 151.5,105.5C 152.249,104.469 152.915,103.302 153.5,102C 155.473,101.505 157.473,101.338 159.5,101.5C 159.5,103.833 159.5,106.167 159.5,108.5 Z"/></g>
<g><path style="opacity:0.418" fill="#6dd7df" d="M 35.5,99.5 C 34.4353,105.437 36.2687,110.103 41,113.5C 41.4955,111.527 41.6621,109.527 41.5,107.5C 41.9321,106.29 42.5987,105.29 43.5,104.5C 42.7929,107.786 42.4595,111.119 42.5,114.5C 41.8485,115.091 41.1818,115.757 40.5,116.5C 35.8647,114.214 33.8647,110.547 34.5,105.5C 34.2053,103.265 34.5386,101.265 35.5,99.5 Z"/></g>
<g><path style="opacity:0.01" fill="#63cad0" d="M 119.5,114.5 C 115.946,112.891 112.279,111.558 108.5,110.5C 108.414,109.504 108.748,108.671 109.5,108C 112.865,107.686 116.031,107.519 119,107.5C 120.807,109.706 120.974,112.039 119.5,114.5 Z"/></g>
<g><path style="opacity:0.797" fill="#92ecf0" d="M 142.5,111.5 C 142.58,114.781 141.913,117.781 140.5,120.5C 142.322,112.729 139.322,109.063 131.5,109.5C 131.737,110.791 131.404,111.791 130.5,112.5C 130.325,110.379 130.659,108.379 131.5,106.5C 132.404,105.791 132.737,104.791 132.5,103.5C 135.568,104.022 138.568,104.855 141.5,106C 142.406,107.699 142.739,109.533 142.5,111.5 Z"/></g>
<g><path style="opacity:0.313" fill="#60cfd7" d="M 65.5,108.5 C 65.5,110.167 65.5,111.833 65.5,113.5C 65.8933,119.678 65.0599,125.678 63,131.5C 62.0255,129.122 61.3589,129.456 61,132.5C 60.2411,130.937 59.0744,129.937 57.5,129.5C 57.5,129.167 57.5,128.833 57.5,128.5C 58.8221,128.67 59.9887,128.337 61,127.5C 63.0077,121.143 64.5077,114.81 65.5,108.5 Z"/></g>
<g><path style="opacity:0.941" fill="#a0f1f4" d="M 157.5,112.5 C 155.44,111.189 153.274,111.189 151,112.5C 150.333,115.167 150.333,117.833 151,120.5C 152.356,121.38 153.856,121.714 155.5,121.5C 152.692,123.167 150.525,122.5 149,119.5C 148.914,116.424 149.414,113.424 150.5,110.5C 151.249,109.469 151.915,108.302 152.5,107C 154.473,106.505 156.473,106.338 158.5,106.5C 158.795,108.735 158.461,110.735 157.5,112.5 Z"/></g>
<g><path style="opacity:0.383" fill="#66d3db" d="M 65.5,102.5 C 65.8333,102.5 66.1667,102.5 66.5,102.5C 66.6747,104.621 66.3414,106.621 65.5,108.5C 64.5077,114.81 63.0077,121.143 61,127.5C 59.9887,128.337 58.8221,128.67 57.5,128.5C 56.8902,127.609 56.5569,126.609 56.5,125.5C 57.397,126.598 58.2303,126.598 59,125.5C 61.0765,117.775 63.2432,110.108 65.5,102.5 Z"/></g>
<g><path style="opacity:0.691" fill="#88e6ec" d="M 92.5,110.5 C 93.1667,111.5 93.8333,112.5 94.5,113.5C 94.5,114.167 94.5,114.833 94.5,115.5C 93.2907,118.721 91.624,121.721 89.5,124.5C 88.3002,125.292 86.9669,125.292 85.5,124.5C 83.1097,123.109 81.4431,121.109 80.5,118.5C 86.2466,118.797 90.2466,116.13 92.5,110.5 Z"/></g>
<g><path style="opacity:0.746" fill="#92ecf0" d="M 79.5,103.5 C 79.1796,106.898 79.513,110.232 80.5,113.5C 83.9353,112.633 87.2686,111.466 90.5,110C 91.3366,108.989 91.67,107.822 91.5,106.5C 91.8333,106.5 92.1667,106.5 92.5,106.5C 92.5,107.833 92.5,109.167 92.5,110.5C 90.2466,116.13 86.2466,118.797 80.5,118.5C 78.407,113.506 78.0736,108.506 79.5,103.5 Z"/></g>
<g><path style="opacity:0.872" fill="#9aeef2" d="M 140.5,120.5 C 140.59,123.152 139.924,125.485 138.5,127.5C 138.5,126.167 138.5,124.833 138.5,123.5C 139.793,121.636 139.793,119.636 138.5,117.5C 135.509,115.986 132.509,115.653 129.5,116.5C 129.232,114.901 129.566,113.568 130.5,112.5C 131.404,111.791 131.737,110.791 131.5,109.5C 139.322,109.063 142.322,112.729 140.5,120.5 Z"/></g>
<g><path style="opacity:0.046" fill="#51bac2" d="M 108.5,110.5 C 112.279,111.558 115.946,112.891 119.5,114.5C 119.405,116.786 118.738,118.786 117.5,120.5C 117.489,118.983 116.823,117.816 115.5,117C 113.183,114.843 110.516,113.343 107.5,112.5C 107.328,111.508 107.662,110.842 108.5,110.5 Z"/></g>
<g><path style="opacity:0.996" fill="#adf5f9" d="M 157.5,112.5 C 157.5,114.167 157.5,115.833 157.5,117.5C 157.771,119.38 157.104,120.713 155.5,121.5C 153.856,121.714 152.356,121.38 151,120.5C 150.333,117.833 150.333,115.167 151,112.5C 153.274,111.189 155.44,111.189 157.5,112.5 Z"/></g>
<g><path style="opacity:0.335" fill="#62d0d8" d="M 34.5,105.5 C 33.8647,110.547 35.8647,114.214 40.5,116.5C 41.1818,115.757 41.8485,115.091 42.5,114.5C 42.5,115.833 42.5,117.167 42.5,118.5C 42.6641,121.187 42.4974,123.854 42,126.5C 38.1259,123.481 35.2925,119.814 33.5,115.5C 33.1872,111.958 33.5206,108.625 34.5,105.5 Z"/></g>
<g><path style="opacity:0.092" fill="#48b4bd" d="M 107.5,112.5 C 110.516,113.343 113.183,114.843 115.5,117C 116.823,117.816 117.489,118.983 117.5,120.5C 116.557,123.109 114.89,125.109 112.5,126.5C 112.016,121.183 109.35,117.517 104.5,115.5C 105.167,114.167 106.167,113.167 107.5,112.5 Z"/></g>
<g><path style="opacity:0.262" fill="#58c8d1" d="M 65.5,113.5 C 66.3705,116.003 67.0372,118.67 67.5,121.5C 67.8078,126.371 66.9745,131.037 65,135.5C 64.3292,136.252 63.4959,136.586 62.5,136.5C 60.4776,134.469 58.8109,132.135 57.5,129.5C 59.0744,129.937 60.2411,130.937 61,132.5C 61.3589,129.456 62.0255,129.122 63,131.5C 65.0599,125.678 65.8933,119.678 65.5,113.5 Z"/></g>
<g><path style="opacity:0.337" fill="#5dccd5" d="M 100.5,116.5 C 101.833,116.5 103.167,116.5 104.5,116.5C 104.908,119.725 105.908,122.725 107.5,125.5C 107.154,126.849 106.821,128.183 106.5,129.5C 102.367,130.726 98.367,130.726 94.5,129.5C 97.1667,129.5 99.8333,129.5 102.5,129.5C 102.729,124.99 102.062,120.657 100.5,116.5 Z"/></g>
<g><path style="opacity:0.937" fill="#a3f3f6" d="M 138.5,123.5 C 137.64,121.386 135.973,120.22 133.5,120C 131.735,119.36 130.068,119.527 128.5,120.5C 128.232,118.901 128.566,117.568 129.5,116.5C 132.509,115.653 135.509,115.986 138.5,117.5C 139.793,119.636 139.793,121.636 138.5,123.5 Z"/></g>
<g><path style="opacity:0.418" fill="#6bd6de" d="M 94.5,113.5 C 95.8195,114.942 97.4862,115.608 99.5,115.5C 99.5,116.167 99.8333,116.5 100.5,116.5C 102.062,120.657 102.729,124.99 102.5,129.5C 99.8333,129.5 97.1667,129.5 94.5,129.5C 93.209,129.737 92.209,129.404 91.5,128.5C 93.5,128.5 95.5,128.5 97.5,128.5C 98.0209,124.519 98.3542,120.519 98.5,116.5C 97.0413,116.567 95.7079,116.234 94.5,115.5C 94.5,114.833 94.5,114.167 94.5,113.5 Z"/></g>
<g><path style="opacity:0.253" fill="#58c8d1" d="M 33.5,115.5 C 35.2925,119.814 38.1259,123.481 42,126.5C 42.4974,123.854 42.6641,121.187 42.5,118.5C 43.4614,120.265 43.7947,122.265 43.5,124.5C 43.5,126.5 43.5,128.5 43.5,130.5C 38.8362,129.17 35.8362,126.17 34.5,121.5C 33.6586,119.621 33.3253,117.621 33.5,115.5 Z"/></g>
<g><path style="opacity:0.541" fill="#79e0e6" d="M 94.5,115.5 C 95.7079,116.234 97.0413,116.567 98.5,116.5C 98.3542,120.519 98.0209,124.519 97.5,128.5C 95.5,128.5 93.5,128.5 91.5,128.5C 88.8021,128.155 86.8021,126.822 85.5,124.5C 86.9669,125.292 88.3002,125.292 89.5,124.5C 91.624,121.721 93.2907,118.721 94.5,115.5 Z"/></g>
<g><path style="opacity:0.97" fill="#a7f3f6" d="M 138.5,123.5 C 138.5,124.833 138.5,126.167 138.5,127.5C 138.204,129.403 137.537,131.07 136.5,132.5C 136.261,130.533 136.594,128.699 137.5,127C 134.691,124.566 131.691,123.4 128.5,123.5C 128.5,122.5 128.5,121.5 128.5,120.5C 130.068,119.527 131.735,119.36 133.5,120C 135.973,120.22 137.64,121.386 138.5,123.5 Z"/></g>
<g><path style="opacity:0.231" fill="#51c0ca" d="M 99.5,115.5 C 101.167,115.5 102.833,115.5 104.5,115.5C 109.35,117.517 112.016,121.183 112.5,126.5C 110.5,127.5 108.5,128.5 106.5,129.5C 106.821,128.183 107.154,126.849 107.5,125.5C 105.908,122.725 104.908,119.725 104.5,116.5C 103.167,116.5 101.833,116.5 100.5,116.5C 99.8333,116.5 99.5,116.167 99.5,115.5 Z"/></g>
<g><path style="opacity:0.218" fill="#52c1ca" d="M 67.5,121.5 C 68.4861,123.426 69.4861,125.426 70.5,127.5C 70.395,131.319 69.5617,134.986 68,138.5C 67.5831,139.756 66.7498,140.423 65.5,140.5C 64.0256,139.564 63.0256,138.23 62.5,136.5C 63.4959,136.586 64.3292,136.252 65,135.5C 66.9745,131.037 67.8078,126.371 67.5,121.5 Z"/></g>
<g><path style="opacity:0.996" fill="#aff6f9" d="M 136.5,132.5 C 136.5,132.833 136.5,133.167 136.5,133.5C 133.159,133.344 130.326,132.011 128,129.5C 127.322,127.402 127.489,125.402 128.5,123.5C 131.691,123.4 134.691,124.566 137.5,127C 136.594,128.699 136.261,130.533 136.5,132.5 Z"/></g>
<g><path style="opacity:0.216" fill="#52c1ca" d="M 34.5,121.5 C 35.8362,126.17 38.8362,129.17 43.5,130.5C 43.5,128.5 43.5,126.5 43.5,124.5C 46.0029,132.491 43.5029,134.491 36,130.5C 35.0467,127.568 34.5467,124.568 34.5,121.5 Z"/></g>
<g><path style="opacity:0.971" fill="#a4f1f5" d="M 128.5,120.5 C 128.5,121.5 128.5,122.5 128.5,123.5C 127.489,125.402 127.322,127.402 128,129.5C 130.326,132.011 133.159,133.344 136.5,133.5C 135.299,135.909 133.633,137.909 131.5,139.5C 129.147,137.899 126.98,135.899 125,133.5C 124.51,132.207 124.343,130.873 124.5,129.5C 125.85,126.428 127.183,123.428 128.5,120.5 Z"/></g>
<g><path style="opacity:0.172" fill="#4dbbc4" d="M 70.5,127.5 C 71.4884,128.795 72.4884,130.128 73.5,131.5C 72.2967,135.11 71.2967,138.777 70.5,142.5C 69.5,142.5 68.5,142.5 67.5,142.5C 66.5,142.167 65.8333,141.5 65.5,140.5C 66.7498,140.423 67.5831,139.756 68,138.5C 69.5617,134.986 70.395,131.319 70.5,127.5 Z"/></g>
<g><path style="opacity:0.879" fill="#99eef2" d="M 124.5,129.5 C 124.343,130.873 124.51,132.207 125,133.5C 126.98,135.899 129.147,137.899 131.5,139.5C 131.672,140.492 131.338,141.158 130.5,141.5C 128.856,141.714 127.356,141.38 126,140.5C 124.121,138.129 122.955,135.462 122.5,132.5C 122.427,130.973 123.094,129.973 124.5,129.5 Z"/></g>
<g><path style="opacity:0.081" fill="#49b5bd" d="M 73.5,131.5 C 76.2139,134.215 79.2139,136.549 82.5,138.5C 82.4142,139.496 82.7476,140.329 83.5,141C 81.8042,143.587 80.8042,146.421 80.5,149.5C 79.5,149.5 78.5,149.5 77.5,149.5C 73.5899,147.912 70.2565,145.579 67.5,142.5C 68.5,142.5 69.5,142.5 70.5,142.5C 71.2967,138.777 72.2967,135.11 73.5,131.5 Z"/></g>
<g><path style="opacity:0.688" fill="#8ae8ed" d="M 121.5,133.5 C 121.16,137.131 121.994,140.464 124,143.5C 124.671,144.252 125.504,144.586 126.5,144.5C 126.167,145.5 125.5,146.167 124.5,146.5C 120.229,144.308 118.229,140.642 118.5,135.5C 119.5,134.833 120.5,134.167 121.5,133.5 Z"/></g>
<g><path style="opacity:0.743" fill="#90eaef" d="M 122.5,132.5 C 122.955,135.462 124.121,138.129 126,140.5C 127.356,141.38 128.856,141.714 130.5,141.5C 129.738,143.262 128.404,144.262 126.5,144.5C 125.504,144.586 124.671,144.252 124,143.5C 121.994,140.464 121.16,137.131 121.5,133.5C 121.5,132.833 121.833,132.5 122.5,132.5 Z"/></g>
<g><path style="opacity:0.471" fill="#73dce2" d="M 118.5,135.5 C 118.229,140.642 120.229,144.308 124.5,146.5C 123.101,147.89 121.434,148.89 119.5,149.5C 118.167,149.5 116.833,149.5 115.5,149.5C 114.242,146.306 113.576,142.973 113.5,139.5C 115.142,138.197 116.809,136.864 118.5,135.5 Z"/></g>
<g><path style="opacity:0.032" fill="#56bec6" d="M 82.5,138.5 C 83.5,139.167 84.5,139.833 85.5,140.5C 85.1056,144.347 84.1056,148.014 82.5,151.5C 80.597,151.204 78.9303,150.537 77.5,149.5C 78.5,149.5 79.5,149.5 80.5,149.5C 80.8042,146.421 81.8042,143.587 83.5,141C 82.7476,140.329 82.4142,139.496 82.5,138.5 Z"/></g>
<g><path style="opacity:0.01" fill="#63cad0" d="M 85.5,140.5 C 87.6449,140.738 89.3115,141.738 90.5,143.5C 89.5,146.167 88.5,148.833 87.5,151.5C 85.7015,152.788 84.0348,152.788 82.5,151.5C 84.1056,148.014 85.1056,144.347 85.5,140.5 Z"/></g>
<g><path style="opacity:0.011" fill="#62cad0" d="M 99.5,142.5 C 99.1667,146.5 98.8333,150.5 98.5,154.5C 96.5714,154.769 94.9047,154.269 93.5,153C 94.3298,150.198 95.1632,147.365 96,144.5C 96.8159,143.177 97.9826,142.511 99.5,142.5 Z"/></g>
<g><path style="opacity:0.079" fill="#4ab5be" d="M 106.5,141.5 C 105.911,145.971 106.577,149.971 108.5,153.5C 105.977,154.254 103.311,154.92 100.5,155.5C 99.8165,155.137 99.1499,154.804 98.5,154.5C 98.8333,150.5 99.1667,146.5 99.5,142.5C 101.95,142.702 104.283,142.369 106.5,141.5 Z"/></g>
<g><path style="opacity:0.171" fill="#4fbec8" d="M 110.5,140.5 C 109.927,144.074 110.093,147.74 111,151.5C 111.383,152.056 111.883,152.389 112.5,152.5C 111.432,153.434 110.099,153.768 108.5,153.5C 106.577,149.971 105.911,145.971 106.5,141.5C 107.833,141.167 109.167,140.833 110.5,140.5 Z"/></g>
<g><path style="opacity:0.475" fill="#71dae0" d="M 143.5,154.5 C 143.374,151.532 141.874,149.532 139,148.5C 137.549,150.464 135.716,151.797 133.5,152.5C 136.866,148.467 140.533,144.8 144.5,141.5C 147.167,142.167 148.833,143.833 149.5,146.5C 148.452,149.952 146.452,152.619 143.5,154.5 Z"/></g>
<g><path style="opacity:0.342" fill="#61cfd7" d="M 113.5,139.5 C 113.576,142.973 114.242,146.306 115.5,149.5C 116.833,149.5 118.167,149.5 119.5,149.5C 117.491,151.065 115.157,152.065 112.5,152.5C 111.883,152.389 111.383,152.056 111,151.5C 110.093,147.74 109.927,144.074 110.5,140.5C 111.391,139.89 112.391,139.557 113.5,139.5 Z"/></g>
<g><path style="opacity:0.804" fill="#92ebf0" d="M 143.5,154.5 C 142.167,156.5 140.5,158.167 138.5,159.5C 139.167,156.167 137.833,154.167 134.5,153.5C 133.06,154.952 131.394,155.952 129.5,156.5C 130.5,154.833 131.833,153.5 133.5,152.5C 135.716,151.797 137.549,150.464 139,148.5C 141.874,149.532 143.374,151.532 143.5,154.5 Z"/></g>
<g><path style="opacity:0.339" fill="#5dcbd4" d="M 62.5,156.5 C 62.1667,160.167 60.1667,162.167 56.5,162.5C 53.0131,160.552 52.1797,157.886 54,154.5C 57.4915,152.772 60.3248,153.438 62.5,156.5 Z"/></g>
<g><path style="opacity:0.975" fill="#a1f1f4" d="M 138.5,159.5 C 137.167,161.5 135.5,163.167 133.5,164.5C 133.219,162.037 132.219,159.87 130.5,158C 129.181,157.805 127.847,157.972 126.5,158.5C 126.973,157.094 127.973,156.427 129.5,156.5C 131.394,155.952 133.06,154.952 134.5,153.5C 137.833,154.167 139.167,156.167 138.5,159.5 Z"/></g>
<g><path style="opacity:0.972" fill="#a7f3f6" d="M 133.5,164.5 C 131.999,165.752 130.332,166.752 128.5,167.5C 124.07,167.989 121.737,165.989 121.5,161.5C 122.899,160.11 124.566,159.11 126.5,158.5C 127.847,157.972 129.181,157.805 130.5,158C 132.219,159.87 133.219,162.037 133.5,164.5 Z"/></g>
<g><path style="opacity:0.076" fill="#49b5be" d="M 66.5,159.5 C 68.4832,160.471 70.4832,161.471 72.5,162.5C 72.0198,165.443 71.0198,168.11 69.5,170.5C 66.0078,169.59 63.0078,167.924 60.5,165.5C 61.5,165.5 62.5,165.5 63.5,165.5C 63.6833,163.012 64.6833,161.012 66.5,159.5 Z"/></g>
<g><path style="opacity:0.2" fill="#50bec8" d="M 62.5,156.5 C 64.2303,157.026 65.5637,158.026 66.5,159.5C 64.6833,161.012 63.6833,163.012 63.5,165.5C 62.5,165.5 61.5,165.5 60.5,165.5C 58.7697,164.974 57.4363,163.974 56.5,162.5C 60.1667,162.167 62.1667,160.167 62.5,156.5 Z"/></g>
<g><path style="opacity:0.01" fill="#61c8ce" d="M 72.5,162.5 C 76.8132,163.942 77.6465,166.609 75,170.5C 73.0565,171.807 71.2232,171.807 69.5,170.5C 71.0198,168.11 72.0198,165.443 72.5,162.5 Z"/></g>
<g><path style="opacity:0.794" fill="#92eaef" d="M 121.5,161.5 C 121.737,165.989 124.07,167.989 128.5,167.5C 125.912,169.625 122.912,170.958 119.5,171.5C 114.768,172.884 112.434,170.884 112.5,165.5C 114.38,165.771 115.713,165.104 116.5,163.5C 117.93,162.463 119.597,161.796 121.5,161.5 Z"/></g>
<g><path style="opacity:0.432" fill="#6ed8df" d="M 109.5,165.5 C 107.144,170.798 108.81,173.464 114.5,173.5C 113.432,174.434 112.099,174.768 110.5,174.5C 104.612,174.742 102.945,172.076 105.5,166.5C 106.833,166.167 108.167,165.833 109.5,165.5 Z"/></g>
<g><path style="opacity:0.538" fill="#7ee2e8" d="M 116.5,163.5 C 115.713,165.104 114.38,165.771 112.5,165.5C 112.434,170.884 114.768,172.884 119.5,171.5C 118.22,172.931 116.553,173.598 114.5,173.5C 108.81,173.464 107.144,170.798 109.5,165.5C 111.833,164.833 114.167,164.167 116.5,163.5 Z"/></g>
<g><path style="opacity:0.081" fill="#50bbc3" d="M 96.5,167.5 C 95.1783,169.802 95.1783,172.135 96.5,174.5C 99.4281,175.484 102.428,175.817 105.5,175.5C 97.5521,176.995 89.5521,176.662 81.5,174.5C 80.2234,171.966 80.2234,169.466 81.5,167C 86.4884,166.913 91.4884,167.08 96.5,167.5 Z"/></g>
<g><path style="opacity:0.282" fill="#5bc9d2" d="M 105.5,166.5 C 102.945,172.076 104.612,174.742 110.5,174.5C 109.081,175.451 107.415,175.784 105.5,175.5C 102.428,175.817 99.4281,175.484 96.5,174.5C 95.1783,172.135 95.1783,169.802 96.5,167.5C 99.5176,167.296 102.518,166.963 105.5,166.5 Z"/></g>
</svg>
