<?xml version="1.0" encoding="UTF-8"?>
<!DOCTYPE svg PUBLIC "-//W3C//DTD SVG 1.1//EN" "http://www.w3.org/Graphics/SVG/1.1/DTD/svg11.dtd">
<svg xmlns="http://www.w3.org/2000/svg" version="1.1" width="188px" height="188px" style="shape-rendering:geometricPrecision; text-rendering:geometricPrecision; image-rendering:optimizeQuality; fill-rule:evenodd; clip-rule:evenodd" xmlns:xlink="http://www.w3.org/1999/xlink">
<g><path style="opacity:0.921" fill="#a4f2f6" d="M 150.5,23.5 C 145.848,25.1573 141.181,26.824 136.5,28.5C 135.5,28.5 134.5,28.5 133.5,28.5C 133.279,25.7212 133.612,23.0545 134.5,20.5C 137.088,18.4082 140.088,17.0749 143.5,16.5C 147.87,15.5373 152.203,15.5373 156.5,16.5C 157.223,18.1639 156.89,19.8306 155.5,21.5C 153.709,22.1698 152.042,22.8365 150.5,23.5 Z"/></g>
<g><path style="opacity:0.716" fill="#8ee9ef" d="M 166.5,21.5 C 166.67,22.8221 166.337,23.9887 165.5,25C 163.05,26.0603 160.717,26.227 158.5,25.5C 156.087,23.9493 153.421,23.2826 150.5,23.5C 152.042,22.8365 153.709,22.1698 155.5,21.5C 156.89,19.8306 157.223,18.1639 156.5,16.5C 152.203,15.5373 147.87,15.5373 143.5,16.5C 152.322,12.7414 159.989,14.4081 166.5,21.5 Z"/></g>
<g><path style="opacity:0.565" fill="#81e3e9" d="M 134.5,20.5 C 133.612,23.0545 133.279,25.7212 133.5,28.5C 134.5,28.5 135.5,28.5 136.5,28.5C 133.502,30.666 130.168,32.3326 126.5,33.5C 122.092,31.6362 121.425,28.8028 124.5,25C 127.736,23.2138 131.07,21.7138 134.5,20.5 Z"/></g>
<g><path style="opacity:0.273" fill="#60ced6" d="M 166.5,21.5 C 168.585,23.6845 169.585,26.3511 169.5,29.5C 169.845,32.488 168.512,33.8213 165.5,33.5C 163.886,33.1971 162.552,32.5305 161.5,31.5C 160.877,29.2895 159.877,27.2895 158.5,25.5C 160.717,26.227 163.05,26.0603 165.5,25C 166.337,23.9887 166.67,22.8221 166.5,21.5 Z"/></g>
<g><path style="opacity:0.088" fill="#4bb7c0" d="M 101.5,46.5 C 101.586,45.5041 101.252,44.6708 100.5,44C 98.7834,42.4412 96.7834,41.6079 94.5,41.5C 98.9365,38.4411 103.603,35.6078 108.5,33C 113.498,31.6703 115.664,33.5036 115,38.5C 110.857,41.8194 106.357,44.4861 101.5,46.5 Z"/></g>
<g><path style="opacity:0.11" fill="#50bcc4" d="M 169.5,29.5 C 170.643,32.9758 170.81,36.6425 170,40.5C 169.934,44.2335 169.101,47.7335 167.5,51C 165.231,51.7581 163.064,51.5914 161,50.5C 160.898,44.1749 161.065,37.8416 161.5,31.5C 162.552,32.5305 163.886,33.1971 165.5,33.5C 168.512,33.8213 169.845,32.488 169.5,29.5 Z"/></g>
<g><path style="opacity:0.482" fill="#78dfe6" d="M 141.5,52.5 C 139.712,52.7852 138.045,52.4519 136.5,51.5C 134.226,48.6962 133.56,45.6962 134.5,42.5C 142.094,39.9278 145.26,42.5944 144,50.5C 143.292,51.3805 142.458,52.0472 141.5,52.5 Z"/></g>
<g><path style="opacity:0.416" fill="#60cdd6" d="M 94.5,41.5 C 96.7834,41.6079 98.7834,42.4412 100.5,44C 101.252,44.6708 101.586,45.5041 101.5,46.5C 96.8698,49.4864 92.2031,52.4864 87.5,55.5C 86.6802,51.8997 84.3469,49.8997 80.5,49.5C 84.833,46.331 89.4997,43.6643 94.5,41.5 Z"/></g>
<g><path style="opacity:0.087" fill="#4fbbc3" d="M 125.5,45.5 C 125.389,46.1174 125.056,46.6174 124.5,47C 125.991,49.4942 127.491,51.9942 129,54.5C 130.011,55.3366 131.178,55.67 132.5,55.5C 125.576,59.1429 118.242,61.8096 110.5,63.5C 109.939,60.538 108.939,57.7047 107.5,55C 112.766,50.5325 118.766,47.3658 125.5,45.5 Z"/></g>
<g><path style="opacity:0.422" fill="#66d2db" d="M 134.5,42.5 C 133.56,45.6962 134.226,48.6962 136.5,51.5C 138.045,52.4519 139.712,52.7852 141.5,52.5C 138.785,54.0719 135.785,55.0719 132.5,55.5C 131.178,55.67 130.011,55.3366 129,54.5C 127.491,51.9942 125.991,49.4942 124.5,47C 125.056,46.6174 125.389,46.1174 125.5,45.5C 128.327,44.0417 131.327,43.0417 134.5,42.5 Z"/></g>
<g><path style="opacity:0.569" fill="#75dce3" d="M 80.5,49.5 C 84.3469,49.8997 86.6802,51.8997 87.5,55.5C 83.9663,57.7664 80.2996,59.7664 76.5,61.5C 75.5702,57.9074 73.2368,56.2407 69.5,56.5C 72.894,53.7795 76.5606,51.4462 80.5,49.5 Z"/></g>
<g><path style="opacity:0.087" fill="#50bcc4" d="M 87.5,79.5 C 86.9078,76.3093 85.7411,73.3093 84,70.5C 82.9887,69.6634 81.8221,69.33 80.5,69.5C 86.7716,65.0229 93.4383,61.0229 100.5,57.5C 102.815,60.2424 104.482,63.4091 105.5,67C 99.6755,71.4128 93.6755,75.5795 87.5,79.5 Z"/></g>
<g><path style="opacity:0.838" fill="#91ebf0" d="M 69.5,56.5 C 73.2368,56.2407 75.5702,57.9074 76.5,61.5C 71.4734,65.8533 66.14,69.8533 60.5,73.5C 59.8789,70.8787 58.2123,69.212 55.5,68.5C 53.4084,70.6049 51.0751,72.2716 48.5,73.5C 54.6066,66.7264 61.6066,61.0598 69.5,56.5 Z"/></g>
<g><path style="opacity:0.144" fill="#4fbbc3" d="M 164.5,80.5 C 164.5,78.8333 164.5,77.1667 164.5,75.5C 161.721,75.2786 159.054,75.612 156.5,76.5C 157.392,70.1482 158.392,63.8149 159.5,57.5C 162.167,57.5 164.833,57.5 167.5,57.5C 167.321,65.4077 166.321,73.0744 164.5,80.5 Z"/></g>
<g><path style="opacity:0.395" fill="#60ced6" d="M 148.5,75.5 C 145.846,73.7286 142.846,72.3953 139.5,71.5C 138.265,72.3398 137.265,73.3398 136.5,74.5C 136.76,70.6981 137.594,67.0314 139,63.5C 142.619,60.6572 145.952,60.9905 149,64.5C 149.81,68.3575 149.643,72.0242 148.5,75.5 Z"/></g>
<g><path style="opacity:0.971" fill="#a4f2f6" d="M 60.5,73.5 C 58.1377,76.192 55.8044,78.8587 53.5,81.5C 52.5454,78.5452 50.5454,76.5452 47.5,75.5C 47.3284,74.5084 47.6618,73.8417 48.5,73.5C 51.0751,72.2716 53.4084,70.6049 55.5,68.5C 58.2123,69.212 59.8789,70.8787 60.5,73.5 Z"/></g>
<g><path style="opacity:0.48" fill="#71dbe2" d="M 148.5,75.5 C 148.468,80.3907 147.801,85.0574 146.5,89.5C 147.737,81.763 144.404,78.4297 136.5,79.5C 136.737,80.791 136.404,81.791 135.5,82.5C 135.833,79.8333 136.167,77.1667 136.5,74.5C 137.265,73.3398 138.265,72.3398 139.5,71.5C 142.846,72.3953 145.846,73.7286 148.5,75.5 Z"/></g>
<g><path style="opacity:0.682" fill="#84e4ea" d="M 80.5,83.5 C 74.9798,90.6006 70.3131,90.1006 66.5,82C 67.6297,78.3705 69.963,75.8705 73.5,74.5C 74.8471,73.8288 76.0138,73.8288 77,74.5C 78.1798,77.5212 79.3465,80.5212 80.5,83.5 Z"/></g>
<g><path style="opacity:0.443" fill="#69d5dd" d="M 80.5,69.5 C 81.8221,69.33 82.9887,69.6634 84,70.5C 85.7411,73.3093 86.9078,76.3093 87.5,79.5C 85.3021,81.0981 82.9687,82.4314 80.5,83.5C 79.3465,80.5212 78.1798,77.5212 77,74.5C 76.0138,73.8288 74.8471,73.8288 73.5,74.5C 75.5313,72.4776 77.8646,70.8109 80.5,69.5 Z"/></g>
<g><path style="opacity:0.973" fill="#a8f3f7" d="M 47.5,75.5 C 50.5454,76.5452 52.5454,78.5452 53.5,81.5C 51.1023,84.5712 49.1023,87.9046 47.5,91.5C 42.8811,90.8732 40.8811,88.2065 41.5,83.5C 43.0252,80.437 45.0252,77.7703 47.5,75.5 Z"/></g>
<g><path style="opacity:0.45" fill="#69d5dc" d="M 164.5,80.5 C 164.461,84.7329 163.795,88.7329 162.5,92.5C 162.5,89.8333 162.5,87.1667 162.5,84.5C 160.05,84.298 157.717,84.6314 155.5,85.5C 155.508,82.4552 155.841,79.4552 156.5,76.5C 159.054,75.612 161.721,75.2786 164.5,75.5C 164.5,77.1667 164.5,78.8333 164.5,80.5 Z"/></g>
<g><path style="opacity:0.968" fill="#a1f1f5" d="M 109.5,79.5 C 110.5,79.5 111.5,79.5 112.5,79.5C 111.889,82.7209 110.722,85.7209 109,88.5C 106.341,90.0602 105.174,92.3935 105.5,95.5C 104.167,96.1667 102.833,96.8333 101.5,97.5C 101.751,94.091 101.417,90.7577 100.5,87.5C 98.9052,86.5661 97.2385,86.5661 95.5,87.5C 99.5067,83.8255 104.173,81.1588 109.5,79.5 Z"/></g>
<g><path style="opacity:0.677" fill="#86e6eb" d="M 146.5,89.5 C 146.461,93.7329 145.795,97.7329 144.5,101.5C 146.691,92.3571 143.358,89.0238 134.5,91.5C 134.508,88.4552 134.841,85.4552 135.5,82.5C 136.404,81.791 136.737,80.791 136.5,79.5C 144.404,78.4297 147.737,81.763 146.5,89.5 Z"/></g>
<g><path style="opacity:0.376" fill="#6fd8e0" d="M 124.5,76.5 C 122.327,82.3298 118.993,87.4964 114.5,92C 113.255,92.7914 111.922,93.2914 110.5,93.5C 108.716,93.8925 107.05,94.5592 105.5,95.5C 105.174,92.3935 106.341,90.0602 109,88.5C 110.722,85.7209 111.889,82.7209 112.5,79.5C 111.5,79.5 110.5,79.5 109.5,79.5C 113.526,76.1029 118.192,74.6029 123.5,75C 124.056,75.3826 124.389,75.8826 124.5,76.5 Z"/></g>
<g><path style="opacity:0.975" fill="#a9f4f7" d="M 101.5,97.5 C 100.101,98.8897 98.4341,99.8897 96.5,100.5C 92.6252,99.8229 89.2918,97.9896 86.5,95C 88.0414,93.6288 89.3747,92.1288 90.5,90.5C 91.6594,88.7497 93.326,87.7497 95.5,87.5C 97.2385,86.5661 98.9052,86.5661 100.5,87.5C 101.417,90.7577 101.751,94.091 101.5,97.5 Z"/></g>
<g><path style="opacity:0.872" fill="#9beff3" d="M 41.5,83.5 C 40.8811,88.2065 42.8811,90.8732 47.5,91.5C 45.5718,95.2847 44.2384,99.2847 43.5,103.5C 42.8423,104.398 42.1757,105.398 41.5,106.5C 36.3591,103.058 35.0258,98.3915 37.5,92.5C 38.0749,89.0884 39.4082,86.0884 41.5,83.5 Z"/></g>
<g><path style="opacity:0.154" fill="#52c0c9" d="M 124.5,76.5 C 125.499,81.0054 125.499,85.6721 124.5,90.5C 120.357,95.3866 115.357,98.3866 109.5,99.5C 110.341,97.6208 110.675,95.6208 110.5,93.5C 111.922,93.2914 113.255,92.7914 114.5,92C 118.993,87.4964 122.327,82.3298 124.5,76.5 Z"/></g>
<g><path style="opacity:0.684" fill="#8ce8ed" d="M 162.5,92.5 C 161.903,99.7632 160.57,106.763 158.5,113.5C 158.833,109.5 159.167,105.5 159.5,101.5C 157.473,101.338 155.473,101.505 153.5,102C 152.915,103.302 152.249,104.469 151.5,105.5C 152.472,98.6374 153.806,91.9707 155.5,85.5C 157.717,84.6314 160.05,84.298 162.5,84.5C 162.5,87.1667 162.5,89.8333 162.5,92.5 Z"/></g>
<g><path style="opacity:0.79" fill="#94ecf1" d="M 144.5,101.5 C 144.784,103.415 144.451,105.081 143.5,106.5C 143.756,104.208 143.423,102.041 142.5,100C 139.947,99.2389 137.447,98.4056 135,97.5C 134.623,98.9423 133.79,99.9423 132.5,100.5C 132.676,97.2727 133.343,94.2727 134.5,91.5C 143.358,89.0238 146.691,92.3571 144.5,101.5 Z"/></g>
<g><path style="opacity:0.087" fill="#4ab6be" d="M 124.5,90.5 C 123.833,94.5 123.167,98.5 122.5,102.5C 118.317,103.907 113.984,104.574 109.5,104.5C 109.5,102.833 109.5,101.167 109.5,99.5C 115.357,98.3866 120.357,95.3866 124.5,90.5 Z"/></g>
<g><path style="opacity:0.834" fill="#97edf2" d="M 90.5,90.5 C 89.3747,92.1288 88.0414,93.6288 86.5,95C 89.2918,97.9896 92.6252,99.8229 96.5,100.5C 95.2485,102.001 94.2485,103.668 93.5,105.5C 89.1186,105.628 84.7853,105.295 80.5,104.5C 80.5,103.167 80.5,101.833 80.5,100.5C 82.8548,96.1452 86.1881,92.8119 90.5,90.5 Z"/></g>
<g><path style="opacity:0.836" fill="#9df0f4" d="M 66.5,96.5 C 66.5,98.1667 66.5,99.8333 66.5,101.5C 64.1667,101.5 61.8333,101.5 59.5,101.5C 59.1014,104.696 58.1014,107.696 56.5,110.5C 55.5091,106.555 55.1758,102.555 55.5,98.5C 57.0795,93.2473 60.4128,91.7473 65.5,94C 66.2524,94.6708 66.5858,95.5041 66.5,96.5 Z"/></g>
<g><path style="opacity:0.754" fill="#90ebf0" d="M 66.5,96.5 C 67.8333,98.5 67.8333,100.5 66.5,102.5C 62.8168,109.702 59.9834,117.368 58,125.5C 56.2532,122.79 55.2532,119.79 55,116.5C 54.501,112.179 54.3343,107.846 54.5,103.5C 54.2155,101.585 54.5489,99.9187 55.5,98.5C 55.1758,102.555 55.5091,106.555 56.5,110.5C 58.1014,107.696 59.1014,104.696 59.5,101.5C 61.8333,101.5 64.1667,101.5 66.5,101.5C 66.5,99.8333 66.5,98.1667 66.5,96.5 Z"/></g>
<g><path style="opacity:0.945" fill="#a1f1f5" d="M 143.5,106.5 C 143.246,111.444 142.246,116.111 140.5,120.5C 141.367,116.465 141.367,112.465 140.5,108.5C 137.601,107.358 134.601,106.692 131.5,106.5C 131.517,104.435 131.85,102.435 132.5,100.5C 133.79,99.9423 134.623,98.9423 135,97.5C 137.447,98.4056 139.947,99.2389 142.5,100C 143.423,102.041 143.756,104.208 143.5,106.5 Z"/></g>
<g><path style="opacity:0.014" fill="#5ac3c9" d="M 122.5,102.5 C 121.885,105.794 120.885,108.961 119.5,112C 116.153,111.501 112.819,110.667 109.5,109.5C 109.5,107.833 109.5,106.167 109.5,104.5C 113.984,104.574 118.317,103.907 122.5,102.5 Z"/></g>
<g><path style="opacity:0.998" fill="#a6f3f6" d="M 158.5,113.5 C 159.136,120.376 156.302,123.043 150,121.5C 149.362,120.391 148.862,119.225 148.5,118C 149.442,113.781 150.442,109.614 151.5,105.5C 152.249,104.469 152.915,103.302 153.5,102C 155.473,101.505 157.473,101.338 159.5,101.5C 159.167,105.5 158.833,109.5 158.5,113.5 Z"/></g>
<g><path style="opacity:0.695" fill="#88e7ec" d="M 37.5,92.5 C 35.0258,98.3915 36.3591,103.058 41.5,106.5C 42.1757,105.398 42.8423,104.398 43.5,103.5C 42.746,108.463 42.4126,113.463 42.5,118.5C 42.7989,120.604 42.4656,122.604 41.5,124.5C 39.5171,123.018 37.6837,121.351 36,119.5C 34.6115,114.628 34.1115,109.628 34.5,104.5C 34.5841,100.163 35.5841,96.1629 37.5,92.5 Z"/></g>
<g><path style="opacity:0.999" fill="#acf5f8" d="M 131.5,106.5 C 134.601,106.692 137.601,107.358 140.5,108.5C 141.367,112.465 141.367,116.465 140.5,120.5C 140.5,121.5 140.5,122.5 140.5,123.5C 138.259,124.3 137.259,125.966 137.5,128.5C 132.546,127.873 129.546,125.206 128.5,120.5C 129.191,115.74 130.191,111.074 131.5,106.5 Z"/></g>
<g><path style="opacity:0.577" fill="#7fe3e8" d="M 66.5,102.5 C 66.0578,106.154 65.7244,109.821 65.5,113.5C 66.1436,119.82 65.1436,125.82 62.5,131.5C 61.5832,132.127 60.5832,132.461 59.5,132.5C 54.0844,123.429 52.4178,113.762 54.5,103.5C 54.3343,107.846 54.501,112.179 55,116.5C 55.2532,119.79 56.2532,122.79 58,125.5C 59.9834,117.368 62.8168,109.702 66.5,102.5 Z"/></g>
<g><path style="opacity:0.557" fill="#7fe3e9" d="M 80.5,100.5 C 80.5,101.833 80.5,103.167 80.5,104.5C 84.7853,105.295 89.1186,105.628 93.5,105.5C 92.8902,106.391 92.5569,107.391 92.5,108.5C 90.2998,112.861 86.7998,116.194 82,118.5C 81.5831,117.244 80.7498,116.577 79.5,116.5C 77.9191,110.924 78.2524,105.59 80.5,100.5 Z"/></g>
<g><path style="opacity:0.089" fill="#4fbac2" d="M 101.5,130.5 C 101.666,126.154 101.499,121.821 101,117.5C 100.283,116.956 99.7828,116.289 99.5,115.5C 102.862,115.93 105.695,114.93 108,112.5C 111.339,114.673 114.172,117.34 116.5,120.5C 113.41,126.555 108.41,129.888 101.5,130.5 Z"/></g>
<g><path style="opacity:0.334" fill="#5ac9d1" d="M 94.5,113.5 C 95.8195,114.942 97.4862,115.608 99.5,115.5C 99.7828,116.289 100.283,116.956 101,117.5C 101.499,121.821 101.666,126.154 101.5,130.5C 98.0901,130.543 94.7568,130.043 91.5,129C 90.0577,128.623 89.0577,127.79 88.5,126.5C 89.3764,126.631 90.0431,126.298 90.5,125.5C 91.9131,122.339 93.5797,119.339 95.5,116.5C 94.8728,115.583 94.5394,114.583 94.5,113.5 Z"/></g>
<g><path style="opacity:0.409" fill="#6bd6de" d="M 92.5,108.5 C 92.4021,110.553 93.0687,112.22 94.5,113.5C 94.5394,114.583 94.8728,115.583 95.5,116.5C 93.5797,119.339 91.9131,122.339 90.5,125.5C 90.0431,126.298 89.3764,126.631 88.5,126.5C 84.1283,124.459 81.1283,121.125 79.5,116.5C 80.7498,116.577 81.5831,117.244 82,118.5C 86.7998,116.194 90.2998,112.861 92.5,108.5 Z"/></g>
<g><path style="opacity:0.497" fill="#72dae2" d="M 34.5,104.5 C 34.1115,109.628 34.6115,114.628 36,119.5C 37.6837,121.351 39.5171,123.018 41.5,124.5C 42.4656,122.604 42.7989,120.604 42.5,118.5C 44.0588,122.598 44.5588,126.931 44,131.5C 41.0844,133.013 38.4177,132.68 36,130.5C 33.5792,121.782 33.0792,113.116 34.5,104.5 Z"/></g>
<g><path style="opacity:0.475" fill="#71dae2" d="M 65.5,113.5 C 66.7974,117.733 68.1307,122.067 69.5,126.5C 69.395,130.319 68.5617,133.986 67,137.5C 65.5861,138.413 64.0861,138.413 62.5,137.5C 61.2485,135.999 60.2485,134.332 59.5,132.5C 60.5832,132.461 61.5832,132.127 62.5,131.5C 65.1436,125.82 66.1436,119.82 65.5,113.5 Z"/></g>
<g><path style="opacity:0.838" fill="#94ecf1" d="M 128.5,120.5 C 129.546,125.206 132.546,127.873 137.5,128.5C 137.259,125.966 138.259,124.3 140.5,123.5C 138.803,129.896 135.803,135.562 131.5,140.5C 125.547,139.874 122.88,136.54 123.5,130.5C 125.558,127.303 127.225,123.97 128.5,120.5 Z"/></g>
<g><path style="opacity:0.367" fill="#62cfd8" d="M 69.5,126.5 C 72.1379,129.474 74.8046,132.474 77.5,135.5C 78.2322,138.876 77.7322,142.21 76,145.5C 74.9887,146.337 73.8221,146.67 72.5,146.5C 68.5442,144.212 65.2109,141.212 62.5,137.5C 64.0861,138.413 65.5861,138.413 67,137.5C 68.5617,133.986 69.395,130.319 69.5,126.5 Z"/></g>
<g><path style="opacity:0.525" fill="#75dce3" d="M 123.5,130.5 C 122.88,136.54 125.547,139.874 131.5,140.5C 129.766,143.2 127.432,145.2 124.5,146.5C 123.178,146.67 122.011,146.337 121,145.5C 118.997,142.5 118.164,139.167 118.5,135.5C 120.527,134.139 122.194,132.473 123.5,130.5 Z"/></g>
<g><path style="opacity:0.327" fill="#5ac9d1" d="M 118.5,135.5 C 118.164,139.167 118.997,142.5 121,145.5C 122.011,146.337 123.178,146.67 124.5,146.5C 122.664,148.588 120.331,149.921 117.5,150.5C 116.5,150.5 115.5,150.5 114.5,150.5C 113.886,146.865 113.552,143.198 113.5,139.5C 115.142,138.197 116.809,136.864 118.5,135.5 Z"/></g>
<g><path style="opacity:0.122" fill="#4dbac3" d="M 77.5,135.5 C 81.0732,137.784 84.7399,139.784 88.5,141.5C 86.5944,144.983 84.9278,148.65 83.5,152.5C 79.3447,151.258 75.678,149.258 72.5,146.5C 73.8221,146.67 74.9887,146.337 76,145.5C 77.7322,142.21 78.2322,138.876 77.5,135.5 Z"/></g>
<g><path style="opacity:0.088" fill="#4fbac1" d="M 88.5,141.5 C 91.4284,141.852 94.2617,142.518 97,143.5C 98.4095,154.714 93.9095,157.714 83.5,152.5C 84.9278,148.65 86.5944,144.983 88.5,141.5 Z"/></g>
<g><path style="opacity:0.085" fill="#4fbac2" d="M 113.5,139.5 C 113.552,143.198 113.886,146.865 114.5,150.5C 115.5,150.5 116.5,150.5 117.5,150.5C 112.547,153.404 107.214,154.404 101.5,153.5C 102.254,150.223 102.754,146.89 103,143.5C 106.468,142.067 109.968,140.733 113.5,139.5 Z"/></g>
<g><path style="opacity:0.72" fill="#87e4ea" d="M 144.5,153.5 C 144.374,150.532 142.874,148.532 140,147.5C 137.564,150.447 134.731,152.78 131.5,154.5C 135.533,149.8 139.866,145.467 144.5,141.5C 150.72,145.199 150.72,149.199 144.5,153.5 Z"/></g>
<g><path style="opacity:0.998" fill="#aaf4f8" d="M 144.5,153.5 C 142.167,156.5 139.5,159.167 136.5,161.5C 131.962,160.989 130.296,158.656 131.5,154.5C 134.731,152.78 137.564,150.447 140,147.5C 142.874,148.532 144.374,150.532 144.5,153.5 Z"/></g>
<g><path style="opacity:0.469" fill="#6ed8df" d="M 69.5,160.5 C 70.016,165.186 68.016,167.519 63.5,167.5C 58.5796,165.581 54.913,162.248 52.5,157.5C 53.9032,153.746 56.5698,152.579 60.5,154C 63.3785,156.385 66.3785,158.552 69.5,160.5 Z"/></g>
<g><path style="opacity:0.691" fill="#8ce8ee" d="M 131.5,154.5 C 130.296,158.656 131.962,160.989 136.5,161.5C 132.521,165.494 127.855,168.494 122.5,170.5C 118.243,172.87 115.576,171.704 114.5,167C 116.132,165.947 117.465,164.447 118.5,162.5C 123.001,160.084 127.334,157.417 131.5,154.5 Z"/></g>
<g><path style="opacity:0.087" fill="#50bbc3" d="M 69.5,160.5 C 74.0319,162.736 78.5319,165.069 83,167.5C 83.1402,169.521 83.3068,171.355 83.5,173C 81.728,174.487 79.728,174.82 77.5,174C 72.3819,172.605 67.7152,170.438 63.5,167.5C 68.016,167.519 70.016,165.186 69.5,160.5 Z"/></g>
<g><path style="opacity:0.083" fill="#50bcc4" d="M 109.5,165.5 C 109.337,167.857 109.503,170.19 110,172.5C 111.356,173.38 112.856,173.714 114.5,173.5C 106.582,176.364 98.4156,177.031 90,175.5C 89.231,172.901 89.3977,170.401 90.5,168C 96.9227,167.675 103.256,166.841 109.5,165.5 Z"/></g>
<g><path style="opacity:0.342" fill="#69d4dc" d="M 118.5,162.5 C 117.465,164.447 116.132,165.947 114.5,167C 115.576,171.704 118.243,172.87 122.5,170.5C 120.11,172.02 117.443,173.02 114.5,173.5C 112.856,173.714 111.356,173.38 110,172.5C 109.503,170.19 109.337,167.857 109.5,165.5C 112.574,164.698 115.574,163.698 118.5,162.5 Z"/></g>
</svg>
