<?xml version="1.0" encoding="UTF-8"?>
<!DOCTYPE svg PUBLIC "-//W3C//DTD SVG 1.1//EN" "http://www.w3.org/Graphics/SVG/1.1/DTD/svg11.dtd">
<svg xmlns="http://www.w3.org/2000/svg" version="1.1" width="188px" height="188px" style="shape-rendering:geometricPrecision; text-rendering:geometricPrecision; image-rendering:optimizeQuality; fill-rule:evenodd; clip-rule:evenodd" xmlns:xlink="http://www.w3.org/1999/xlink">
<g><path style="opacity:0.832" fill="#8ce8ed" d="M 164.5,19.5 C 164.167,23.1667 162.167,25.1667 158.5,25.5C 153.059,22.9557 147.726,23.2891 142.5,26.5C 143.265,23.9039 143.599,21.2372 143.5,18.5C 141.833,18.5 140.167,18.5 138.5,18.5C 145.034,14.4955 152.034,13.6621 159.5,16C 161.584,16.6972 163.251,17.8639 164.5,19.5 Z"/></g>
<g><path style="opacity:0.963" fill="#a2f1f5" d="M 138.5,18.5 C 140.167,18.5 141.833,18.5 143.5,18.5C 143.599,21.2372 143.265,23.9039 142.5,26.5C 137.735,28.3815 133.068,30.5482 128.5,33C 123.504,33.6643 121.67,31.4977 123,26.5C 127.828,23.1693 132.995,20.5027 138.5,18.5 Z"/></g>
<g><path style="opacity:0.088" fill="#53bec6" d="M 164.5,19.5 C 167.607,22.04 169.44,25.3733 170,29.5C 170.534,33.859 170.368,38.1924 169.5,42.5C 166.833,42.5 164.167,42.5 161.5,42.5C 162.198,36.4179 161.198,30.7512 158.5,25.5C 162.167,25.1667 164.167,23.1667 164.5,19.5 Z"/></g>
<g><path style="opacity:0.057" fill="#59c2c9" d="M 100.5,47.5 C 99.5677,44.5673 97.5677,42.5673 94.5,41.5C 98.5523,38.1404 103.219,35.8071 108.5,34.5C 110.626,35.3984 112.626,36.565 114.5,38C 110.361,41.906 105.694,45.0727 100.5,47.5 Z"/></g>
<g><path style="opacity:0.688" fill="#8eeaef" d="M 138.5,53.5 C 132.462,52.724 129.795,49.3906 130.5,43.5C 133.1,42.6347 135.767,41.968 138.5,41.5C 143.857,42.1992 145.69,45.1992 144,50.5C 142.736,52.607 140.903,53.607 138.5,53.5 Z"/></g>
<g><path style="opacity:0.179" fill="#4fbcc5" d="M 94.5,41.5 C 97.5677,42.5673 99.5677,44.5673 100.5,47.5C 95.3343,50.2484 90.3343,53.2484 85.5,56.5C 85.0268,52.3617 82.6935,50.3617 78.5,50.5C 83.5016,46.9969 88.835,43.9969 94.5,41.5 Z"/></g>
<g><path style="opacity:0.18" fill="#55c3cc" d="M 120.5,47.5 C 120.077,48.2646 119.743,49.0979 119.5,50C 121.2,52.2309 122.2,54.7309 122.5,57.5C 125.127,56.9084 127.794,56.5751 130.5,56.5C 126.576,58.1472 122.576,59.8139 118.5,61.5C 116.983,61.4894 115.816,60.8228 115,59.5C 114.094,56.6902 112.927,54.0236 111.5,51.5C 114.378,49.8946 117.378,48.5612 120.5,47.5 Z"/></g>
<g><path style="opacity:0.361" fill="#6ed8e0" d="M 130.5,43.5 C 129.795,49.3906 132.462,52.724 138.5,53.5C 136.064,54.871 133.397,55.871 130.5,56.5C 127.794,56.5751 125.127,56.9084 122.5,57.5C 122.2,54.7309 121.2,52.2309 119.5,50C 119.743,49.0979 120.077,48.2646 120.5,47.5C 123.749,45.9723 127.082,44.6389 130.5,43.5 Z"/></g>
<g><path style="opacity:0.09" fill="#53bdc5" d="M 111.5,51.5 C 112.927,54.0236 114.094,56.6902 115,59.5C 115.816,60.8228 116.983,61.4894 118.5,61.5C 113.925,63.7874 109.259,66.1207 104.5,68.5C 101.618,65.74 100.118,62.4066 100,58.5C 103.445,55.5277 107.278,53.1943 111.5,51.5 Z"/></g>
<g><path style="opacity:0.41" fill="#63d0d8" d="M 78.5,50.5 C 82.6935,50.3617 85.0268,52.3617 85.5,56.5C 81.6641,58.5836 77.9974,60.917 74.5,63.5C 72.7304,59.3969 69.7304,58.0635 65.5,59.5C 69.5346,56.1427 73.8679,53.1427 78.5,50.5 Z"/></g>
<g><path style="opacity:0.088" fill="#53bfc7" d="M 165.5,73.5 C 165.5,72.1667 165.5,70.8333 165.5,69.5C 162.721,69.2786 160.054,69.612 157.5,70.5C 158.247,63.4376 159.414,56.4376 161,49.5C 163.381,48.565 165.881,48.2317 168.5,48.5C 168.55,57.096 167.55,65.4293 165.5,73.5 Z"/></g>
<g><path style="opacity:0.574" fill="#7be0e7" d="M 74.5,63.5 C 70.5,66.5 66.5,69.5 62.5,72.5C 62.205,68.8715 60.205,66.8715 56.5,66.5C 58.9485,63.4442 61.9485,61.1108 65.5,59.5C 69.7304,58.0635 72.7304,59.3969 74.5,63.5 Z"/></g>
<g><path style="opacity:0.057" fill="#58c2c9" d="M 90.5,76.5 C 89.1799,73.8599 87.8466,71.1932 86.5,68.5C 85.675,67.6143 84.675,67.281 83.5,67.5C 85.7686,66.0242 88.1019,64.5242 90.5,63C 91.7839,62.3162 92.9505,62.4829 94,63.5C 99.6052,69.8383 98.4385,74.1716 90.5,76.5 Z"/></g>
<g><path style="opacity:0.634" fill="#7ee1e8" d="M 147.5,82.5 C 147.5,79.8333 147.5,77.1667 147.5,74.5C 144.762,74.1489 142.096,73.4822 139.5,72.5C 138.482,73.1925 137.482,73.8592 136.5,74.5C 136.76,70.6981 137.594,67.0314 139,63.5C 146.112,59.6433 149.612,61.81 149.5,70C 149.328,74.3845 148.662,78.5511 147.5,82.5 Z"/></g>
<g><path style="opacity:0.833" fill="#8feaef" d="M 56.5,66.5 C 60.205,66.8715 62.205,68.8715 62.5,72.5C 58.8062,75.5271 55.4729,78.8604 52.5,82.5C 51.4327,76.366 48.766,75.366 44.5,79.5C 47.1129,73.887 51.1129,69.5537 56.5,66.5 Z"/></g>
<g><path style="opacity:0.69" fill="#87e6ec" d="M 125.5,81.5 C 124.732,82.2625 124.232,83.2625 124,84.5C 119.7,87.7981 115.7,91.4648 112,95.5C 111.722,94.5842 111.222,93.9175 110.5,93.5C 109.391,93.5569 108.391,93.8902 107.5,94.5C 108.397,90.3802 110.564,87.0469 114,84.5C 115.411,82.3496 116.245,80.0163 116.5,77.5C 115.5,77.5 114.5,77.5 113.5,77.5C 116.386,75.1538 119.72,74.3204 123.5,75C 125.229,76.7889 125.896,78.9556 125.5,81.5 Z"/></g>
<g><path style="opacity:0.176" fill="#4ebbc5" d="M 83.5,67.5 C 84.675,67.281 85.675,67.6143 86.5,68.5C 87.8466,71.1932 89.1799,73.8599 90.5,76.5C 87.8103,79.1846 84.8103,81.5179 81.5,83.5C 80.4619,79.8819 79.2952,76.2153 78,72.5C 76.9887,73.3366 75.8221,73.67 74.5,73.5C 77.2911,71.2651 80.2911,69.2651 83.5,67.5 Z"/></g>
<g><path style="opacity:0.458" fill="#6bd6dd" d="M 81.5,83.5 C 79.305,86.1835 76.4717,87.8502 73,88.5C 67.8618,87.0238 66.1951,83.6904 68,78.5C 69.9263,76.4611 72.093,74.7945 74.5,73.5C 75.8221,73.67 76.9887,73.3366 78,72.5C 79.2952,76.2153 80.4619,79.8819 81.5,83.5 Z"/></g>
<g><path style="opacity:0.972" fill="#a4f2f6" d="M 113.5,77.5 C 114.5,77.5 115.5,77.5 116.5,77.5C 116.245,80.0163 115.411,82.3496 114,84.5C 110.564,87.0469 108.397,90.3802 107.5,94.5C 105.5,95.5 103.5,96.5 101.5,97.5C 100.022,97.762 98.6888,97.4287 97.5,96.5C 95.5034,93.5777 94.8367,90.5777 95.5,87.5C 100.847,83.1559 106.847,79.8226 113.5,77.5 Z"/></g>
<g><path style="opacity:0.831" fill="#93ebf0" d="M 147.5,82.5 C 147.562,87.0758 146.895,91.4091 145.5,95.5C 147.884,86.8912 144.884,83.5579 136.5,85.5C 135.919,89.0711 134.919,92.4044 133.5,95.5C 134.407,88.4861 135.407,81.4861 136.5,74.5C 137.482,73.8592 138.482,73.1925 139.5,72.5C 142.096,73.4822 144.762,74.1489 147.5,74.5C 147.5,77.1667 147.5,79.8333 147.5,82.5 Z"/></g>
<g><path style="opacity:0.621" fill="#7ee1e7" d="M 165.5,73.5 C 165.236,80.0779 164.236,86.4112 162.5,92.5C 162.5,89.5 162.5,86.5 162.5,83.5C 160.801,83.3398 159.134,83.5065 157.5,84C 156.391,85.8761 155.391,87.7095 154.5,89.5C 155.222,83.112 156.222,76.7787 157.5,70.5C 160.054,69.612 162.721,69.2786 165.5,69.5C 165.5,70.8333 165.5,72.1667 165.5,73.5 Z"/></g>
<g><path style="opacity:0.968" fill="#a2f1f5" d="M 52.5,82.5 C 49.5478,87.4075 46.8811,92.4075 44.5,97.5C 46.7302,93.1185 45.7302,89.7852 41.5,87.5C 40.7348,88.6119 39.7348,89.2786 38.5,89.5C 39.4977,85.4945 41.4977,82.1612 44.5,79.5C 48.766,75.366 51.4327,76.366 52.5,82.5 Z"/></g>
<g><path style="opacity:0.963" fill="#a4f2f5" d="M 145.5,95.5 C 145.57,99.4248 144.903,103.091 143.5,106.5C 143.341,110.291 142.675,113.958 141.5,117.5C 140.521,118.765 139.521,120.099 138.5,121.5C 136.205,120.568 133.871,119.735 131.5,119C 130.577,116.959 130.244,114.792 130.5,112.5C 131.121,106.734 132.121,101.067 133.5,95.5C 134.919,92.4044 135.919,89.0711 136.5,85.5C 144.884,83.5579 147.884,86.8912 145.5,95.5 Z"/></g>
<g><path style="opacity:0.632" fill="#8be9ee" d="M 95.5,87.5 C 94.8367,90.5777 95.5034,93.5777 97.5,96.5C 98.6888,97.4287 100.022,97.762 101.5,97.5C 99.3805,99.3998 97.0472,101.066 94.5,102.5C 90.6379,101.572 86.9712,100.072 83.5,98C 84.2524,97.3292 84.5858,96.4959 84.5,95.5C 87.2724,91.6129 90.9391,88.9462 95.5,87.5 Z"/></g>
<g><path style="opacity:0.965" fill="#a6f3f7" d="M 44.5,97.5 C 44.4828,99.5648 44.1495,101.565 43.5,103.5C 42.8826,103.611 42.3826,103.944 42,104.5C 41.6667,110.833 41.3333,117.167 41,123.5C 34.89,118.69 32.7233,112.356 34.5,104.5C 34.7453,99.184 36.0786,94.184 38.5,89.5C 39.7348,89.2786 40.7348,88.6119 41.5,87.5C 45.7302,89.7852 46.7302,93.1185 44.5,97.5 Z"/></g>
<g><path style="opacity:0.956" fill="#a7f3f7" d="M 66.5,102.5 C 66.1667,102.5 65.8333,102.5 65.5,102.5C 64.0378,103.801 62.7044,105.301 61.5,107C 60.1255,111.625 58.4588,116.125 56.5,120.5C 54.7166,115.001 54.0499,109.334 54.5,103.5C 54.0666,94.398 57.8999,91.398 66,94.5C 67.6357,97.2268 67.8024,99.8934 66.5,102.5 Z"/></g>
<g><path style="opacity:0.996" fill="#aff6f9" d="M 143.5,106.5 C 142.596,107.209 142.263,108.209 142.5,109.5C 139.687,109.452 137.021,108.785 134.5,107.5C 133.54,103.861 133.54,100.195 134.5,96.5C 142.414,95.414 145.414,98.7473 143.5,106.5 Z"/></g>
<g><path style="opacity:0.997" fill="#a4f2f6" d="M 162.5,92.5 C 162.129,98.0755 161.129,103.409 159.5,108.5C 158.52,112.526 155.853,114.193 151.5,113.5C 151.5,111.167 151.5,108.833 151.5,106.5C 152.121,100.734 153.121,95.067 154.5,89.5C 155.391,87.7095 156.391,85.8761 157.5,84C 159.134,83.5065 160.801,83.3398 162.5,83.5C 162.5,86.5 162.5,89.5 162.5,92.5 Z"/></g>
<g><path style="opacity:0.325" fill="#67d3db" d="M 125.5,81.5 C 125.037,84.4824 124.704,87.4824 124.5,90.5C 123.208,92.2549 122.208,94.2549 121.5,96.5C 118.167,98.1667 114.833,99.8333 111.5,101.5C 110.614,100.675 110.281,99.675 110.5,98.5C 110.5,96.8333 110.5,95.1667 110.5,93.5C 111.222,93.9175 111.722,94.5842 112,95.5C 115.7,91.4648 119.7,87.7981 124,84.5C 124.232,83.2625 124.732,82.2625 125.5,81.5 Z"/></g>
<g><path style="opacity:0.882" fill="#9ceff4" d="M 65.5,102.5 C 64.786,109.133 64.286,115.8 64,122.5C 63.1656,125.172 62.3323,127.839 61.5,130.5C 60.675,131.386 59.675,131.719 58.5,131.5C 53.8937,122.504 52.5604,113.17 54.5,103.5C 54.0499,109.334 54.7166,115.001 56.5,120.5C 58.4588,116.125 60.1255,111.625 61.5,107C 62.7044,105.301 64.0378,103.801 65.5,102.5 Z"/></g>
<g><path style="opacity:0.466" fill="#73dce3" d="M 84.5,95.5 C 84.5858,96.4959 84.2524,97.3292 83.5,98C 86.9712,100.072 90.6379,101.572 94.5,102.5C 94.1075,104.284 93.4408,105.95 92.5,107.5C 88.8193,109.45 84.8193,110.783 80.5,111.5C 79.52,108.914 79.1866,106.247 79.5,103.5C 80.1514,100.197 81.818,97.5303 84.5,95.5 Z"/></g>
<g><path style="opacity:0.111" fill="#4fbbc5" d="M 124.5,90.5 C 123.381,97.8795 122.048,105.213 120.5,112.5C 115.694,112.354 111.694,110.688 108.5,107.5C 108.99,104.345 109.656,101.345 110.5,98.5C 110.281,99.675 110.614,100.675 111.5,101.5C 114.833,99.8333 118.167,98.1667 121.5,96.5C 122.208,94.2549 123.208,92.2549 124.5,90.5 Z"/></g>
<g><path style="opacity:0.054" fill="#58c1c8" d="M 108.5,107.5 C 111.694,110.688 115.694,112.354 120.5,112.5C 119.975,116.55 118.142,119.883 115,122.5C 112.667,119.833 110.333,117.167 108,114.5C 107.666,112.153 107.833,109.819 108.5,107.5 Z"/></g>
<g><path style="opacity:0.318" fill="#5eccd4" d="M 79.5,103.5 C 79.1866,106.247 79.52,108.914 80.5,111.5C 84.8193,110.783 88.8193,109.45 92.5,107.5C 92.5172,109.565 92.8505,111.565 93.5,113.5C 93.4606,114.583 93.1272,115.583 92.5,116.5C 90.0257,119.193 87.359,121.526 84.5,123.5C 78.8049,117.807 77.1382,111.14 79.5,103.5 Z"/></g>
<g><path style="opacity:0.786" fill="#89e6ec" d="M 151.5,106.5 C 151.5,108.833 151.5,111.167 151.5,113.5C 155.853,114.193 158.52,112.526 159.5,108.5C 159.476,113.439 158.142,117.939 155.5,122C 151.558,123.418 149.225,122.084 148.5,118C 149.327,113.993 150.327,110.16 151.5,106.5 Z"/></g>
<g><path style="opacity:0.797" fill="#91ebf0" d="M 65.5,102.5 C 65.8333,102.5 66.1667,102.5 66.5,102.5C 65.1667,107.833 65.1667,113.167 66.5,118.5C 68.1188,124.34 67.6188,130.006 65,135.5C 64.3292,136.252 63.4959,136.586 62.5,136.5C 60.9373,135.055 59.604,133.389 58.5,131.5C 59.675,131.719 60.675,131.386 61.5,130.5C 62.3323,127.839 63.1656,125.172 64,122.5C 64.286,115.8 64.786,109.133 65.5,102.5 Z"/></g>
<g><path style="opacity:0.789" fill="#8ee9ee" d="M 43.5,103.5 C 42.1696,111.712 42.503,119.878 44.5,128C 45.0801,131.252 43.7467,132.752 40.5,132.5C 36.7962,132.294 34.9628,130.294 35,126.5C 33.4022,119.039 33.2356,111.705 34.5,104.5C 32.7233,112.356 34.89,118.69 41,123.5C 41.3333,117.167 41.6667,110.833 42,104.5C 42.3826,103.944 42.8826,103.611 43.5,103.5 Z"/></g>
<g><path style="opacity:0.088" fill="#4cb8c1" d="M 93.5,113.5 C 95.2972,114.73 97.2972,115.396 99.5,115.5C 100.54,119.78 100.706,124.113 100,128.5C 98.6439,129.38 97.1439,129.714 95.5,129.5C 90.8608,129.176 87.1941,127.176 84.5,123.5C 87.359,121.526 90.0257,119.193 92.5,116.5C 93.1272,115.583 93.4606,114.583 93.5,113.5 Z"/></g>
<g><path style="opacity:0.035" fill="#5dc6cc" d="M 99.5,115.5 C 101.247,115.593 103.081,115.926 105,116.5C 105.92,120.263 107.42,123.763 109.5,127C 105.13,130.29 100.464,131.123 95.5,129.5C 97.1439,129.714 98.6439,129.38 100,128.5C 100.706,124.113 100.54,119.78 99.5,115.5 Z"/></g>
<g><path style="opacity:0.692" fill="#85e5eb" d="M 66.5,118.5 C 68.0247,123.213 70.3581,127.546 73.5,131.5C 73.821,132.817 74.1543,134.151 74.5,135.5C 73.6221,138.13 72.9555,140.797 72.5,143.5C 70.7839,143.371 69.1172,143.038 67.5,142.5C 65.086,141.089 63.4194,139.089 62.5,136.5C 63.4959,136.586 64.3292,136.252 65,135.5C 67.6188,130.006 68.1188,124.34 66.5,118.5 Z"/></g>
<g><path style="opacity:0.691" fill="#8ee9ef" d="M 130.5,112.5 C 130.244,114.792 130.577,116.959 131.5,119C 133.871,119.735 136.205,120.568 138.5,121.5C 139.521,120.099 140.521,118.765 141.5,117.5C 140.771,122.352 139.438,127.019 137.5,131.5C 136.244,131.904 135.077,132.571 134,133.5C 131.719,132.224 129.719,130.557 128,128.5C 127.825,125.843 127.992,123.176 128.5,120.5C 128.565,117.572 129.232,114.905 130.5,112.5 Z"/></g>
<g><path style="opacity:0.463" fill="#6cd6de" d="M 73.5,131.5 C 78.1629,136.487 83.8296,139.821 90.5,141.5C 89.4946,144.721 88.6613,148.054 88,151.5C 86.9887,152.337 85.8221,152.67 84.5,152.5C 77.8141,150.796 72.1474,147.463 67.5,142.5C 69.1172,143.038 70.7839,143.371 72.5,143.5C 72.9555,140.797 73.6221,138.13 74.5,135.5C 74.1543,134.151 73.821,132.817 73.5,131.5 Z"/></g>
<g><path style="opacity:0.345" fill="#6bd5dd" d="M 128.5,120.5 C 127.992,123.176 127.825,125.843 128,128.5C 129.719,130.557 131.719,132.224 134,133.5C 135.077,132.571 136.244,131.904 137.5,131.5C 134.871,136.789 131.204,141.123 126.5,144.5C 125.5,144.5 124.5,144.5 123.5,144.5C 122.215,141.526 120.882,138.526 119.5,135.5C 123.792,131.223 126.792,126.223 128.5,120.5 Z"/></g>
<g><path style="opacity:0.106" fill="#50bcc4" d="M 119.5,135.5 C 120.882,138.526 122.215,141.526 123.5,144.5C 124.5,144.5 125.5,144.5 126.5,144.5C 121.992,149.456 116.325,152.122 109.5,152.5C 109.405,148.775 109.238,145.109 109,141.5C 112.636,139.603 116.136,137.603 119.5,135.5 Z"/></g>
<g><path style="opacity:0.11" fill="#52bdc6" d="M 90.5,141.5 C 94.7847,142.208 99.118,142.708 103.5,143C 104.622,146.409 104.789,149.909 104,153.5C 97.3442,155.749 90.8442,155.416 84.5,152.5C 85.8221,152.67 86.9887,152.337 88,151.5C 88.6613,148.054 89.4946,144.721 90.5,141.5 Z"/></g>
<g><path style="opacity:0.995" fill="#a2f1f5" d="M 135.5,162.5 C 131.303,162.806 129.303,160.806 129.5,156.5C 134.2,151.134 139.2,146.134 144.5,141.5C 149.787,143.737 150.62,147.07 147,151.5C 143.298,155.37 139.464,159.037 135.5,162.5 Z"/></g>
<g><path style="opacity:0.825" fill="#8ae7ed" d="M 69.5,160.5 C 70.8214,164.524 69.4881,167.191 65.5,168.5C 59.8105,166.481 55.4772,162.815 52.5,157.5C 53.1322,155.035 54.6322,153.369 57,152.5C 61.2466,155.04 65.4133,157.707 69.5,160.5 Z"/></g>
<g><path style="opacity:0.414" fill="#75dce3" d="M 129.5,156.5 C 129.303,160.806 131.303,162.806 135.5,162.5C 133.054,165.231 130.054,167.231 126.5,168.5C 125.178,168.67 124.011,168.337 123,167.5C 122.692,168.308 122.192,168.975 121.5,169.5C 118.724,167.65 118.057,165.317 119.5,162.5C 122.566,160.11 125.9,158.11 129.5,156.5 Z"/></g>
<g><path style="opacity:0.111" fill="#56c2ca" d="M 69.5,160.5 C 76.1823,164.675 83.5157,167.008 91.5,167.5C 93.7036,171.716 92.7036,174.716 88.5,176.5C 80.0589,175.799 72.3922,173.132 65.5,168.5C 69.4881,167.191 70.8214,164.524 69.5,160.5 Z"/></g>
<g><path style="opacity:0.175" fill="#56c2ca" d="M 119.5,162.5 C 118.057,165.317 118.724,167.65 121.5,169.5C 122.192,168.975 122.692,168.308 123,167.5C 124.011,168.337 125.178,168.67 126.5,168.5C 119.118,172.687 111.118,175.354 102.5,176.5C 97.814,175.222 96.4807,172.389 98.5,168C 105.643,166.631 112.643,164.798 119.5,162.5 Z"/></g>
</svg>
